<svg xmlns="http://www.w3.org/2000/svg" width="374" height="143" viewBox="0 0 374 143" version="1.1"><path d="M 70.249 3.723 L 66.997 4.127 43.499 28.765 L 20 53.404 19.983 58.952 L 19.967 64.500 9.999 75.140 L 0.031 85.781 1.628 87.106 L 3.225 88.432 6.295 84.966 C 7.983 83.060, 25.820 64.231, 45.932 43.124 C 66.044 22.017, 82.650 4.355, 82.833 3.874 L 83.167 3 78.333 3.160 C 75.675 3.248, 72.037 3.502, 70.249 3.723 M 76.586 16.429 L 64.749 29.046 67.625 27.924 C 69.206 27.307, 73.594 26.509, 77.377 26.151 L 84.253 25.500 92.739 16.268 L 101.224 7.036 98.554 6.020 C 97.084 5.462, 94.204 4.736, 92.153 4.408 L 88.424 3.812 76.586 16.429 M 34.611 60.545 L 20.766 75.091 22.035 79.624 L 23.304 84.157 14.011 93.489 L 4.717 102.821 5.359 104.494 L 6.001 106.166 7.064 105.812 C 7.648 105.617, 16.633 96.467, 27.031 85.479 L 45.936 65.500 45.968 60.409 C 45.985 57.609, 46.631 53.221, 47.402 50.659 C 48.173 48.097, 48.726 46, 48.630 46 C 48.534 46, 42.226 52.545, 34.611 60.545 M 330.415 48.362 C 330.127 49.111, 330.029 52.374, 330.196 55.612 L 330.500 61.500 332.750 61.820 L 335 62.139 335 63.453 L 335 64.767 337 65.290 L 339 65.813 339 67.406 L 339 69 337 69 L 335 69 335 72.430 L 335 75.861 332.750 76.180 L 330.500 76.500 330.500 79.917 L 330.500 83.333 334.500 83.339 L 338.500 83.345 338.817 80.122 L 339.134 76.899 341.638 75.947 L 344.143 74.995 343.821 72.248 L 343.500 69.500 350.205 69.205 L 356.911 68.911 357.205 76.125 L 357.500 83.339 361.500 83.340 L 365.500 83.340 365.796 76.663 L 366.092 69.985 363.546 69.017 L 361 68.050 361 66.525 L 361 65 359 65 L 357 65 357 63.500 L 357 62 358.940 62 L 360.879 62 361.190 58.250 L 361.500 54.500 363.808 54.173 L 366.115 53.846 365.808 50.673 L 365.500 47.500 361.250 47.193 L 357 46.885 357 50.373 L 357 53.861 354.750 54.180 L 352.500 54.500 352.187 58.296 L 351.874 62.092 345.687 61.796 L 339.500 61.500 339.206 54.250 L 338.912 47 334.925 47 L 330.937 47 330.415 48.362" stroke="none" fill="#f23838" fill-rule="evenodd"/><path d="M 50.543 10.277 C 47.267 12.049, 42.002 15.890, 38.843 18.812 L 33.100 24.123 28.433 31.206 L 23.767 38.289 11.807 50.700 L -0.153 63.111 1.046 64.556 C 1.705 65.350, 2.346 66, 2.470 66 C 2.593 66, 14.575 53.507, 29.097 38.238 C 43.619 22.969, 56.118 9.694, 56.872 8.738 L 58.245 7 57.372 7.027 C 56.893 7.041, 53.820 8.504, 50.543 10.277 M 96.654 17.846 L 87.849 26.691 93.274 29.346 C 96.258 30.806, 98.897 32, 99.137 32 C 99.378 32, 103.063 28.190, 107.325 23.533 L 115.074 15.066 110.887 12.033 C 108.584 10.365, 106.421 9, 106.079 9 C 105.738 9, 101.496 12.981, 96.654 17.846 M 109.597 26.607 C 105.251 31.239, 101.876 35.134, 102.097 35.264 C 102.319 35.394, 103.669 36.527, 105.098 37.782 L 107.697 40.064 115.482 31.488 L 123.267 22.913 120.959 20.457 C 119.690 19.105, 118.392 18.042, 118.076 18.093 C 117.759 18.144, 113.944 21.975, 109.597 26.607 M 187.714 32.619 C 187.321 33.012, 187 34.859, 187 36.724 L 187 40.115 191.250 39.807 L 195.500 39.500 195.500 36 L 195.500 32.500 191.964 32.202 C 190.020 32.039, 188.107 32.226, 187.714 32.619 M 79 48.594 L 79 50.187 77 50.710 L 75 51.233 75 52.547 L 75 53.861 72.750 54.180 L 70.500 54.500 70.500 69 L 70.500 83.500 74.500 83.500 L 78.500 83.500 79 69 L 79.500 54.500 88.250 54.211 L 97 53.922 97 50.461 L 97 47 88 47 L 79 47 79 48.594 M 112 48.594 L 112 50.187 110 50.710 L 108 51.233 108 52.547 L 108 53.861 105.750 54.180 L 103.500 54.500 103.216 65.250 L 102.932 76 105.060 76 L 107.187 76 107.710 78 L 108.233 80 110 80 L 111.767 80 112.290 82 L 112.813 84 121 84 L 129.187 84 129.710 82 L 130.233 80 132 80 L 133.767 80 134.290 78 L 134.813 76 136.940 76 L 139.068 76 138.784 65.250 L 138.500 54.500 136.250 54.180 L 134 53.861 134 52.430 L 134 51 132 51 L 130 51 130 49 L 130 47 121 47 L 112 47 112 48.594 M 154 48.525 L 154 50.050 151.500 51 C 150.125 51.523, 149 52.359, 149 52.859 C 149 53.358, 148.087 54.005, 146.972 54.297 L 144.944 54.827 145.222 69.164 L 145.500 83.500 149.500 83.500 L 153.500 83.500 154 69 L 154.500 54.500 163 54.500 L 171.500 54.500 172 69 L 172.500 83.500 176.500 83.500 L 180.500 83.500 180.500 69 L 180.500 54.500 178.250 54.180 L 176 53.861 176 52.430 L 176 51 174.117 51 L 172.233 51 171.710 49 L 171.187 47 162.594 47 L 154 47 154 48.525 M 187 61.443 L 187 76 188.883 76 L 190.767 76 191.290 78 L 191.813 80 193.790 80 L 195.767 80 196.301 82.044 L 196.836 84.087 204.668 83.794 L 212.500 83.500 212.810 79.750 L 213.121 76 204.588 76 L 196.055 76 195.777 61.750 L 195.500 47.500 191.250 47.193 L 187 46.885 187 61.443 M 220 61.443 L 220 76 221.883 76 L 223.767 76 224.290 78 L 224.813 80 226.790 80 L 228.767 80 229.290 82 L 229.813 84 237.438 84 L 245.063 84 245.668 82.423 C 246.001 81.556, 247.336 80.442, 248.636 79.948 L 251 79.050 251 77.525 L 251 76 253 76 L 255 76 255 61.443 L 255 46.885 250.750 47.193 L 246.500 47.500 246.223 61.750 L 245.945 76 237.500 76 L 229.055 76 228.777 61.750 L 228.500 47.500 224.250 47.193 L 220 46.885 220 61.443 M 270.710 49 L 270.187 51 268.094 51 L 266 51 266 52.500 L 266 54 263.973 54 L 261.947 54 262.223 68.750 L 262.500 83.500 266.500 83.500 L 270.500 83.500 270.777 68.750 L 271.053 54 279.500 54 L 287.947 54 288.223 68.750 L 288.500 83.500 292.500 83.500 L 296.500 83.500 297 69 L 297.500 54.500 306 54.500 L 314.500 54.500 315 69 L 315.500 83.500 319.500 83.500 L 323.500 83.500 323.500 69 L 323.500 54.500 321.250 54.180 L 319 53.861 319 52.430 L 319 51 317.406 51 L 315.813 51 315.290 49 L 314.767 47 305.883 47 L 297 47 297 49 L 297 51 292.906 51 L 288.813 51 288.290 49 L 287.767 47 279.500 47 L 271.233 47 270.710 49 M 112.704 54.630 C 112.317 55.017, 112 59.983, 112 65.667 L 112 76 121.034 76 L 130.068 76 129.784 65.250 L 129.500 54.500 121.454 54.213 C 117.028 54.055, 113.091 54.242, 112.704 54.630 M 36.628 80.970 L 26.859 91.037 29.021 94.535 L 31.183 98.032 20.502 108.998 L 9.821 119.963 10.223 121.169 C 10.444 121.832, 11.090 122.530, 11.658 122.719 L 12.691 123.064 29.546 105.282 C 38.817 95.502, 47.358 86.375, 48.526 85 L 50.651 82.500 48.524 76.702 L 46.396 70.903 36.628 80.970 M 102 90.094 L 95.500 95.039 89.716 96.770 L 83.932 98.500 74.466 108.671 C 69.260 114.266, 65 119.045, 65 119.293 C 65 119.541, 66.840 120.039, 69.089 120.398 L 73.178 121.052 64.546 130.122 L 55.915 139.192 57.071 140.585 C 57.706 141.351, 58.601 141.747, 59.058 141.464 C 59.516 141.181, 71.420 128.817, 85.512 113.987 L 111.134 87.025 110.508 86.013 C 110.164 85.456, 109.571 85.034, 109.191 85.075 C 108.811 85.116, 105.575 87.375, 102 90.094 M 45.139 94.475 C 40.663 99.138, 37 103.335, 37 103.802 C 37 104.269, 38.123 105.706, 39.495 106.996 L 41.991 109.340 30.895 120.696 L 19.798 132.052 21.133 133.661 L 22.468 135.269 35.252 121.885 C 42.283 114.523, 51.087 105.125, 54.817 101 L 61.598 93.500 57.438 89.749 L 53.278 85.997 45.139 94.475 M 108.471 95.250 C 105.830 98.138, 99.469 104.821, 94.335 110.103 C 89.201 115.384, 85 119.985, 85 120.328 C 85 120.670, 86.463 120.701, 88.250 120.396 C 90.037 120.091, 94.446 118.992, 98.046 117.954 L 104.592 116.066 111.546 111.148 C 115.371 108.443, 119.827 104.822, 121.450 103.102 L 124.399 99.974 119.487 94.987 C 116.786 92.244, 114.282 90, 113.924 90 C 113.567 90, 111.113 92.362, 108.471 95.250 M 57.250 104.230 C 52.712 108.801, 49 112.815, 49 113.150 C 49 113.484, 50.350 114.317, 52 115 C 53.650 115.683, 55 116.600, 55 117.037 C 55 117.474, 50.503 122.541, 45.006 128.298 L 35.013 138.766 36.533 140.028 L 38.054 141.290 51.261 127.395 C 58.524 119.753, 67.512 110.316, 71.234 106.424 C 74.955 102.533, 78 99.104, 78 98.804 C 78 98.505, 76.088 98.005, 73.750 97.694 C 71.412 97.382, 68.600 96.855, 67.500 96.523 L 65.500 95.918 57.250 104.230" stroke="none" fill="#0e50af" fill-rule="evenodd"/></svg>