<?xml version="1.0" encoding="UTF-8"?>
<svg version="1.1" xmlns="http://www.w3.org/2000/svg" width="1496" height="572">
<path d="M0 0 C22.44 0 44.88 0 68 0 C69.32 4.95 70.64 9.9 72 15 C87.84 15.495 87.84 15.495 104 16 C104 10.72 104 5.44 104 0 C127.76 0 151.52 0 176 0 C177.98 7.425 177.98 7.425 180 15 C185.94 15.495 185.94 15.495 192 16 C192 19.63 192 23.26 192 27 C197.94 27.66 203.88 28.32 210 29 C210 67.61 210 106.22 210 146 C199.11 146 188.22 146 177 146 C176.60326442 135.15765285 176.21115614 124.3151629 175.82654572 113.47237873 C175.64766213 108.43420085 175.46697987 103.39610273 175.28173828 98.3581543 C175.10205446 93.46935202 174.92768009 88.58038339 174.75654602 83.69127464 C174.69136938 81.85352368 174.6244794 80.01583239 174.55558777 78.17821693 C173.95486677 62.09974682 174 46.11160263 174 30 C151.56 30 129.12 30 106 30 C106 39.57 106 49.14 106 59 C105.82195737 66.29169797 105.61696449 73.57555815 105.34375 80.86328125 C105.27604301 82.77237904 105.20879324 84.6814931 105.14196777 86.59062195 C104.96891304 91.50097335 104.78985396 96.41108588 104.60931396 101.32116699 C104.42454166 106.37738727 104.24576515 111.43381969 104.06640625 116.49023438 C103.71663391 126.32703524 103.35992792 136.16356549 103 146 C91.78 146 80.56 146 69 146 C68.73812982 132.23893099 68.47714477 118.47784597 68.21769714 104.71673107 C68.09717715 98.32619884 67.97627658 91.93567429 67.85449219 85.54516602 C67.73687351 79.37250242 67.62027294 73.19982034 67.50436401 67.0271244 C67.4600718 64.67774081 67.41541912 62.32836399 67.37039185 59.97899437 C67.30715758 56.67636201 67.24523089 53.37370743 67.18359375 50.07104492 C67.16489227 49.11006393 67.1461908 48.14908295 67.12692261 47.15898132 C67.00946046 40.769209 67 34.39338862 67 28 C45.22 28 23.44 28 1 28 C0.855625 37.631875 0.71125 47.26375 0.5625 57.1875 C0.11272124 86.79317175 -0.4161318 116.39664015 -1 146 C-12.22 146 -23.44 146 -35 146 C-35.26187018 132.23893099 -35.52285523 118.47784597 -35.78230286 104.71673107 C-35.90282285 98.32619884 -36.02372342 91.93567429 -36.14550781 85.54516602 C-36.26312649 79.37250242 -36.37972706 73.19982034 -36.49563599 67.0271244 C-36.5399282 64.67774081 -36.58458088 62.32836399 -36.62960815 59.97899437 C-36.69284242 56.67636201 -36.75476911 53.37370743 -36.81640625 50.07104492 C-36.83510773 49.11006393 -36.8538092 48.14908295 -36.87307739 47.15898132 C-36.99049518 40.77162251 -37.01524628 34.38845562 -37 28 C-31.39 28 -25.78 28 -20 28 C-20 24.04 -20 20.08 -20 16 C-12.08 15.505 -12.08 15.505 -4 15 C-2.68 10.05 -1.36 5.1 0 0 Z " fill="#0068FE" transform="translate(1084,188)"/>
<path d="M0 0 C-1.30365949 3.39548934 -2.47607342 5.87238342 -4.9375 8.5625 C-5.56398438 9.2534375 -6.19046875 9.944375 -6.8359375 10.65625 C-7.55007813 11.4296875 -8.26421875 12.203125 -9 13 C-10.19496094 14.31484375 -10.19496094 14.31484375 -11.4140625 15.65625 C-18.28176487 23.19248977 -25.24560425 30.63910268 -32.21044922 38.08544922 C-33.95570615 39.95261222 -35.69895935 41.82162095 -37.44140625 43.69140625 C-43.76108303 50.47251118 -50.09253624 57.2425473 -56.4375 64 C-57.0876709 64.69399902 -57.7378418 65.38799805 -58.40771484 66.10302734 C-61.48085374 69.37193774 -64.581655 72.60038659 -67.765625 75.76171875 C-70.05494997 78.03526859 -72.239475 80.33716287 -74.3125 82.8125 C-77.07618029 86.02333755 -79.98619596 89.02267165 -83 92 C-85.91053801 94.87557659 -88.72424022 97.75874094 -91.375 100.875 C-94.41430745 104.43286227 -97.6736402 107.71441691 -101 111 C-104.28468311 114.24451578 -107.50734026 117.47922384 -110.5 121 C-113.97610577 125.0895362 -117.78249656 128.8096054 -121.59765625 132.578125 C-124.34325486 135.30308001 -126.99269952 138.05023473 -129.5 141 C-132.97610577 145.0895362 -136.78249656 148.8096054 -140.59765625 152.578125 C-143.34325486 155.30308001 -145.99269952 158.05023473 -148.5 161 C-151.97610577 165.0895362 -155.78249656 168.8096054 -159.59765625 172.578125 C-162.34325486 175.30308001 -164.99269952 178.05023473 -167.5 181 C-170.97610577 185.0895362 -174.78249656 188.8096054 -178.59765625 192.578125 C-181.34325486 195.30308001 -183.99269952 198.05023473 -186.5 201 C-189.97610577 205.0895362 -193.78249656 208.8096054 -197.59765625 212.578125 C-200.34325486 215.30308001 -202.99269952 218.05023473 -205.5 221 C-208.4926604 224.52077694 -211.7153265 227.7554753 -215 231 C-218.26382615 234.22398087 -221.46830141 237.43517847 -224.4375 240.9375 C-228.12543251 245.27784317 -232.19094543 249.2169008 -236.23754883 253.21801758 C-239.72386489 256.68018948 -243.01639882 260.22829114 -246.1953125 263.9765625 C-248.97854155 267.09715264 -251.97833188 269.99877754 -254.95361328 272.93408203 C-257.58056446 275.53937507 -260.10008053 278.18470985 -262.5 281 C-265.78165999 284.8496396 -269.35105176 288.38002309 -272.94873047 291.92919922 C-276.22020631 295.17364737 -279.26963506 298.53617507 -282.2578125 302.0390625 C-284.96800484 305.08954804 -287.90073833 307.90886392 -290.8046875 310.7734375 C-293.44340944 313.44972132 -295.88421502 316.26018451 -298.328125 319.11328125 C-299.94204468 320.93459716 -301.62497231 322.62267968 -303.375 324.3125 C-307.25432383 328.11283308 -310.59818609 332.30821895 -313.984375 336.546875 C-315.58091938 338.48995615 -317.17952253 340.2716986 -319 342 C-323.06498881 340.62815653 -325.67396561 338.77931541 -328.8125 335.875 C-329.60269531 335.15054687 -330.39289063 334.42609375 -331.20703125 333.6796875 C-331.79871094 333.12539063 -332.39039063 332.57109375 -333 332 C-329.68942772 324.38042887 -322.52687708 318.45052072 -316.67578125 312.70703125 C-314.88946557 310.88740432 -313.22522165 308.99546083 -311.5625 307.0625 C-309.14382221 304.25423653 -306.64100317 301.60029407 -304 299 C-301.37959391 296.41990785 -298.89676588 293.78896393 -296.5 291 C-293.48237647 287.48858352 -290.26640919 284.24692598 -286.96875 281 C-285.06013545 279.06108998 -283.27289448 277.06300449 -281.5 275 C-278.48358077 271.48998489 -275.26904868 268.24948724 -271.97265625 265.00390625 C-269.43427584 262.42531388 -267.09349834 259.70207737 -264.73828125 256.95703125 C-262.40404295 254.32904611 -259.91235704 251.88411105 -257.3828125 249.4453125 C-254.99773239 246.95243216 -254.88110607 245.19488159 -254.90576172 241.86083984 C-254.90841034 241.00589935 -254.91105896 240.15095886 -254.91378784 239.27011108 C-254.91903473 238.3430838 -254.92428162 237.41605652 -254.9296875 236.4609375 C-254.92109849 234.49868907 -254.91062079 232.53644816 -254.8984375 230.57421875 C-254.88178205 227.47973488 -254.87490178 224.38692408 -254.90039062 221.29248047 C-254.92145304 218.30592588 -254.89802821 215.32235174 -254.8671875 212.3359375 C-254.88457977 211.4210556 -254.90197205 210.50617371 -254.91989136 209.56356812 C-254.80352627 203.31148448 -253.23497569 200.174694 -248.84255981 195.72842407 C-248.23451508 195.15804413 -247.62647034 194.58766418 -247 194 C-245.83215115 192.83451672 -244.66531469 191.66801707 -243.5 190.5 C-242.91476563 189.92507812 -242.32953125 189.35015625 -241.7265625 188.7578125 C-240.02295112 187.02336652 -238.44855962 185.22761453 -236.875 183.375 C-233.59487411 179.56055496 -230.07474674 176.03437123 -226.5 172.5 C-223.07153508 169.10995464 -219.67739151 165.74805865 -216.5625 162.0625 C-212.686001 157.48648238 -208.3747532 153.35013799 -204.11572266 149.13525391 C-200.54318081 145.58558242 -197.15403123 141.96851023 -193.90234375 138.12109375 C-190.67429841 134.52185634 -187.1922629 131.17331789 -183.75537109 127.77490234 C-180.913276 124.9524361 -178.15009878 122.12416268 -175.5625 119.0625 C-172.25427342 115.15730021 -168.63486259 111.59719074 -165 108 C-159.58505132 102.65534806 -159.58505132 102.65534806 -154.5 97 C-150.64877784 92.44141051 -146.35336869 88.32897829 -142.11547852 84.13500977 C-138.54301767 80.58542182 -135.15395599 76.96842121 -131.90234375 73.12109375 C-128.67429841 69.52185634 -125.1922629 66.17331789 -121.75537109 62.77490234 C-118.913276 59.9524361 -116.15009878 57.12416268 -113.5625 54.0625 C-109.686001 49.48648238 -105.3747532 45.35013799 -101.11572266 41.13525391 C-97.54318081 37.58558242 -94.15403123 33.96851023 -90.90234375 30.12109375 C-87.68188581 26.53031621 -84.20862657 23.18922964 -80.77954102 19.79907227 C-77.14559943 16.19050959 -73.66959577 12.50433902 -70.3671875 8.5859375 C-69.91601562 8.06257813 -69.46484375 7.53921875 -69 7 C-68.36360596 6.23671387 -68.36360596 6.23671387 -67.71435547 5.45800781 C-65.52626003 3.59709839 -64.04042876 3.43081204 -61.203125 3.0859375 C-60.25284424 2.96516846 -59.30256348 2.84439941 -58.32348633 2.7199707 C-57.30923584 2.60613037 -56.29498535 2.49229004 -55.25 2.375 C-53.67738403 2.18780396 -53.67738403 2.18780396 -52.07299805 1.99682617 C-49.05034647 1.64608036 -46.02629632 1.31758409 -43 1 C-41.72253906 0.86464844 -40.44507813 0.72929687 -39.12890625 0.58984375 C-26.1354269 -0.49677231 -13.02614043 -0.08863175 0 0 Z " fill="#FF2D2D" transform="translate(333,12)"/>
<path d="M0 0 C23.76 0 47.52 0 72 0 C72 5.28 72 10.56 72 16 C77.28 16 82.56 16 88 16 C88 19.63 88 23.26 88 27 C89.93166016 27.19916016 89.93166016 27.19916016 91.90234375 27.40234375 C93.58075362 27.58049899 95.25913773 27.75889692 96.9375 27.9375 C97.78763672 28.02451172 98.63777344 28.11152344 99.51367188 28.20117188 C100.32255859 28.28818359 101.13144531 28.37519531 101.96484375 28.46484375 C102.7137085 28.543396 103.46257324 28.62194824 104.23413086 28.70288086 C106 29 106 29 107 30 C107.15406643 32.3074495 107.23868179 34.61954771 107.29711914 36.93139648 C107.31677231 37.65675095 107.33642548 38.38210541 107.35667419 39.12944031 C107.42086154 41.54322807 107.47806504 43.95712852 107.53515625 46.37109375 C107.57818057 48.04965698 107.62159721 49.72821019 107.66539001 51.40675354 C107.75650817 54.93671087 107.84446548 58.46672754 107.92993164 61.99682617 C108.038952 66.49899301 108.15318561 71.00100627 108.26950932 75.50298977 C108.38067492 79.81314632 108.48929894 84.12336582 108.59765625 88.43359375 C108.62860225 89.65366025 108.62860225 89.65366025 108.66017342 90.89837456 C108.87067705 99.2667477 109.0539509 107.62818265 109 116 C100.585 116.495 100.585 116.495 92 117 C90.68 121.95 89.36 126.9 88 132 C83.05 132 78.1 132 73 132 C72.896875 133.155 72.79375 134.31 72.6875 135.5 C72.26509671 140.23091689 70.81501912 143.15994902 69 148 C47.22 148 25.44 148 3 148 C0.64069109 141.70850958 -0.44226441 138.24663864 -1 132 C-5.95 132 -10.9 132 -16 132 C-17.32 127.05 -18.64 122.1 -20 117 C-25.61 116.67 -31.22 116.34 -37 116 C-36.68056914 99.99969805 -36.34727089 83.99972234 -36 68 C-35.9783075 66.99402771 -35.95661499 65.98805542 -35.93426514 64.95159912 C-35.81579457 59.48321121 -35.69203858 54.01499686 -35.55929565 48.54693604 C-35.51977393 46.89101057 -35.48195169 45.23504367 -35.4458313 43.57904053 C-35.395591 41.2934396 -35.33928135 39.00807071 -35.28125 36.72265625 C-35.23581055 34.80078491 -35.23581055 34.80078491 -35.18945312 32.84008789 C-35 30 -35 30 -34 29 C-32.66197814 28.77486899 -31.31426977 28.60639193 -29.96484375 28.46484375 C-29.15595703 28.37783203 -28.34707031 28.29082031 -27.51367188 28.20117188 C-26.66353516 28.11416016 -25.81339844 28.02714844 -24.9375 27.9375 C-24.08349609 27.84662109 -23.22949219 27.75574219 -22.34960938 27.66210938 C-20.23348465 27.43749278 -18.11679106 27.21824773 -16 27 C-16 23.37 -16 19.74 -16 16 C-11.05 14.68 -6.1 13.36 -1 12 C-0.67 8.04 -0.34 4.08 0 0 Z M4 30 C-0.64728727 37.18332001 0.68791001 48.7688635 0.4375 57 C0.41632111 57.669104 0.39514221 58.33820801 0.37332153 59.02758789 C-0.21429359 78.01592692 -0.06417481 97.00425702 0 116 C23.76 116 47.52 116 72 116 C71.4199742 87.33015347 70.79823179 58.66447783 70 30 C55.24795024 29.3533725 40.51564096 28.89694818 25.75 28.875 C23.87030518 28.86823242 23.87030518 28.86823242 21.95263672 28.86132812 C12.9109981 28.76623745 12.9109981 28.76623745 4 30 Z " fill="#0068FE" transform="translate(448,188)"/>
<path d="M0 0 C33.61151079 1.61151079 33.61151079 1.61151079 35 3 C35.2265263 4.41369537 35.39428187 5.83693695 35.53515625 7.26171875 C35.62216797 8.13376953 35.70917969 9.00582031 35.79882812 9.90429688 C35.88583984 10.82275391 35.97285156 11.74121094 36.0625 12.6875 C36.19881836 14.03618164 36.19881836 14.03618164 36.33789062 15.41210938 C36.78165574 19.95986761 37.11382565 24.42420881 37 29 C30.6221448 30.17293889 24.49678438 31.29530838 18 31 C18.02320313 31.65742188 18.04640625 32.31484375 18.0703125 32.9921875 C18.24956136 42.44116292 17.16447744 51.64259198 16 61 C10.72 61 5.44 61 0 61 C0 64.96 0 68.92 0 73 C5.28 73 10.56 73 16 73 C16 76.96 16 80.92 16 85 C17.423125 85.4125 18.84625 85.825 20.3125 86.25 C25.97256499 87.89059855 31.47376748 89.96244254 37 92 C36.45868247 110.340395 35.84412449 128.6704396 35 147 C23.78 147 12.56 147 1 147 C0.71343927 140.1865069 0.4280289 133.37298523 0.14550781 126.55932617 C0.04917194 124.24419406 -0.04782391 121.9290893 -0.14550781 119.61401367 C-0.28626671 116.2752987 -0.42460648 112.93649065 -0.5625 109.59765625 C-0.60624756 108.57229263 -0.64999512 107.54692902 -0.69506836 106.49049377 C-0.93344848 100.65422783 -1.04230799 94.84114678 -1 89 C-2.11117188 89.15339844 -3.22234375 89.30679688 -4.3671875 89.46484375 C-9.27835276 90.07577633 -14.18261557 90.3459316 -19.125 90.5625 C-20.06553223 90.6049585 -21.00606445 90.64741699 -21.97509766 90.69116211 C-32.31570088 91.11695165 -42.65284217 91.09829951 -53 91 C-52.855625 92.15757812 -52.71125 93.31515625 -52.5625 94.5078125 C-52.37481224 96.04685211 -52.18732273 97.58591591 -52 99.125 C-51.90460938 99.88554687 -51.80921875 100.64609375 -51.7109375 101.4296875 C-51.57558594 102.55117188 -51.57558594 102.55117188 -51.4375 103.6953125 C-51.35371094 104.37609863 -51.26992187 105.05688477 -51.18359375 105.75830078 C-50.95929227 108.49704567 -51 111.25208538 -51 114 C-57.27 116.31 -63.54 118.62 -70 121 C-70.309375 123.43375 -70.61875 125.8675 -70.9375 128.375 C-71.03281006 129.11927246 -71.12812012 129.86354492 -71.22631836 130.63037109 C-71.91342466 136.08361806 -72.45252133 141.52521325 -73 147 C-83.89 147 -94.78 147 -106 147 C-106 137.43 -106 127.86 -106 118 C-97.09 117.01 -97.09 117.01 -88 116 C-88 107.09 -88 98.18 -88 89 C-82.72 89 -77.44 89 -72 89 C-72.33 85.04 -72.66 81.08 -73 77 C-77.95 75.68 -82.9 74.36 -88 73 C-88 69.37 -88 65.74 -88 62 C-89.28777344 61.86722656 -90.57554688 61.73445313 -91.90234375 61.59765625 C-93.58075362 61.41950101 -95.25913773 61.24110308 -96.9375 61.0625 C-97.78763672 60.97548828 -98.63777344 60.88847656 -99.51367188 60.79882812 C-100.32255859 60.71181641 -101.13144531 60.62480469 -101.96484375 60.53515625 C-102.7137085 60.456604 -103.46257324 60.37805176 -104.23413086 60.29711914 C-106 60 -106 60 -107 59 C-108.07026807 48.17840067 -108.14150665 37.23371111 -108.23117065 26.36752319 C-108.24966286 24.41067625 -108.28205133 22.45397645 -108.31469727 20.49731445 C-108.31912842 19.26843506 -108.32355957 18.03955566 -108.328125 16.7734375 C-108.3374707 15.68466309 -108.34681641 14.59588867 -108.35644531 13.47412109 C-108 10 -108 10 -105 1 C-94.11 1 -83.22 1 -72 1 C-71.25273362 7.72539746 -70.70987699 14.26160589 -70.4375 21 C-70.3950415 22.02222656 -70.35258301 23.04445312 -70.30883789 24.09765625 C-69.8697926 35.73014799 -69.90350607 47.36134715 -70 59 C-68.72769531 58.98839844 -67.45539063 58.97679687 -66.14453125 58.96484375 C-56.62583894 58.90552304 -47.13453456 58.98920188 -37.625 59.4375 C-36.76495361 59.47673584 -35.90490723 59.51597168 -35.01879883 59.55639648 C-30.28927243 59.798996 -25.67633496 60.25002175 -21 61 C-20.93941406 59.83984375 -20.87882812 58.6796875 -20.81640625 57.484375 C-19.43122426 31.43122426 -19.43122426 31.43122426 -18 30 C-16.66197814 29.77486899 -15.31426977 29.60639193 -13.96484375 29.46484375 C-12.87224243 29.34677368 -12.87224243 29.34677368 -11.75756836 29.22631836 C-10.8269458 29.1310083 -9.89632324 29.03569824 -8.9375 28.9375 C-5.988125 28.628125 -3.03875 28.31875 0 28 C0 18.76 0 9.52 0 0 Z " fill="#FF2E2E" transform="translate(1428,187)"/>
<path d="M0 0 C33.68421053 1.68421053 33.68421053 1.68421053 35 3 C35.15555726 6.13720644 35.24678564 9.25449086 35.29711914 12.39404297 C35.31677231 13.38113754 35.33642548 14.36823212 35.35667419 15.38523865 C35.42087978 18.67081694 35.47806428 21.95647849 35.53515625 25.2421875 C35.57817062 27.52369933 35.62158721 29.80520361 35.66539001 32.08670044 C35.75651281 36.88359737 35.84447803 41.68053783 35.92993164 46.47753906 C36.03908916 52.60502895 36.15327379 58.73241049 36.26950932 64.85976982 C36.38047769 70.71637971 36.4892865 76.57302902 36.59765625 82.4296875 C36.61828691 83.53936764 36.63891758 84.64904778 36.66017342 85.79235458 C36.71869248 88.96555404 36.77573289 92.13877649 36.83227539 95.31201172 C36.84940582 96.23401871 36.86653625 97.1560257 36.88418579 98.10597229 C36.99429222 104.40705156 37 110.69555621 37 117 C58.78 117 80.56 117 103 117 C103.144375 107.656875 103.28875 98.31375 103.4375 88.6875 C103.59885362 78.53976633 103.76355881 68.39209101 103.93035889 58.2444458 C103.97580949 55.47862254 104.02093888 52.71279439 104.06573486 49.94696045 C104.18470598 42.62082632 104.30843604 35.2948093 104.44070435 27.96890259 C104.48024147 25.73925706 104.51806236 23.50958044 104.5541687 21.27987671 C104.60441343 18.19950197 104.66073834 15.11929933 104.71875 12.0390625 C104.73906029 10.67333351 104.73906029 10.67333351 104.75978088 9.28001404 C104.88576141 3.11423859 104.88576141 3.11423859 106 2 C107.99870782 1.77059064 110.00473498 1.60440649 112.01171875 1.46484375 C113.24470703 1.37783203 114.47769531 1.29082031 115.74804688 1.20117188 C117.04806641 1.11416016 118.34808594 1.02714844 119.6875 0.9375 C120.96818359 0.84662109 122.24886719 0.75574219 123.56835938 0.66210938 C129.07263335 0.28141856 134.47701133 0 140 0 C140 38.61 140 77.22 140 117 C134.72 117 129.44 117 124 117 C124 121.29 124 125.58 124 130 C122.185 130.680625 120.37 131.36125 118.5 132.0625 C109.17307822 135.97165848 105.01786536 139.62498083 101 149 C80.54 149 60.08 149 39 149 C36.64069109 142.70850958 35.55773559 139.24663864 35 133 C29.72 133 24.44 133 19 133 C16.76108858 127.54873741 15.52393706 122.86809507 15 117 C10.05 117 5.1 117 0 117 C0 78.39 0 39.78 0 0 Z " fill="#0068FE" transform="translate(880,187)"/>
<path d="M0 0 C22.77 0 45.54 0 69 0 C71.35930891 6.29149042 72.44226441 9.75336136 73 16 C77.95 16 82.9 16 88 16 C88 19.63 88 23.26 88 27 C93.94 27.66 99.88 28.32 106 29 C106 67.61 106 106.22 106 146 C95.11 146 84.22 146 73 146 C72.60326442 135.15765285 72.21115614 124.3151629 71.82654572 113.47237873 C71.64766213 108.43420085 71.46697987 103.39610273 71.28173828 98.3581543 C71.10205446 93.46935202 70.92768009 88.58038339 70.75654602 83.69127464 C70.69136938 81.85352368 70.6244794 80.01583239 70.55558777 78.17821693 C69.95486677 62.09974682 70 46.11160263 70 30 C47.56 30 25.12 30 2 30 C2 39.57 2 49.14 2 59 C1.82195737 66.29169797 1.61696449 73.57555815 1.34375 80.86328125 C1.27604301 82.77237904 1.20879324 84.6814931 1.14196777 86.59062195 C0.96891304 91.50097335 0.78985396 96.41108588 0.60931396 101.32116699 C0.42454166 106.37738727 0.24576515 111.43381969 0.06640625 116.49023438 C-0.28336609 126.32703524 -0.64007208 136.16356549 -1 146 C-12.22 146 -23.44 146 -35 146 C-35.26202011 132.77774068 -35.52303284 119.5554625 -35.78230286 106.33314896 C-35.90274905 100.19262719 -36.02362588 94.05211454 -36.14550781 87.91162109 C-36.26325032 81.97885859 -36.37983427 76.04607432 -36.49563599 70.11327362 C-36.53987906 67.85682116 -36.58453017 65.60037667 -36.62960815 63.34394073 C-37.08272768 40.63679028 -37.08272768 40.63679028 -37 31 C-36.04738281 30.72027344 -35.09476563 30.44054687 -34.11328125 30.15234375 C-25.17654883 27.48705127 -25.17654883 27.48705127 -19.25390625 20.70703125 C-15.15437696 15.12605212 -6.44829555 13.31354169 0 12 C0 8.04 0 4.08 0 0 Z " fill="#0068FE" transform="translate(616,188)"/>
<path d="M0 0 C3.80214257 1.30902337 4.8350183 3.50795376 6.734375 6.94140625 C5.37767262 9.94497278 3.83644145 12.12662161 1.57421875 14.515625 C0.94966797 15.17884766 0.32511719 15.84207031 -0.31835938 16.52539062 C-0.98158203 17.21955078 -1.64480469 17.91371094 -2.328125 18.62890625 C-3.00552734 19.34498047 -3.68292969 20.06105469 -4.38085938 20.79882812 C-8.63630079 25.28187673 -12.96776239 29.67764921 -17.37109375 34.015625 C-19.19355256 35.86814499 -20.8916495 37.77763066 -22.578125 39.75390625 C-25.64062727 43.33039491 -28.91843445 46.63529812 -32.265625 49.94140625 C-35.52946068 53.16537829 -38.73392708 56.37658551 -41.703125 59.87890625 C-45.39172666 64.22003695 -49.45806257 68.15974966 -53.50537109 72.16162109 C-56.96932623 75.60161113 -60.23679884 79.12685569 -63.39453125 82.8515625 C-66.40713191 86.216367 -69.65134542 89.34685813 -72.86352539 92.51977539 C-75.60904327 95.24464704 -78.25839976 97.9917295 -80.765625 100.94140625 C-83.7582854 104.46218319 -86.9809515 107.69688155 -90.265625 110.94140625 C-93.52945115 114.16538712 -96.73392641 117.37658472 -99.703125 120.87890625 C-102.86572503 124.60098343 -106.29533478 128.01006429 -109.765625 131.44140625 C-113.19407605 134.83146479 -116.58823242 138.19334633 -119.703125 141.87890625 C-123.53923095 146.40724185 -127.79143936 150.5192871 -132.02905273 154.66772461 C-135.04796491 157.64249692 -137.93650546 160.66686724 -140.703125 163.87890625 C-144.97806508 168.83134799 -149.63704843 173.36318556 -154.3046875 177.94140625 C-157.53086519 181.13021509 -160.65799358 184.33897417 -163.609375 187.78515625 C-168.8921948 193.91849805 -174.76693776 199.48513325 -180.52734375 205.1640625 C-185.11370591 209.7107159 -189.57782208 214.28014445 -193.74951172 219.21264648 C-200.41144309 226.80896468 -200.41144309 226.80896468 -204.890625 227.12890625 C-208.00885397 225.56979176 -209.93544197 223.5168717 -212.265625 220.94140625 C-212.86375 220.34328125 -213.461875 219.74515625 -214.078125 219.12890625 C-214.47 218.73703125 -214.861875 218.34515625 -215.265625 217.94140625 C-213.92563002 214.93458825 -212.46717209 212.94378016 -210.078125 210.69140625 C-207.63248907 208.32078983 -205.34018934 205.91639004 -203.140625 203.31640625 C-199.86049952 199.50196169 -196.34037763 195.9757719 -192.765625 192.44140625 C-188.71095873 188.43229163 -184.82584334 184.38276105 -181.13671875 180.03125 C-178.12411809 176.6664455 -174.87990458 173.53595437 -171.66772461 170.36303711 C-168.34286187 167.06317725 -165.22600612 163.66334817 -162.1953125 160.08984375 C-159.03530679 156.57161877 -155.64514096 153.28090323 -152.26367188 149.9765625 C-149.40453494 147.23514883 -149.40453494 147.23514883 -147.265625 143.94140625 C-147.92304688 143.915625 -148.58046875 143.88984375 -149.2578125 143.86328125 C-158.85013633 143.29138118 -167.95029663 141.16673469 -177.265625 138.94140625 C-177.89453125 137.11230469 -177.89453125 137.11230469 -178.265625 134.94140625 C-176.66454212 132.81875849 -175.12671097 131.05960465 -173.265625 129.19140625 C-172.23369565 128.11393147 -171.20244442 127.03580683 -170.171875 125.95703125 C-169.66785156 125.43689453 -169.16382813 124.91675781 -168.64453125 124.38085938 C-166.95640586 122.6186095 -165.35362512 120.79407306 -163.765625 118.94140625 C-159.04651563 113.50490258 -154.14445348 108.23407837 -149.265625 102.94140625 C-148.30465939 101.89716129 -147.34372185 100.85289049 -146.3828125 99.80859375 C-141.03238085 93.99891298 -135.65796356 88.21220641 -130.265625 82.44140625 C-125.79756131 77.65871615 -121.334765 72.87134628 -116.890625 68.06640625 C-115.51541188 66.58022492 -114.13921663 65.09462603 -112.73583984 63.63500977 C-111.18604609 61.94175964 -111.18604609 61.94175964 -109.93994141 59.79272461 C-102.8420786 49.49333268 -88.66089144 48.28917722 -77.26464844 45.48461914 C-62.2830066 41.73684937 -51.67547054 36.80519406 -40.08288574 26.5328064 C-37.69892702 24.44514106 -35.1995551 22.53851157 -32.66015625 20.64453125 C-31.89203613 20.06316406 -31.12391602 19.48179687 -30.33251953 18.8828125 C-26.32778379 15.87817646 -22.3060564 12.8978603 -18.265625 9.94140625 C-17.52521973 9.39806641 -16.78481445 8.85472656 -16.02197266 8.29492188 C-13.99305112 6.82119167 -11.94734129 5.37599893 -9.890625 3.94140625 C-9.3025708 3.51375977 -8.7145166 3.08611328 -8.10864258 2.64550781 C-5.21984421 0.68127614 -3.52838463 -0.06330834 0 0 Z " fill="#0068FE" transform="translate(438.265625,340.05859375)"/>
<path d="M0 0 C-0.88841076 5.90063866 -2.14136276 11.61613109 -3.77758789 17.34887695 C-6.04424979 25.38156445 -7.69067789 33.34339515 -8.75 41.625 C-8.87906738 42.62418457 -9.00813477 43.62336914 -9.14111328 44.65283203 C-9.75888197 49.99521409 -10.04491041 55.18038766 -9.91015625 60.55859375 C-9.54990229 78.63740577 -9.54990229 78.63740577 -15.66650391 85.66552734 C-18.10703157 88.10731204 -20.62902942 90.39268461 -23.29394531 92.58691406 C-25.48622443 94.40272854 -27.45739811 96.39478619 -29.4375 98.4375 C-30.35402344 99.33855469 -30.35402344 99.33855469 -31.2890625 100.2578125 C-33.04733044 102.04819493 -34.68150368 103.90584233 -36.3125 105.8125 C-39.22250432 109.20195583 -42.32159559 112.364518 -45.5 115.5 C-49.24031312 119.18993853 -52.78239347 122.97503694 -56.19140625 126.97265625 C-59.17650116 130.31879936 -62.40882768 133.41593952 -65.59765625 136.56640625 C-67.63714373 138.63242365 -69.555078 140.73005549 -71.4375 142.9375 C-74.30172413 146.28925164 -77.36335221 149.40555399 -80.5 152.5 C-83.5531698 155.51231105 -86.54072412 158.53548902 -89.3125 161.8125 C-93.19856683 166.37604095 -97.48287377 170.53585856 -101.76293945 174.72583008 C-104.74069432 177.66005908 -107.5907531 180.63819096 -110.3125 183.8125 C-115.41464887 189.72324836 -121.05834756 195.10225282 -126.6171875 200.578125 C-130.97765792 204.89883429 -135.16341671 209.26952212 -139.15917969 213.92773438 C-142.96368808 218.21058149 -147.0666897 222.20967335 -151.125 226.25 C-152.00542969 227.13429688 -152.88585937 228.01859375 -153.79296875 228.9296875 C-155.07494141 230.20972656 -155.07494141 230.20972656 -156.3828125 231.515625 C-157.14996582 232.28165039 -157.91711914 233.04767578 -158.70751953 233.83691406 C-163.42826255 238.29120406 -165.29564917 239.88260819 -172 241 C-173.65 236.38 -175.3 231.76 -177 227 C-175.46142334 225.46666016 -173.92284668 223.93332031 -172.33764648 222.35351562 C-167.23037472 217.26288159 -162.12591902 212.16943085 -157.02281094 207.07462311 C-153.93150004 203.98851048 -150.83927448 200.90332652 -147.74487305 197.8203125 C-144.75355357 194.83993119 -141.76474879 191.8570486 -138.77760506 188.8724823 C-137.64272656 187.73943848 -136.50697458 186.6072688 -135.37029839 185.47602844 C-129.89432803 180.02518462 -124.45207315 174.59174628 -119.47657776 168.67053223 C-117.82475097 166.8017313 -116.05466775 165.12447055 -114.21875 163.4375 C-113.60515625 162.86773437 -112.9915625 162.29796875 -112.359375 161.7109375 C-111.1027732 160.55465265 -109.83137014 159.41428025 -108.546875 158.2890625 C-105.30452721 155.22684515 -104.03349153 153.94689691 -103.87109375 149.35546875 C-104.19946989 147.89206103 -104.58299114 146.44065841 -105 145 C-105.25217285 144.04432129 -105.5043457 143.08864258 -105.76416016 142.10400391 C-106.96383583 137.69480631 -108.2654762 133.31749834 -109.56054688 128.93554688 C-109.87185547 127.85982422 -110.18316406 126.78410156 -110.50390625 125.67578125 C-110.79080322 124.70552002 -111.0777002 123.73525879 -111.37329102 122.7355957 C-111.99515113 120.0211654 -112.22920109 117.77190066 -112 115 C-110.49609375 113.04296875 -110.49609375 113.04296875 -108.4375 111.1875 C-105.73679948 108.6561814 -103.19278754 106.14731481 -100.8125 103.3125 C-97.55569937 99.51664272 -94.0538727 96.01377824 -90.5 92.5 C-87.05060998 89.08930738 -83.63880013 85.70378415 -80.5 82 C-77.36119859 78.29621434 -73.94937324 74.91070855 -70.5 71.5 C-67.07155172 68.10993882 -63.6773928 64.74806018 -60.5625 61.0625 C-57.25427322 57.15729997 -53.6348601 53.59719316 -50 50 C-44.61461588 44.68798548 -44.61461588 44.68798548 -39.5625 39.0625 C-35.50058481 34.25261065 -30.94471917 29.92113288 -26.47558594 25.49511719 C-22.75876385 21.80047405 -19.20840839 18.05086305 -15.8203125 14.05078125 C-13.20538602 11.10478039 -10.45608374 8.30117928 -7.6875 5.5 C-7.15874268 4.95835205 -6.62998535 4.4167041 -6.08520508 3.85864258 C-2.23651226 0 -2.23651226 0 0 0 Z " fill="#FF2E2E" transform="translate(195,184)"/>
<path d="M0 0 C2.14404297 1.53686523 2.14404297 1.53686523 4.3671875 3.62109375 C5.23569336 4.43433105 6.10419922 5.24756836 6.99902344 6.08544922 C13.12082656 11.99750235 19.1270369 18.02534903 25.125 24.0625 C26.47632686 25.4188546 27.82788772 26.7749761 29.1796875 28.13085938 C32.45582527 31.41789555 35.72879311 34.70805696 39 38 C37.02096681 42.27950725 34.25935261 45.27210627 31.0625 48.6875 C30.18525269 49.62613892 30.18525269 49.62613892 29.2902832 50.58374023 C24.22999828 55.91060908 18.79335922 60.48648092 13 65 C11.78202331 66.00140996 10.5673897 67.00689474 9.35546875 68.015625 C0.58794642 75.29531211 -8.44725405 82.00962662 -17.82373047 88.48095703 C-20.07931836 90.05536446 -22.30914829 91.66142333 -24.53515625 93.27734375 C-25.28289307 93.81673584 -26.03062988 94.35612793 -26.80102539 94.91186523 C-28.21465474 95.93281105 -29.62435447 96.95923221 -31.02905273 97.99243164 C-38.3437142 103.23945314 -46.17225396 106.28462177 -54.8203125 108.62109375 C-56.04068207 108.9590799 -56.04068207 108.9590799 -57.28570557 109.30389404 C-59.89656887 110.023577 -62.51037587 110.73161204 -65.125 111.4375 C-66.0158429 111.6798941 -66.90668579 111.92228821 -67.82452393 112.17202759 C-78.29840161 115.01876114 -88.779835 117.82382328 -99.375 120.1875 C-100.2323877 120.38335693 -101.08977539 120.57921387 -101.97314453 120.78100586 C-107.69564121 121.98898608 -113.16098482 122.20121243 -119 122 C-118.63909752 116.88088323 -115.80087135 114.17867011 -112.375 110.6875 C-111.26870964 109.52812718 -110.16323598 108.3679745 -109.05859375 107.20703125 C-108.25977783 106.37486084 -108.25977783 106.37486084 -107.44482422 105.52587891 C-105.71105479 103.69484496 -104.06687219 101.79917303 -102.4375 99.875 C-98.79952992 95.65886841 -94.82493281 91.79375792 -90.84375 87.90625 C-88.6932122 85.76178716 -86.69806319 83.52186789 -84.71875 81.21875 C-79.99262224 75.76076821 -74.81681316 70.76955119 -69.671875 65.7109375 C-65.49299119 61.57469536 -61.51151504 57.36103708 -57.6796875 52.90234375 C-54.93080682 49.78907656 -51.96647676 46.90400731 -49 44 C-44.67909532 39.72900863 -40.49891759 35.42837002 -36.5703125 30.7890625 C-34.16568944 28.04946708 -31.54535448 25.53704432 -28.94921875 22.98046875 C-27.14750724 21.14987209 -25.47426102 19.26968521 -23.8125 17.3125 C-20.43986225 13.3908282 -16.83707428 9.72404828 -13.1875 6.0625 C-12.32378784 5.19202026 -12.32378784 5.19202026 -11.44262695 4.30395508 C-5.48387316 -1.63363398 -5.48387316 -1.63363398 0 0 Z " fill="#0068FE" transform="translate(459,361)"/>
<path d="M0 0 C2.63251269 1.31625635 2.70556128 2.35919186 3.71166992 5.08911133 C4.03507858 5.95703812 4.35848724 6.8249649 4.69169617 7.7191925 C5.03449112 8.66392929 5.37728607 9.60866608 5.73046875 10.58203125 C6.08514725 11.54775558 6.43982574 12.51347992 6.80525208 13.50846863 C7.55444691 15.55581064 8.29983813 17.60454787 9.04174805 19.65454102 C10.18063821 22.7935873 11.33855664 25.92515446 12.49804688 29.05664062 C13.22252627 31.04384391 13.94587134 33.03146118 14.66796875 35.01953125 C15.0168364 35.95819534 15.36570404 36.89685944 15.72514343 37.8639679 C16.1960717 39.1800428 16.1960717 39.1800428 16.67651367 40.52270508 C16.95694016 41.2924617 17.23736664 42.06221832 17.52629089 42.8553009 C18.07260174 45.3287015 17.8826338 46.64153612 17 49 C15.51219533 51.0111826 14.01586356 52.8718441 12.375 54.75 C11.64953979 55.59328857 11.64953979 55.59328857 10.90942383 56.45361328 C5.09429838 63.1467176 -1.01343305 69.57017161 -7.11230469 76.00341797 C-10.07077136 79.13253598 -13.00343414 82.28552276 -15.9375 85.4375 C-22.92265496 92.92942691 -29.94342637 100.38760873 -36.96777344 107.84277344 C-39.64826382 110.68813781 -42.3274075 113.5347679 -45.00634766 116.3815918 C-46.33134006 117.78949763 -47.65653413 119.19721369 -48.98193359 120.60473633 C-52.41892067 124.25500412 -55.85260358 127.90830187 -59.28125 131.56640625 C-59.98765625 132.31921875 -60.6940625 133.07203125 -61.421875 133.84765625 C-62.75626878 135.26983909 -64.08968726 136.69293801 -65.421875 138.1171875 C-69.26688496 142.21260778 -73.18734987 146.21521963 -77.19018555 150.15673828 C-78.9811269 151.9807781 -80.65593061 153.86634831 -82.3125 155.8125 C-85.22250451 159.20195605 -88.32159942 162.36451453 -91.5 165.5 C-94.61579869 168.57389855 -97.65877278 171.66702191 -100.5 175 C-103.34122801 178.33297901 -106.38421623 181.42608801 -109.5 184.5 C-112.59491502 187.55337951 -115.61934277 190.62323685 -118.4375 193.9375 C-123.27571924 199.61766426 -128.68897018 204.7674583 -134 210 C-141.12991208 208.09869011 -141.12991208 208.09869011 -143.45703125 205.16015625 C-146.16705882 200.01780712 -146.16705882 200.01780712 -145.68066406 197.05444336 C-144.5100554 193.5212038 -141.72311208 191.131244 -139.1875 188.5 C-138.55457031 187.83291016 -137.92164063 187.16582031 -137.26953125 186.47851562 C-128.94490778 177.78035136 -120.37031327 169.31827262 -111.81323242 160.84960938 C-111.21947311 160.26018555 -110.62571381 159.67076172 -110.01396179 159.06347656 C-108.90445216 157.96228178 -107.79291222 156.86312656 -106.67878723 155.76660156 C-103.8490769 152.95483759 -101.16166018 150.07097746 -98.55371094 147.05151367 C-95.15713654 143.1279068 -91.56199461 139.46531604 -87.859375 135.83203125 C-86.52851581 134.51380313 -85.19779048 133.19543986 -83.8671875 131.87695312 C-81.79974681 129.83440651 -79.73071376 127.79352228 -77.65917969 125.75512695 C-75.63816499 123.76433704 -73.62343678 121.76735161 -71.609375 119.76953125 C-70.99060486 119.16422073 -70.37183472 118.55891022 -69.73431396 117.93525696 C-66.61098967 114.8301966 -64.06467635 111.94523847 -62 108 C-62.34256836 107.46109131 -62.68513672 106.92218262 -63.03808594 106.36694336 C-64.61035569 103.89149435 -66.18019209 101.41451086 -67.75 98.9375 C-68.28882812 98.08994141 -68.82765625 97.24238281 -69.3828125 96.36914062 C-70.44094229 94.69806979 -71.49251415 93.02282631 -72.53710938 91.34326172 C-73.45718155 89.8694879 -74.39378075 88.40577747 -75.35351562 86.95751953 C-76.515625 85.12890625 -76.515625 85.12890625 -78 82 C-76.83008686 78.57883173 -74.66694123 76.44527583 -72.11328125 73.953125 C-70.9521582 72.8084375 -70.9521582 72.8084375 -69.76757812 71.640625 C-68.95740234 70.85171875 -68.14722656 70.0628125 -67.3125 69.25 C-60.82028179 62.932685 -60.82028179 62.932685 -54.73046875 56.234375 C-48.98244978 49.53542454 -42.52565286 43.47255861 -36.25195312 37.27246094 C-30.55046816 31.63190297 -24.89657088 26.03364645 -19.69482422 19.921875 C-16.1765263 15.93224071 -12.34200018 12.23990831 -8.5625 8.5 C-7.73556641 7.67757813 -6.90863281 6.85515625 -6.05664062 6.0078125 C-4.04005041 4.00287887 -2.02114764 2.00033747 0 0 Z " fill="#0068FE" transform="translate(185,283)"/>
<path d="M0 0 C3.26653776 1.06595315 6.49453968 1.58252958 9.88864136 2.12597656 C11.66271362 2.43148438 11.66271362 2.43148438 13.47262573 2.74316406 C15.87094045 3.14753881 18.26938323 3.55115452 20.66793823 3.95410156 C22.41687378 4.25574219 22.41687378 4.25574219 24.20114136 4.56347656 C25.23343872 4.7370166 26.26573608 4.91055664 27.32931519 5.08935547 C30.11796152 5.69802175 32.57024884 6.5718985 35.18161011 7.71191406 C34.65817261 11.56688216 33.82961412 13.56828239 31.11911011 16.34863281 C30.4914978 17.003396 29.8638855 17.65815918 29.21725464 18.33276367 C28.54549194 19.0147583 27.87372925 19.69675293 27.18161011 20.39941406 C25.8032174 21.83094688 24.42561036 23.26323662 23.04879761 24.69628906 C22.38074097 25.38658203 21.71268433 26.076875 21.02438354 26.78808594 C18.724298 29.18934112 16.50825741 31.65787014 14.30661011 34.14941406 C10.77406781 38.11356397 7.06268875 41.85153753 3.28317261 45.57910156 C1.40824716 47.48190694 -0.33995789 49.4269621 -2.06838989 51.46191406 C-5.30177977 55.23923868 -8.78540058 58.71873308 -12.31838989 62.21191406 C-15.76777711 65.62260934 -19.17958955 69.00812966 -22.31838989 72.71191406 C-25.98295519 77.03610112 -30.03359855 80.95273697 -34.06057739 84.93457031 C-36.92413106 87.77832983 -39.70716179 90.6306649 -42.31838989 93.71191406 C-45.98295519 98.03610112 -50.03359855 101.95273697 -54.06057739 105.93457031 C-56.92413106 108.77832983 -59.70716179 111.6306649 -62.31838989 114.71191406 C-65.9822873 119.03531301 -70.03210635 122.95129387 -74.05838013 126.93237305 C-77.52225435 130.37227928 -80.78963924 133.89745256 -83.94729614 137.62207031 C-86.95989681 140.98687481 -90.20411031 144.11736594 -93.41629028 147.2902832 C-96.16180816 150.01515485 -98.81116465 152.76223731 -101.31838989 155.71191406 C-104.78645187 159.79198698 -108.58295133 163.50426218 -112.38967896 167.26367188 C-116.40198943 171.24541237 -120.19329072 175.3720066 -123.81838989 179.71191406 C-128.76354656 177.08479958 -132.69614478 173.44546112 -136.81838989 169.71191406 C-132.96676507 161.390951 -125.36261759 155.21015113 -118.9367981 148.84936523 C-115.3629505 145.29931474 -111.97318099 141.68132337 -108.72073364 137.83300781 C-105.49751657 134.23915387 -102.02106536 130.89535841 -98.58914185 127.50219727 C-95.01337755 123.95130425 -91.62107153 120.3121156 -88.35745239 116.46972656 C-86.74898439 114.63264382 -85.06000121 112.92283619 -83.31838989 111.21191406 C-80.28765907 108.22832794 -77.48219567 105.10667484 -74.70901489 101.88378906 C-72.57697147 99.43458216 -70.38559044 97.04486499 -68.19338989 94.64941406 C-64.75322993 90.8204689 -61.50953945 87.10745834 -58.81838989 82.71191406 C-60.02661136 79.08724967 -60.70347331 78.95733196 -64.00198364 77.30175781 C-64.84696411 76.86927734 -65.69194458 76.43679688 -66.56253052 75.99121094 C-67.45133911 75.54841797 -68.34014771 75.105625 -69.25588989 74.64941406 C-71.00623655 73.76595431 -72.75501295 72.87937464 -74.50198364 71.98925781 C-75.67072021 71.40519165 -75.67072021 71.40519165 -76.86306763 70.80932617 C-78.81838989 69.71191406 -78.81838989 69.71191406 -80.81838989 67.71191406 C-80.52340827 63.8102746 -79.39366113 61.77530538 -76.71292114 58.99707031 C-76.0657312 58.31765381 -75.41854126 57.6382373 -74.7517395 56.93823242 C-74.05185913 56.22417236 -73.35197876 55.5101123 -72.63088989 54.77441406 C-71.91489624 54.02877197 -71.19890259 53.28312988 -70.46121216 52.51489258 C-65.25140583 47.11198145 -59.96642974 41.77894493 -54.6008606 36.53051758 C-49.96164109 31.96780376 -45.73578366 27.09273841 -41.48626709 22.16818237 C-38.30613992 18.49761987 -35.05958095 14.90122047 -31.74343872 11.35302734 C-30.58321775 10.09026612 -29.44429598 8.8076061 -28.3274231 7.50634766 C-19.01436704 -3.29924638 -13.37938474 -4.6895881 0 0 Z " fill="#0068FE" transform="translate(276.8183898925781,386.2880859375)"/>
<path d="M0 0 C2.39068143 0.99652282 3.7871728 2.18327861 5.64819336 3.98266602 C6.32108398 4.62461914 6.99397461 5.26657227 7.68725586 5.92797852 C8.38077148 6.60344727 9.07428711 7.27891602 9.78881836 7.97485352 C11.15730959 9.29131086 12.52710012 10.60641889 13.89819336 11.92016602 C14.57817383 12.57202881 15.2581543 13.2238916 15.95874023 13.89550781 C19.23663617 16.97526802 22.62789498 19.91906935 26.03881836 22.84985352 C26.71396484 23.43065674 27.38911133 24.01145996 28.0847168 24.60986328 C29.73397095 26.02565855 31.38607389 27.43813428 33.03881836 28.84985352 C31.38823575 32.94171698 28.4670614 35.82857887 25.47631836 38.97485352 C24.38466987 40.13974725 23.29352833 41.30511626 22.20288086 42.47094727 C21.664375 43.04441895 21.12586914 43.61789062 20.57104492 44.20874023 C18.46942239 46.45971325 16.40758299 48.74494542 14.35131836 51.03735352 C13.63202148 51.83915039 12.91272461 52.64094727 12.17163086 53.46704102 C11.46780273 54.25336914 10.76397461 55.03969727 10.03881836 55.84985352 C0.25552642 66.77990495 -9.71434038 77.5316402 -19.73364258 88.24511719 C-23.64286249 92.42776592 -27.52581983 96.63355503 -31.39868164 100.84985352 C-34.97973464 104.74700141 -38.62401047 108.55392304 -42.40258789 112.26000977 C-44.08732561 113.97852668 -45.64720973 115.77092636 -47.21118164 117.59985352 C-50.14397843 121.00823897 -53.26192224 124.19383466 -56.46118164 127.34985352 C-59.51436232 130.36215479 -62.50190637 133.38534326 -65.27368164 136.66235352 C-68.63006473 140.60386877 -72.28436351 144.21123113 -75.96118164 147.84985352 C-81.37613298 153.19450329 -81.37613298 153.19450329 -86.46118164 158.84985352 C-90.3124038 163.40844301 -94.60781295 167.52087523 -98.84570312 171.71484375 C-102.40821889 175.25455029 -105.79005306 178.85984506 -109.03149414 182.69750977 C-113.76237021 187.97425615 -118.91751536 192.87444738 -123.96118164 197.84985352 C-130.00981705 191.83218382 -130.00981705 191.83218382 -132.33618164 189.28735352 C-132.85954102 188.72918945 -133.38290039 188.17102539 -133.92211914 187.59594727 C-134.96118164 185.84985352 -134.96118164 185.84985352 -134.76293945 183.99365234 C-133.73247357 181.23831712 -132.28283872 179.84754193 -130.17211914 177.80297852 C-129.39481445 177.03985352 -128.61750977 176.27672852 -127.81665039 175.49047852 C-126.58881836 174.30711914 -126.58881836 174.30711914 -125.33618164 173.09985352 C-123.73736577 171.5450893 -122.14098294 169.98781895 -120.54711914 168.42797852 C-119.83604004 167.74123047 -119.12496094 167.05448242 -118.39233398 166.34692383 C-116.40360352 164.30427117 -114.54016646 162.2306472 -112.68041992 160.07348633 C-108.92838371 155.75061246 -104.93725811 151.71569416 -100.86743164 147.69360352 C-100.11707642 146.94703491 -99.36672119 146.20046631 -98.59362793 145.43127441 C-95.4190166 142.27284239 -92.23842248 139.12046072 -89.05834961 135.9675293 C-86.72177803 133.64915606 -84.38830165 131.32769832 -82.05493164 129.00610352 C-81.34743774 128.30690796 -80.63994385 127.6077124 -79.91101074 126.8873291 C-75.94664385 122.94228793 -72.18851793 118.88800827 -68.53671265 114.65246582 C-66.48939991 112.31007388 -64.32834767 110.10414253 -62.12133789 107.91235352 C-61.28666992 107.0809082 -60.45200195 106.24946289 -59.59204102 105.39282227 C-58.74448242 104.55364258 -57.89692383 103.71446289 -57.02368164 102.84985352 C-56.14905273 101.97973633 -55.27442383 101.10961914 -54.37329102 100.21313477 C-52.23820715 98.08971802 -50.10080959 95.96868974 -47.96118164 93.84985352 C-51.54377655 89.57245232 -55.21296947 85.49995005 -59.21118164 81.59985352 C-65.75460448 75.21505911 -65.75460448 75.21505911 -66.32055664 71.47485352 C-65.84268118 67.9842849 -64.5009703 66.5131538 -62.21118164 63.84985352 C-60.97754883 62.40932617 -60.97754883 62.40932617 -59.71899414 60.93969727 C-55.37747732 56.04257897 -50.93371853 51.24229294 -46.4621582 46.46411133 C-45.02003026 44.91314354 -43.59304558 43.34993236 -42.17211914 41.77954102 C-36.98215845 36.04674805 -31.6605975 30.50021988 -26.15820312 25.06616211 C-23.50197368 22.43114787 -20.94513462 19.76428702 -18.52368164 16.91235352 C-15.23167221 13.08254056 -11.78326625 9.41717254 -8.27368164 5.78735352 C-7.4346228 4.89125366 -7.4346228 4.89125366 -6.57861328 3.97705078 C-2.49388231 -0.19092962 -2.49388231 -0.19092962 0 0 Z " fill="#0068FE" transform="translate(213.961181640625,344.150146484375)"/>
<path d="M0 0 C33.68421053 1.68421053 33.68421053 1.68421053 35 3 C35.15555726 6.13720644 35.24678564 9.25449086 35.29711914 12.39404297 C35.31677231 13.38113754 35.33642548 14.36823212 35.35667419 15.38523865 C35.42087978 18.67081694 35.47806428 21.95647849 35.53515625 25.2421875 C35.57817062 27.52369933 35.62158721 29.80520361 35.66539001 32.08670044 C35.75651281 36.88359737 35.84447803 41.68053783 35.92993164 46.47753906 C36.03908916 52.60502895 36.15327379 58.73241049 36.26950932 64.85976982 C36.38047769 70.71637971 36.4892865 76.57302902 36.59765625 82.4296875 C36.61828691 83.53936764 36.63891758 84.64904778 36.66017342 85.79235458 C36.71869248 88.96555404 36.77573289 92.13877649 36.83227539 95.31201172 C36.84940582 96.23401871 36.86653625 97.1560257 36.88418579 98.10597229 C36.99429222 104.40705156 37 110.69555621 37 117 C59.44 117 81.88 117 105 117 C103.35294118 146.64705882 103.35294118 146.64705882 102 148 C100.36150747 148.15236141 98.71677226 148.23821503 97.07226562 148.29711914 C96.02026978 148.33708511 94.96827393 148.37705109 93.88439941 148.41822815 C92.73661011 148.45681442 91.5888208 148.4954007 90.40625 148.53515625 C89.23042358 148.57813339 88.05459717 148.62111053 86.84313965 148.66539001 C84.34472537 148.75581412 81.84622643 148.84392317 79.34765625 148.92993164 C75.54407719 149.06098135 71.74079175 149.19877594 67.9375 149.33789062 C65.51043098 149.42487951 63.08334801 149.51148018 60.65625 149.59765625 C59.52465454 149.63826675 58.39305908 149.67887726 57.22717285 149.72071838 C51.14694838 149.92851036 45.08375151 150.04124713 39 150 C38.32635339 147.91891315 37.66133202 145.8350329 37 143.75 C36.62875 142.58984375 36.2575 141.4296875 35.875 140.234375 C35 137 35 137 35 133 C29.72 133 24.44 133 19 133 C16.76108858 127.54873741 15.52393706 122.86809507 15 117 C10.05 117 5.1 117 0 117 C0 78.39 0 39.78 0 0 Z " fill="#0068FE" transform="translate(748,187)"/>
<path d="M0 0 C23.76 0 47.52 0 72 0 C72 9.24 72 18.48 72 28 C64.02747707 28.79725229 56.23917749 29.3073702 48.25 29.5625 C46.96335449 29.6049585 45.67670898 29.64741699 44.35107422 29.69116211 C30.23405314 30.12923203 16.12230204 30.07479803 2 30 C2.00785522 30.64120285 2.01571045 31.2824057 2.02380371 31.94303894 C2.26235931 55.09463346 1.45988153 78.18858815 0.60931396 101.32116699 C0.42454166 106.37738727 0.24576515 111.43381969 0.06640625 116.49023438 C-0.28336609 126.32703524 -0.64007208 136.16356549 -1 146 C-11.89 146 -22.78 146 -34 146 C-34 107.39 -34 68.78 -34 29 C-25.09 28.01 -25.09 28.01 -16 27 C-16 23.37 -16 19.74 -16 16 C-11.05 14.68 -6.1 13.36 -1 12 C-0.67 8.04 -0.34 4.08 0 0 Z " fill="#0068FF" transform="translate(316,188)"/>
<path d="M0 0 C-1.52079073 3.50827915 -3.5995673 5.95271646 -6.1875 8.75 C-8.94378116 11.74280967 -11.66553471 14.75538384 -14.33203125 17.828125 C-17.95560821 21.98189824 -21.70793721 26.00026312 -25.5 30 C-26.90645306 31.48808935 -28.31269784 32.97637559 -29.71875 34.46484375 C-30.42773438 35.21491699 -31.13671875 35.96499023 -31.8671875 36.73779297 C-33.94889564 38.94579521 -36.02294131 41.16068236 -38.09375 43.37890625 C-43.75341419 49.4412343 -49.40826102 55.47835505 -55.32421875 61.29296875 C-57.07018012 63.07148884 -58.69226405 64.91906268 -60.3125 66.8125 C-63.22250432 70.20195583 -66.32159559 73.364518 -69.5 76.5 C-73.24031312 80.18993853 -76.78239347 83.97503694 -80.19140625 87.97265625 C-83.17650116 91.31879936 -86.40882768 94.41593952 -89.59765625 97.56640625 C-91.63714373 99.63242365 -93.555078 101.73005549 -95.4375 103.9375 C-98.30172394 107.28925142 -101.36334845 110.40555739 -104.5 113.5 C-107.57404501 116.53284488 -110.57999219 119.57939378 -113.375 122.875 C-116.56129433 126.61543247 -120.00880254 130.04803498 -123.5 133.5 C-126.92845382 136.89005591 -130.32260763 140.25194033 -133.4375 143.9375 C-136.74572658 147.84269979 -140.36513741 151.40280926 -144 155 C-149.41494868 160.34465194 -149.41494868 160.34465194 -154.5 166 C-157.78396954 169.88714761 -161.38613844 173.42354417 -165 177 C-170.38538279 182.3120156 -170.38538279 182.3120156 -175.4375 187.9375 C-179.46046703 192.70126914 -183.95961905 197.00902889 -188.40795898 201.37084961 C-191.49368895 204.41475553 -194.47281279 207.49137418 -197.30078125 210.77734375 C-201.88079565 216.08180737 -206.77136678 221.07099749 -211.6875 226.0625 C-212.15712158 226.55097412 -212.62674316 227.03944824 -213.1105957 227.54272461 C-214.48212196 228.9686859 -215.87166836 230.37724654 -217.26171875 231.78515625 C-218.48314575 233.03631226 -218.48314575 233.03631226 -219.72924805 234.31274414 C-222 236 -222 236 -224.17602539 235.86791992 C-226.59632911 234.71624281 -227.98232513 233.25940818 -229.75 231.25 C-230.36359375 230.57453125 -230.9771875 229.8990625 -231.609375 229.203125 C-233.35232239 226.44182633 -233.4488771 225.22632253 -233 222 C-231.09155273 219.53979492 -231.09155273 219.53979492 -228.43359375 216.98046875 C-227.96188248 216.51820389 -227.4901712 216.05593903 -227.00416565 215.57966614 C-225.49332169 214.10334012 -223.96644489 212.64505072 -222.4375 211.1875 C-220.45235516 209.26911509 -218.47379794 207.34402003 -216.49609375 205.41796875 C-216.01179901 204.94853851 -215.52750427 204.47910828 -215.02853394 203.99545288 C-211.74919285 200.79670702 -208.7176405 197.46685667 -205.75024414 193.98168945 C-201.43899117 189.10033357 -196.66671069 184.63248145 -192.02734375 180.06640625 C-188.40701013 176.48093941 -184.84892946 172.90058108 -181.53125 169.03125 C-176.49390761 163.1631264 -170.88827496 157.84516638 -165.3828125 152.421875 C-161.0584913 148.1369853 -156.90738798 143.81334765 -152.96826172 139.17358398 C-150.96894436 136.96570474 -148.85277305 134.9147525 -146.70065308 132.85704041 C-140.45788097 126.847028 -135.58771286 120.58022555 -131.0039978 113.24295044 C-129.83271404 111.3698779 -128.64132845 109.51094726 -127.44458008 107.65405273 C-125.36121623 104.41751453 -123.29113254 101.17275204 -121.22503662 97.9251709 C-101.2919864 66.59996188 -101.2919864 66.59996188 -88 55 C-87.24460938 54.31808594 -86.48921875 53.63617188 -85.7109375 52.93359375 C-84.45015733 51.81094686 -83.17626111 50.70276882 -81.88671875 49.61328125 C-79.71976532 47.76037904 -77.65064426 45.81623964 -75.5625 43.875 C-58.231923 28.27216457 -24.54685793 -1.16161968 0 0 Z " fill="#0069FE" transform="translate(233,28)"/>
<path d="M0 0 C1.25941406 0.27972656 2.51882813 0.55945312 3.81640625 0.84765625 C5.5776389 1.18484073 7.33940631 1.51923827 9.1015625 1.8515625 C21.07557371 4.2033311 32.45419345 7.40953018 43.81640625 11.84765625 C43.26995521 15.76095078 41.51705012 17.4348461 38.69140625 20.09765625 C35.12233563 23.48148099 31.87848499 27.02833646 28.66357422 30.7421875 C25.67462268 34.1491024 22.55576357 37.4307277 19.44140625 40.72265625 C14.57895199 45.88496086 9.76678458 51.08112771 5.04296875 56.37109375 C0.87913583 61.00244475 -3.36488403 65.5602882 -7.59570312 70.13037109 C-9.2367031 71.9050934 -10.87461463 73.68262118 -12.51171875 75.4609375 C-13.0533667 76.0489917 -13.59501465 76.6370459 -14.15307617 77.24291992 C-15.19013438 78.36898236 -16.22677719 79.49542754 -17.26293945 80.62231445 C-18.56508323 82.03514603 -19.8739944 83.44173269 -21.18359375 84.84765625 C-21.56620361 85.37746094 -21.94881348 85.90726562 -22.34301758 86.453125 C-25.26706525 88.66855945 -28.58374923 88.57747233 -32.12890625 88.83984375 C-33.76832869 88.98604349 -35.40773225 89.13245499 -37.04711914 89.27905273 C-38.33611618 89.38695633 -38.33611618 89.38695633 -39.65115356 89.49703979 C-60.92183443 91.30291887 -82.32431707 93.49894423 -102.18359375 101.84765625 C-98.91381633 94.67319317 -92.69041573 89.30063067 -87.1484375 83.84375 C-85.26128631 81.92658448 -83.49674 79.95190303 -81.74609375 77.91015625 C-78.47228722 74.09941562 -74.94995404 70.5968746 -71.375 67.0703125 C-68.76258307 64.42064185 -66.35056754 61.63592822 -63.9296875 58.8125 C-61.45877986 56.03203793 -58.80192435 53.45647407 -56.15234375 50.84765625 C-54.2437292 48.90874623 -52.45648823 46.91066074 -50.68359375 44.84765625 C-47.66597022 41.33623977 -44.45000294 38.09458223 -41.15234375 34.84765625 C-39.2437292 32.90874623 -37.45648823 30.91066074 -35.68359375 28.84765625 C-33.28682787 26.05869232 -30.80399984 23.4277484 -28.18359375 20.84765625 C-25.58377192 18.28775491 -23.12090977 15.67986085 -20.74609375 12.91015625 C-20.17375 12.26304688 -19.60140625 11.6159375 -19.01171875 10.94921875 C-17.69344744 9.43377011 -16.41681152 7.8817484 -15.16796875 6.30859375 C-10.34820319 0.70865031 -7.37408296 -1.27139361 0 0 Z " fill="#FF2E2E" transform="translate(361.18359375,15.15234375)"/>
<path d="M0 0 C3.3392446 1.14309428 5.76567352 2.36049718 8.64453125 4.390625 C10.16626953 5.45603516 10.16626953 5.45603516 11.71875 6.54296875 C12.28126465 6.94757324 12.8437793 7.35217773 13.42333984 7.76904297 C15.61837923 9.34639411 17.82887073 10.90098888 20.0390625 12.45703125 C21.67929291 13.62111821 23.3186178 14.78648212 24.95703125 15.953125 C25.75149658 16.51612305 26.54596191 17.07912109 27.36450195 17.65917969 C28.48151489 18.46403809 28.48151489 18.46403809 29.62109375 19.28515625 C30.28834473 19.76315674 30.9555957 20.24115723 31.64306641 20.73364258 C33.33203125 22.140625 33.33203125 22.140625 35.33203125 25.140625 C34.70542603 25.80481445 34.70542603 25.80481445 34.06616211 26.48242188 C32.13247974 28.53377417 30.20099976 30.58718817 28.26953125 32.640625 C27.61275391 33.33671875 26.95597656 34.0328125 26.27929688 34.75 C22.44312268 38.83184052 18.70378054 42.97748799 15.03149414 47.20703125 C12.28403121 50.33300545 9.43421656 53.36043153 6.58203125 56.390625 C1.5273155 61.77024226 1.5273155 61.77024226 -3.45703125 67.21484375 C-5.64875507 69.6416316 -7.85634617 72.05127578 -10.08691406 74.44238281 C-11.25789074 75.70015208 -12.42301886 76.96337191 -13.58496094 78.22949219 C-15.67442554 80.49201363 -17.79274693 82.72420407 -19.91796875 84.953125 C-20.57974121 85.67814209 -21.24151367 86.40315918 -21.92333984 87.15014648 C-22.56609863 87.81344971 -23.20885742 88.47675293 -23.87109375 89.16015625 C-24.43473633 89.75932861 -24.99837891 90.35850098 -25.57910156 90.97583008 C-28.86812724 92.80985784 -31.07422102 92.00951271 -34.66796875 91.140625 C-37.30669804 90.13665616 -39.80573828 88.92109017 -42.32421875 87.6484375 C-43.03018188 87.30183075 -43.73614502 86.955224 -44.46350098 86.59811401 C-46.70297434 85.49641963 -48.93557339 84.38158124 -51.16796875 83.265625 C-53.40166911 82.15964617 -55.63671539 81.05644693 -57.87243652 79.95455933 C-59.25746055 79.27080003 -60.64110312 78.58423233 -62.02307129 77.89431763 C-66.18310437 75.82672047 -70.38262308 73.93495768 -74.66796875 72.140625 C-73.03840459 68.01820233 -70.05818363 65.25638581 -66.96826172 62.19799805 C-66.3858522 61.61369019 -65.80344269 61.02938232 -65.2033844 60.42736816 C-63.27715968 58.49744023 -61.34382792 56.57480801 -59.41015625 54.65234375 C-58.06417974 53.30756019 -56.71857361 51.96240583 -55.37332153 50.61689758 C-52.55014091 47.79528143 -49.72363298 44.97705603 -46.89453125 42.16137695 C-43.28510732 38.56886919 -39.6822265 34.96988848 -36.08163261 31.36853313 C-33.30051929 28.58769321 -30.51679549 25.80947882 -27.73221207 23.03211403 C-26.40408617 21.70715092 -25.076548 20.3815984 -23.74962997 19.05542564 C-4.85825855 0.18625911 -4.85825855 0.18625911 0 0 Z " fill="#0068FE" transform="translate(425.66796875,35.859375)"/>
<path d="M0 0 C3.2681566 1.02023089 4.7084491 2.41880563 7.0871582 4.8659668 C7.8831543 5.67485352 8.67915039 6.48374023 9.49926758 7.31713867 C10.72419922 8.59234375 10.72419922 8.59234375 11.97387695 9.89331055 C12.80983398 10.74731445 13.64579102 11.60131836 14.50708008 12.48120117 C16.5678004 14.58902367 18.61860904 16.70560904 20.66137695 18.83081055 C19.73637394 20.09371161 18.80714734 21.35351962 17.8762207 22.61206055 C17.35922607 23.31395508 16.84223145 24.01584961 16.30957031 24.73901367 C14.20858658 27.40546733 11.86018275 29.71387058 9.42700195 32.07299805 C7.06394187 34.42560211 4.91937215 36.93891544 2.7434082 39.46362305 C0.10091968 42.46802838 -2.61682039 45.39834983 -5.33862305 48.33081055 C-8.55036458 51.79353845 -11.74965737 55.25730124 -14.83862305 58.83081055 C-18.39130603 62.93805868 -22.08360394 66.91158585 -25.77807617 70.89086914 C-29.71805402 75.13935469 -33.5803232 79.45108232 -37.40112305 83.80737305 C-39.25663916 85.74519027 -41.14557289 87.29371736 -43.33862305 88.83081055 C-44.33829102 87.90461914 -44.33829102 87.90461914 -45.3581543 86.9597168 C-51.83905712 81.00453756 -58.46575151 75.33442528 -65.33862305 69.83081055 C-64.46387051 65.37910554 -61.96716409 62.7111968 -59.02612305 59.39331055 C-58.48995361 58.77858887 -57.95378418 58.16386719 -57.40136719 57.53051758 C-52.3015554 51.71513868 -47.05595195 46.03692174 -41.77807617 40.38354492 C-39.5032059 37.92964822 -37.26967745 35.4383234 -35.02612305 32.95581055 C-28.36850022 25.67797249 -21.34947676 18.76596218 -14.33862305 11.83081055 C-12.00266829 9.51828227 -9.69000583 7.2223939 -7.49487305 4.77612305 C-6.94831055 4.17541992 -6.40174805 3.5747168 -5.83862305 2.95581055 C-5.0187793 2.03155273 -5.0187793 2.03155273 -4.18237305 1.08862305 C-2.33862305 -0.16918945 -2.33862305 -0.16918945 0 0 Z " fill="#0068FE" transform="translate(473.338623046875,72.169189453125)"/>
<path d="M0 0 C1.8253125 -0.00386719 1.8253125 -0.00386719 3.6875 -0.0078125 C9.13551248 0.15997049 14.56823219 0.67235268 20 1.125 C20 11.025 20 20.925 20 31.125 C15.50375 31.455 11.0075 31.785 6.375 32.125 C4.26424072 32.28162109 4.26424072 32.28162109 2.11083984 32.44140625 C0.98887207 32.52261719 -0.1330957 32.60382813 -1.2890625 32.6875 C-2.43068848 32.77128906 -3.57231445 32.85507813 -4.74853516 32.94140625 C-7.84091568 33.11601731 -10.90353537 33.15781022 -14 33.125 C-14.08742801 28.91679855 -14.14053641 24.70883224 -14.1875 20.5 C-14.21263672 19.31019531 -14.23777344 18.12039062 -14.26367188 16.89453125 C-14.35975587 5.42850752 -14.35975587 5.42850752 -11 1.125 C-7.68304149 -0.5186714 -3.64038053 -0.00758413 0 0 Z " fill="#0069FF" transform="translate(762,127.875)"/>
<path d="M0 0 C0.33 0.99 0.66 1.98 1 3 C-5.27 9.27 -11.54 15.54 -18 22 C-18 19 -18 19 -16.6706543 17.34594727 C-16.06133057 16.75869873 -15.45200684 16.1714502 -14.82421875 15.56640625 C-14.16099609 14.91736328 -13.49777344 14.26832031 -12.81445312 13.59960938 C-12.11255859 12.92736328 -11.41066406 12.25511719 -10.6875 11.5625 C-9.31417334 10.23277101 -7.94300551 8.90080803 -6.57421875 7.56640625 C-5.96151123 6.97802979 -5.34880371 6.38965332 -4.7175293 5.78344727 C-2.96205993 3.96060381 -1.47521764 2.05356841 0 0 Z " fill="#FF3838" transform="translate(137,152)"/>
<path d="M0 0 C0.33 0.99 0.66 1.98 1 3 C-4.94 8.94 -10.88 14.88 -17 21 C-17.66 20.67 -18.32 20.34 -19 20 C-18.53102295 19.53625977 -18.0620459 19.07251953 -17.57885742 18.59472656 C-15.44575618 16.48247339 -13.31660041 14.36628554 -11.1875 12.25 C-10.44951172 11.52039063 -9.71152344 10.79078125 -8.95117188 10.0390625 C-8.23896484 9.33007812 -7.52675781 8.62109375 -6.79296875 7.890625 C-5.81106567 6.91657715 -5.81106567 6.91657715 -4.80932617 5.92285156 C-3.03957201 4.04205494 -1.50625069 2.09529866 0 0 Z " fill="#FF3737" transform="translate(155,223)"/>
<path d="M0 0 C0.33 0.99 0.66 1.98 1 3 C-4.94 8.94 -10.88 14.88 -17 21 C-17 18 -17 18 -15.76245117 16.43774414 C-15.19502197 15.89239014 -14.62759277 15.34703613 -14.04296875 14.78515625 C-13.42486328 14.18123047 -12.80675781 13.57730469 -12.16992188 12.95507812 C-11.51572266 12.33052734 -10.86152344 11.70597656 -10.1875 11.0625 C-8.90790655 9.82654364 -7.63049209 8.58832663 -6.35546875 7.34765625 C-5.78465576 6.80117432 -5.21384277 6.25469238 -4.62573242 5.69165039 C-2.90498032 3.90112759 -1.45052732 2.01317274 0 0 Z " fill="#FF3737" transform="translate(114,266)"/>
<path d="M0 0 C0.33 0.99 0.66 1.98 1 3 C-4.94 8.94 -10.88 14.88 -17 21 C-17 18 -17 18 -15.76245117 16.43774414 C-15.19502197 15.89239014 -14.62759277 15.34703613 -14.04296875 14.78515625 C-13.42486328 14.18123047 -12.80675781 13.57730469 -12.16992188 12.95507812 C-11.51572266 12.33052734 -10.86152344 11.70597656 -10.1875 11.0625 C-8.90790655 9.82654364 -7.63049209 8.58832663 -6.35546875 7.34765625 C-5.78465576 6.80117432 -5.21384277 6.25469238 -4.62573242 5.69165039 C-2.90498032 3.90112759 -1.45052732 2.01317274 0 0 Z " fill="#FF3838" transform="translate(157,131)"/>
<path d="M0 0 C0.33 0.99 0.66 1.98 1 3 C-4.94 8.94 -10.88 14.88 -17 21 C-17 18 -17 18 -15.76245117 16.43774414 C-15.19502197 15.89239014 -14.62759277 15.34703613 -14.04296875 14.78515625 C-13.42486328 14.18123047 -12.80675781 13.57730469 -12.16992188 12.95507812 C-11.51572266 12.33052734 -10.86152344 11.70597656 -10.1875 11.0625 C-8.90790655 9.82654364 -7.63049209 8.58832663 -6.35546875 7.34765625 C-5.78465576 6.80117432 -5.21384277 6.25469238 -4.62573242 5.69165039 C-2.90498032 3.90112759 -1.45052732 2.01317274 0 0 Z " fill="#FF3838" transform="translate(260,23)"/>
<path d="M0 0 C0.33 0.99 0.66 1.98 1 3 C-4.61 8.61 -10.22 14.22 -16 20 C-16.66 19.67 -17.32 19.34 -18 19 C-17.56131592 18.56655273 -17.12263184 18.13310547 -16.6706543 17.68652344 C-14.67361492 15.71034431 -12.68053166 13.73022062 -10.6875 11.75 C-9.99720703 11.06808594 -9.30691406 10.38617188 -8.59570312 9.68359375 C-7.92861328 9.01972656 -7.26152344 8.35585937 -6.57421875 7.671875 C-5.96151123 7.0644043 -5.34880371 6.45693359 -4.7175293 5.83105469 C-2.9830015 3.98187793 -1.48179891 2.05507854 0 0 Z " fill="#FF3636" transform="translate(178,109)"/>
<path d="M0 0 C0.33 0.99 0.66 1.98 1 3 C-4.28 8.28 -9.56 13.56 -15 19 C-15.66 18.67 -16.32 18.34 -17 18 C-16.59160889 17.5968457 -16.18321777 17.19369141 -15.76245117 16.77832031 C-13.90147279 14.93821617 -12.04446276 13.09415612 -10.1875 11.25 C-9.54490234 10.61578125 -8.90230469 9.9815625 -8.24023438 9.328125 C-7.61826172 8.709375 -6.99628906 8.090625 -6.35546875 7.453125 C-5.78465576 6.88754883 -5.21384277 6.32197266 -4.62573242 5.73925781 C-2.92652264 3.92139169 -1.45724172 2.01504683 0 0 Z " fill="#FF3838" transform="translate(116,174)"/>
<path d="M0 0 C0.33 0.99 0.66 1.98 1 3 C-4.28 8.28 -9.56 13.56 -15 19 C-15.66 18.67 -16.32 18.34 -17 18 C-16.59160889 17.5968457 -16.18321777 17.19369141 -15.76245117 16.77832031 C-13.90147279 14.93821617 -12.04446276 13.09415612 -10.1875 11.25 C-9.54490234 10.61578125 -8.90230469 9.9815625 -8.24023438 9.328125 C-7.61826172 8.709375 -6.99628906 8.090625 -6.35546875 7.453125 C-5.78465576 6.88754883 -5.21384277 6.32197266 -4.62573242 5.73925781 C-2.92652264 3.92139169 -1.45724172 2.01504683 0 0 Z " fill="#FF3838" transform="translate(219,66)"/>
<path d="M0 0 C0.33 0.99 0.66 1.98 1 3 C-3.29 7.29 -7.58 11.58 -12 16 C-12.66 15.67 -13.32 15.34 -14 15 C-13.24074219 14.25234375 -12.48148438 13.5046875 -11.69921875 12.734375 C-10.69517864 11.73971844 -9.69127983 10.74491923 -8.6875 9.75 C-8.18798828 9.25886719 -7.68847656 8.76773438 -7.17382812 8.26171875 C-4.54328661 5.64859804 -2.12314838 3.04342089 0 0 Z " fill="#FF3838" transform="translate(240,44)"/>
<path d="M0 0 C0.33 0.99 0.66 1.98 1 3 C-0.04800781 4.01320313 -0.04800781 4.01320313 -1.1171875 5.046875 C-2.02726562 5.93890625 -2.93734375 6.8309375 -3.875 7.75 C-5.23238281 9.07257813 -5.23238281 9.07257813 -6.6171875 10.421875 C-8.64542996 12.61636684 -9.88880413 14.2667136 -11 17 C-11.33640516 13.82896774 -11.36046004 12.4597792 -9.35546875 9.90234375 C-8.64003906 9.25394531 -7.92460938 8.60554688 -7.1875 7.9375 C-4.46940782 5.43725127 -2.13337447 3.02171968 0 0 Z " fill="#FF3939" transform="translate(94,287)"/>
<path d="M0 0 C0.33 0.99 0.66 1.98 1 3 C2.98 2.67 4.96 2.34 7 2 C4.77174356 4.22825644 3.34238372 4.69239369 0.375 5.625 C-0.44226563 5.88539062 -1.25953125 6.14578125 -2.1015625 6.4140625 C-2.72804688 6.60742188 -3.35453125 6.80078125 -4 7 C-2.79618552 4.50638429 -1.54571278 2.31856917 0 0 Z " fill="#FF3D3D" transform="translate(263,110)"/>
<path d="M0 0 C-0.33 2.31 -0.66 4.62 -1 7 C-1.66 6.01 -2.32 5.02 -3 4 C-3.99 4.99 -4.98 5.98 -6 7 C-6.66 6.67 -7.32 6.34 -8 6 C-7.0479279 4.99403703 -6.08812654 3.99538437 -5.125 3 C-4.59132812 2.443125 -4.05765625 1.88625 -3.5078125 1.3125 C-2 0 -2 0 0 0 Z " fill="#FF3C3C" transform="translate(195,184)"/>
</svg>
