<?xml version="1.0" encoding="UTF-8"?>
<svg version="1.1" xmlns="http://www.w3.org/2000/svg" width="1024" height="1024">
<path d="M0 0 C337.92 0 675.84 0 1024 0 C1024 337.92 1024 675.84 1024 1024 C686.08 1024 348.16 1024 0 1024 C0 686.08 0 348.16 0 0 Z " fill="#000000" transform="translate(0,0)"/>
<path d="M0 0 C-1.4519143 5.36401672 -5.00649293 8.17329573 -9 11.75 C-9.680625 12.37269775 -10.36125 12.99539551 -11.0625 13.63696289 C-14.67853562 16.93753707 -18.33707295 20.18912719 -22 23.4375 C-27.03118271 27.92181503 -31.75604773 32.69880515 -36.47265625 37.50952148 C-39.49941563 40.57899723 -42.56280518 43.52922243 -45.8359375 46.3359375 C-50.81647287 50.63166433 -55.38683386 55.31693741 -60 60 C-61.70581018 61.73165579 -63.41410866 63.46086426 -65.125 65.1875 C-65.87007812 65.94417969 -66.61515625 66.70085937 -67.3828125 67.48046875 C-69.35534518 69.37939947 -71.33439872 71.14774043 -73.41634369 72.91733551 C-79.18997057 77.95851865 -84.54811716 83.41656119 -89.95568848 88.84216309 C-91.15699291 90.04374789 -92.35851959 91.24511054 -93.5602479 92.44627142 C-96.84683204 95.73256121 -100.13030164 99.02194728 -103.41326261 102.31185603 C-106.96021284 105.86519886 -110.51008373 109.41562176 -114.05961609 112.96638489 C-120.20575919 119.11541076 -126.3501242 125.26620869 -132.49333191 131.41816711 C-141.3835183 140.32092371 -150.27695652 149.22042624 -159.17128044 158.11904901 C-173.61350217 172.56833382 -188.05385473 187.01948498 -202.49267578 201.47216797 C-203.35632218 202.33664218 -204.21996859 203.2011164 -205.10978609 204.0917868 C-211.23990717 210.22780814 -217.36996136 216.3638963 -223.5 222.5 C-230.50239527 229.50932344 -237.50482079 236.51861665 -244.50732422 243.52783203 C-245.36991492 244.39125086 -246.23250562 245.25466968 -247.12123543 246.14425272 C-261.5070672 260.54377332 -275.89486471 274.94132822 -290.28406477 289.33748293 C-299.15541981 298.21331672 -308.02499254 307.09092448 -316.89226949 315.97083247 C-322.96770327 322.05469636 -329.04490745 328.13678793 -335.1235038 334.21749198 C-338.62955191 337.72488403 -342.13476578 341.23309952 -345.63777733 344.74352455 C-348.84682396 347.9593368 -352.05818761 351.17281644 -355.27137727 354.38448888 C-356.43096901 355.54435125 -357.5897155 356.70505945 -358.74751073 357.86671513 C-364.13744696 363.27378215 -369.53897404 368.60386518 -375.34471869 373.57057345 C-377.57689277 375.49817867 -379.66505499 377.54819622 -381.7449646 379.63816833 C-382.594487 380.48920639 -383.4440094 381.34024445 -384.3192749 382.21707153 C-385.22244446 383.12697845 -386.12561401 384.03688538 -387.05615234 384.97436523 C-388.03906273 385.96083984 -389.02221381 386.94707467 -390.00558472 387.93309021 C-392.10656053 390.04056898 -394.20601355 392.14954852 -396.30430222 394.25970268 C-399.62076021 397.59456825 -402.94166316 400.9249838 -406.26333618 404.25465393 C-415.70229304 413.71768257 -425.13519982 423.18672896 -434.56396484 432.65991211 C-439.78360902 437.90406718 -445.00681222 443.14465106 -450.23389018 448.38139683 C-453.53914083 451.69319856 -456.83983038 455.00946036 -460.13724208 458.32906616 C-462.18166346 460.38517747 -464.23021486 462.43713386 -466.27998734 464.48790932 C-467.68800652 465.89911526 -469.09101336 467.31531659 -470.49389648 468.73162842 C-471.32649994 469.5629277 -472.15910339 470.39422699 -473.01693726 471.25071716 C-474.10473763 472.34323115 -474.10473763 472.34323115 -475.21451378 473.45781612 C-477 475 -477 475 -479 475 C-481.38299982 461.41186061 -481.43768851 447.82306571 -481.625 434.0625 C-481.66326532 431.72199204 -481.70232171 429.38149687 -481.7421875 427.04101562 C-481.83724089 421.36079228 -481.92254646 415.68048919 -482 410 C-482.59330785 410.59607323 -482.59330785 410.59607323 -483.19860172 411.20418835 C-492.84231878 420.89215653 -502.49169395 430.57445768 -512.1471262 440.25075054 C-516.81633172 444.93038398 -521.48366225 449.6118558 -526.14672852 454.29760742 C-530.6486393 458.82128165 -535.15544735 463.34002344 -539.66566277 467.85541725 C-541.38375342 469.57719734 -543.10008559 471.30073404 -544.81460762 473.02606773 C-547.22013264 475.44615388 -549.63188859 477.85986455 -552.04516602 480.2722168 C-552.74935669 480.98359802 -553.45354736 481.69497925 -554.17907715 482.42791748 C-564.65046936 492.85607776 -564.65046936 492.85607776 -569.55078125 493.15625 C-572.98903863 491.53308543 -575.50550382 489.1322682 -578.1875 486.5 C-581.78507047 482.83450879 -581.78507047 482.83450879 -586 480 C-584.67549746 476.11145969 -583.1008563 473.72592907 -580.2043457 470.8301239 C-579.41355621 470.0323201 -578.62276672 469.2345163 -577.80801392 468.41253662 C-576.50505875 467.12104706 -576.50505875 467.12104706 -575.17578125 465.8034668 C-573.8049086 464.42711815 -573.8049086 464.42711815 -572.40634155 463.02296448 C-569.90502275 460.51225625 -567.39441332 458.01103457 -564.88174057 455.51169562 C-562.25401929 452.89530027 -559.63402551 450.27118688 -557.01293945 447.64814758 C-552.61310337 443.24742928 -548.20733079 438.85272461 -543.79785156 434.46166992 C-538.69501312 429.38003085 -533.60109537 424.28958383 -528.51196384 419.19422024 C-523.61833569 414.29490588 -518.71907069 409.40126819 -513.81698608 404.51041603 C-511.72914521 402.42722766 -509.64321045 400.34215747 -507.55874634 398.25559044 C-504.65306957 395.34768747 -501.73914803 392.44818853 -498.82421875 389.54956055 C-497.95558197 388.67844635 -497.08694519 387.80733215 -496.19198608 386.90982056 C-495.40119659 386.12611588 -494.6104071 385.34241119 -493.7956543 384.53495789 C-493.1069072 383.84826365 -492.4181601 383.16156942 -491.70854187 382.45406628 C-490 381 -490 381 -488 381 C-488 380.34 -488 379.68 -488 379 C-486.54882812 377.57226562 -486.54882812 377.57226562 -484.53125 375.90625 C-479.93791178 372.00029514 -475.72259253 367.79950678 -471.5 363.5 C-470.07549444 362.04954716 -468.64842536 360.60160735 -467.21875 359.15625 C-466.59935547 358.52525391 -465.97996094 357.89425781 -465.34179688 357.24414062 C-463.34601136 355.3315822 -461.31043357 353.523811 -459.21875 351.71875 C-455.05552884 348.09905044 -451.15618221 344.26774102 -447.28125 340.34375 C-446.57907349 339.63778687 -445.87689697 338.93182373 -445.15344238 338.20446777 C-442.93315397 335.97208642 -440.71616045 333.73647889 -438.5 331.5 C-435.57590521 328.54909622 -432.64836943 325.60166797 -429.71875 322.65625 C-429.063302 321.99250366 -428.407854 321.32875732 -427.73254395 320.64489746 C-424.56598289 317.46184495 -421.35539424 314.40280181 -417.94750977 311.47827148 C-414.05525351 308.1180303 -410.58409449 304.48624089 -407.12109375 300.69140625 C-399.39148641 292.33975029 -391.41142521 284.25858906 -383.35424805 276.22387695 C-381.03641162 273.91147277 -378.72406696 271.59367102 -376.41210938 269.27539062 C-374.91177936 267.77572043 -373.4111397 266.27635994 -371.91015625 264.77734375 C-371.23292007 264.09808334 -370.5556839 263.41882294 -369.85792542 262.71897888 C-366.71750847 259.59375144 -363.54337256 256.56800414 -360.17944336 253.68383789 C-355.45876139 249.60484098 -351.08514477 245.19840791 -346.69447327 240.76963806 C-345.18187668 239.24406023 -343.66598798 237.72181914 -342.14929199 236.20031738 C-338.93000888 232.96971047 -335.71469888 229.73516777 -332.5 226.5 C-328.7692435 222.74548873 -325.03679249 218.99269387 -321.30006409 215.24412537 C-319.82029444 213.75796311 -318.34361435 212.26878004 -316.86706543 210.77941895 C-312.3129569 206.20886162 -307.71405302 201.78541681 -302.81558228 197.58627319 C-299.86453931 195.00794864 -297.10468093 192.24768371 -294.33984375 189.47265625 C-293.74627579 188.88004501 -293.15270782 188.28743378 -292.54115295 187.67686462 C-291.29891292 186.43529878 -290.05790932 185.19249464 -288.81811523 183.94848633 C-286.94170525 182.06671726 -285.06001031 180.19035262 -283.17773438 178.31445312 C-276.09711366 171.29100107 -276.09711366 171.29100107 -269.44140625 163.87109375 C-266.60234556 160.51937408 -263.43770145 157.59627157 -260.18725586 154.65429688 C-252.76574526 147.86611904 -245.65822307 140.78573495 -238.5625 133.66015625 C-237.22564482 132.32142882 -235.88856337 130.9829273 -234.55126953 129.64463806 C-231.07245013 126.16204706 -227.59664401 122.67646449 -224.121521 119.19018555 C-220.57895002 115.63732084 -217.03349375 112.08733791 -213.48828125 108.53710938 C-207.77320683 102.81330414 -202.05983387 97.08780754 -196.34883118 91.35993958 C-194.05809753 89.0626028 -191.7662527 86.76643607 -189.47131348 84.47329712 C-186.8063125 81.80615703 -184.15119401 79.12935653 -181.49804688 76.45043945 C-176.12482318 71.02799421 -170.74381138 65.61334624 -165.35842133 60.20298481 C-162.11218169 56.94114419 -158.86878738 53.67657777 -155.63183594 50.40551758 C-152.48161453 47.22233484 -149.32379271 44.04686681 -146.16090393 40.8762722 C-144.96878043 39.67867929 -143.77926255 38.4784858 -142.59263611 37.27544594 C-113.70276354 8.00206323 -83.72852525 3.42099484 -44 1 C-43.05060547 0.94070312 -42.10121094 0.88140625 -41.12304688 0.8203125 C-27.41215678 -0.01245306 -13.73327493 -0.12256802 0 0 Z " fill="#E1241D" transform="translate(626,44)"/>
<path d="M0 0 C1.60645386 0.00181274 1.60645386 0.00181274 3.24536133 0.00366211 C4.40189209 0.0166333 5.55842285 0.02960449 6.75 0.04296875 C8.53410278 0.05372437 8.53410278 0.05372437 10.35424805 0.06469727 C19.09396756 0.14213128 27.82794704 0.36278702 36.5625 0.66796875 C38.25922852 0.72658081 38.25922852 0.72658081 39.99023438 0.78637695 C41.05177734 0.82851318 42.11332031 0.87064941 43.20703125 0.9140625 C44.13491455 0.95072021 45.06279785 0.98737793 46.01879883 1.02514648 C48.9726449 1.24720642 51.83645052 1.70319376 54.75 2.23046875 C54.63272007 9.90270742 54.50788403 17.57479591 54.37768555 25.24682617 C54.33425876 27.85910219 54.29258962 30.47140803 54.25268555 33.08374023 C54.19516993 36.82935594 54.13142236 40.57482044 54.06640625 44.3203125 C54.04969376 45.4963353 54.03298126 46.67235809 54.01576233 47.88401794 C53.99581711 48.96506302 53.97587189 50.04610809 53.95532227 51.15991211 C53.93200584 52.59553749 53.93200584 52.59553749 53.90821838 54.06016541 C53.75 56.23046875 53.75 56.23046875 52.75 57.23046875 C51.04227642 57.31760706 49.33101351 57.33746882 47.62109375 57.328125 C46.06938477 57.32329102 46.06938477 57.32329102 44.48632812 57.31835938 C43.39771484 57.30998047 42.30910156 57.30160156 41.1875 57.29296875 C39.5487793 57.28620117 39.5487793 57.28620117 37.87695312 57.27929688 C35.16791505 57.26746701 32.45898401 57.25098418 29.75 57.23046875 C29.75222061 57.95487656 29.75444122 58.67928436 29.75672913 59.42564392 C29.77673227 66.23890328 29.79197425 73.05215828 29.80181217 79.86543941 C29.80703989 83.3685576 29.8141355 86.8716516 29.82543945 90.37475586 C29.83834206 94.39827716 29.84322912 98.42177289 29.84765625 102.4453125 C29.85281754 103.70883041 29.85797882 104.97234833 29.86329651 106.27415466 C29.86340981 108.01584679 29.86340981 108.01584679 29.86352539 109.79272461 C29.865746 110.82086777 29.86796661 111.84901093 29.87025452 112.90830994 C29.75 115.23046875 29.75 115.23046875 28.75 116.23046875 C26.82109148 116.33043174 24.88852722 116.36127837 22.95703125 116.36328125 C21.76916016 116.36457031 20.58128906 116.36585938 19.35742188 116.3671875 C17.47893555 116.36138672 17.47893555 116.36138672 15.5625 116.35546875 C14.32951172 116.35933594 13.09652344 116.36320312 11.82617188 116.3671875 C10.63185547 116.36589844 9.43753906 116.36460937 8.20703125 116.36328125 C7.11366455 116.36215332 6.02029785 116.36102539 4.89379883 116.35986328 C1.75 116.23046875 1.75 116.23046875 -4.25 115.23046875 C-4.58 131.73046875 -4.91 148.23046875 -5.25 165.23046875 C0.01087552 165.88807819 4.75313019 166.36451728 9.98828125 166.44140625 C11.30248047 166.46976563 12.61667969 166.498125 13.97070312 166.52734375 C16.02905579 166.56882189 18.08714246 166.60578064 20.14575195 166.63183594 C22.15598489 166.65937663 24.165922 166.70635906 26.17578125 166.75390625 C27.36598877 166.77372559 28.55619629 166.79354492 29.7824707 166.81396484 C32.75 167.23046875 32.75 167.23046875 34.62890625 168.51367188 C36.71787303 171.71262971 36.34422853 175.6426625 36.4375 179.35546875 C36.47093506 180.2902002 36.50437012 181.22493164 36.53881836 182.18798828 C36.97952851 196.52652176 36.8349253 210.88723872 36.75 225.23046875 C38.02617188 225.20726562 39.30234375 225.1840625 40.6171875 225.16015625 C42.2864525 225.14140046 43.9557238 225.12320006 45.625 225.10546875 C46.46675781 225.08871094 47.30851562 225.07195312 48.17578125 225.0546875 C48.98144531 225.04824219 49.78710938 225.04179688 50.6171875 225.03515625 C51.73262939 225.0194458 51.73262939 225.0194458 52.87060547 225.00341797 C54.75 225.23046875 54.75 225.23046875 56.75 227.23046875 C57.01069641 229.23509216 57.01069641 229.23509216 57.0246582 231.72436523 C57.03419022 232.65550644 57.04372223 233.58664764 57.05354309 234.54600525 C57.05217598 236.05850609 57.05217598 236.05850609 57.05078125 237.6015625 C57.05506638 238.6348317 57.0593515 239.66810089 57.06376648 240.73268127 C57.06951683 242.92081977 57.07000488 245.10897738 57.06567383 247.29711914 C57.06251609 250.65088434 57.0859571 254.00376599 57.11132812 257.35742188 C57.1136012 259.48046763 57.11430457 261.60351577 57.11328125 263.7265625 C57.122491 264.73287216 57.13170074 265.73918182 57.14118958 266.77598572 C57.13184639 268.17742577 57.13184639 268.17742577 57.12231445 269.60717773 C57.12294388 270.42943344 57.1235733 271.25168915 57.1242218 272.09886169 C56.75 274.23046875 56.75 274.23046875 55.590271 275.99615479 C52.98305776 277.74487533 51.05955103 277.60465152 47.93334961 277.6027832 C46.73878647 277.60901199 45.54422333 277.61524078 44.3134613 277.62165833 C43.02279251 277.61244858 41.73212372 277.60323883 40.40234375 277.59375 C39.06620789 277.59323135 37.73007126 277.59374925 36.39393616 277.59526062 C33.59543447 277.59517094 30.79722116 277.58474999 27.9987793 277.56665039 C24.40836737 277.54394109 20.81837596 277.54342343 17.22791195 277.55016804 C14.46985626 277.55350599 11.71189679 277.54688164 8.95385933 277.5370388 C6.98511169 277.53130899 5.01634765 277.53262378 3.04759216 277.53401184 C1.85618118 277.52447983 0.6647702 277.51494781 -0.56274414 277.50512695 C-1.61514786 277.50051956 -2.66755157 277.49591217 -3.75184631 277.49116516 C-6.25 277.23046875 -6.25 277.23046875 -8.25 275.23046875 C-8.49050903 272.86398315 -8.49050903 272.86398315 -8.47705078 269.86279297 C-8.47682419 268.1812764 -8.47682419 268.1812764 -8.47659302 266.46578979 C-8.46627045 265.25118073 -8.45594788 264.03657166 -8.4453125 262.78515625 C-8.4424826 261.54500763 -8.43965271 260.30485901 -8.43673706 259.02713013 C-8.42742174 255.72922242 -8.4094489 252.43150903 -8.3873291 249.13366699 C-8.36687474 245.76882349 -8.35762671 242.40395071 -8.34765625 239.0390625 C-8.32726397 232.43604244 -8.28811888 225.83350579 -8.25 219.23046875 C-22.11 218.90046875 -35.97 218.57046875 -50.25 218.23046875 C-50.6875 198.73046875 -50.6875 198.73046875 -50.81811523 192.62304688 C-50.85628718 191.00259658 -50.89476035 189.38215333 -50.93359375 187.76171875 C-50.9583075 186.52760254 -50.9583075 186.52760254 -50.98352051 185.26855469 C-51.00370239 184.45741211 -51.02388428 183.64626953 -51.04467773 182.81054688 C-51.06022202 182.11771606 -51.0757663 181.42488525 -51.09178162 180.71105957 C-51.31550975 177.20338916 -51.81404295 173.71812519 -52.25 170.23046875 C-76.01 169.90046875 -99.77 169.57046875 -124.25 169.23046875 C-123.92 179.13046875 -123.59 189.03046875 -123.25 199.23046875 C-123.25 203.85046875 -123.25 208.47046875 -123.25 213.23046875 C-126.82706772 215.61518056 -129.54424801 215.59662408 -133.6875 215.73046875 C-140.43611252 216.01148304 -147.1303888 216.56060338 -153.84765625 217.26171875 C-155.21380066 217.4014209 -155.21380066 217.4014209 -156.60754395 217.54394531 C-158.82192077 217.7706882 -161.03605475 217.99955652 -163.25 218.23046875 C-163.24000725 219.23191925 -163.24000725 219.23191925 -163.22981262 220.25360107 C-163.16349109 227.19636219 -163.11821248 234.13903346 -163.08520508 241.08203125 C-163.07010985 243.6738653 -163.04963176 246.26567378 -163.02368164 248.85742188 C-162.98733173 252.58079334 -162.9702808 256.30382735 -162.95703125 260.02734375 C-162.94154739 261.18788269 -162.92606354 262.34842163 -162.91011047 263.54412842 C-162.90988388 264.6249469 -162.90965729 265.70576538 -162.90942383 266.81933594 C-162.89943108 268.24496857 -162.89943108 268.24496857 -162.88923645 269.69940186 C-163.32988567 272.79093551 -163.94679957 274.11490627 -166.25 276.23046875 C-168.87513733 276.72494507 -168.87513733 276.72494507 -172.06665039 276.71630859 C-173.26121353 276.72246185 -174.45577667 276.72861511 -175.6865387 276.73495483 C-177.62254189 276.71339828 -177.62254189 276.71339828 -179.59765625 276.69140625 C-180.93379031 276.68902172 -182.26992776 276.68811652 -183.60606384 276.68862915 C-186.40466333 276.68550204 -189.20275017 276.66894324 -192.0012207 276.64208984 C-195.59164987 276.60807665 -199.18151664 276.60046219 -202.77208805 276.60198021 C-205.53016039 276.6014369 -208.28810933 276.59047676 -211.04614067 276.57597733 C-213.01488111 276.56650381 -214.98364752 276.56305151 -216.95240784 276.55966187 C-218.14381882 276.54690216 -219.3352298 276.53414246 -220.56274414 276.52099609 C-222.14134972 276.5095607 -222.14134972 276.5095607 -223.75184631 276.49789429 C-226.25 276.23046875 -226.25 276.23046875 -228.25 274.23046875 C-228.49723816 272.06053162 -228.49723816 272.06053162 -228.49291992 269.33764648 C-228.49599655 268.31996689 -228.49907318 267.30228729 -228.50224304 266.25376892 C-228.49505753 265.1516658 -228.48787201 264.04956268 -228.48046875 262.9140625 C-228.48001053 261.78726578 -228.47955231 260.66046906 -228.4790802 259.49952698 C-228.47605536 257.11466419 -228.46816221 254.72980342 -228.45581055 252.3449707 C-228.43755882 248.67977966 -228.43530077 245.0148411 -228.43554688 241.34960938 C-228.43063173 239.03775822 -228.42480342 236.72590878 -228.41796875 234.4140625 C-228.41685593 233.30993515 -228.4157431 232.2058078 -228.41459656 231.06822205 C-228.40821671 230.05369461 -228.40183685 229.03916718 -228.39526367 227.99389648 C-228.38954597 226.64726173 -228.38954597 226.64726173 -228.38371277 225.27342224 C-228.25 223.23046875 -228.25 223.23046875 -227.25 222.23046875 C-225.7612814 222.14377443 -224.268555 222.12343381 -222.77734375 222.1328125 C-221.87822266 222.13603516 -220.97910156 222.13925781 -220.05273438 222.14257812 C-219.10720703 222.15095703 -218.16167969 222.15933594 -217.1875 222.16796875 C-216.23810547 222.17248047 -215.28871094 222.17699219 -214.31054688 222.18164062 C-211.95696935 222.19346765 -209.60351523 222.2099485 -207.25 222.23046875 C-207.25222061 221.54364517 -207.25444122 220.85682159 -207.25672913 220.14918518 C-207.27877895 213.02841713 -207.29390533 205.90765871 -207.30493164 198.78686523 C-207.30997383 196.12605394 -207.31680736 193.46524543 -207.32543945 190.80444336 C-207.33751009 186.98941359 -207.34322929 183.17442031 -207.34765625 179.359375 C-207.35281754 178.16147842 -207.35797882 176.96358185 -207.36329651 175.72938538 C-207.36340981 174.07778664 -207.36340981 174.07778664 -207.36352539 172.39282227 C-207.365746 171.41797379 -207.36796661 170.44312531 -207.37025452 169.43873596 C-207.25 167.23046875 -207.25 167.23046875 -206.25 166.23046875 C-203.73143825 166.07059929 -201.23635826 165.97104981 -198.71484375 165.9140625 C-198.04747192 165.89541138 -197.3801001 165.87676025 -196.69250488 165.85754395 C-194.19097583 165.78906134 -191.68922118 165.72903088 -189.1875 165.66796875 C-180.8034375 165.45140625 -180.8034375 165.45140625 -172.25 165.23046875 C-172.25 150.05046875 -172.25 134.87046875 -172.25 119.23046875 C-176.40404441 117.15344655 -178.40304071 116.94747603 -182.94921875 116.8515625 C-184.24021484 116.81740234 -185.53121094 116.78324219 -186.86132812 116.74804688 C-188.22003906 116.72069907 -189.57876348 116.6940143 -190.9375 116.66796875 C-193.60829186 116.61023043 -196.2786481 116.54476435 -198.94921875 116.4765625 C-200.13346436 116.45263428 -201.31770996 116.42870605 -202.5378418 116.40405273 C-205.25 116.23046875 -205.25 116.23046875 -206.25 115.23046875 C-206.34370624 113.45054951 -206.36744271 111.66690136 -206.36352539 109.88452148 C-206.36344986 108.74341415 -206.36337433 107.60230682 -206.36329651 106.42662048 C-206.35813522 105.18497635 -206.35297394 103.94333221 -206.34765625 102.6640625 C-206.3462413 101.40030289 -206.34482635 100.13654327 -206.34336853 98.83448792 C-206.33870582 95.46921986 -206.3297148 92.10401885 -206.31866455 88.73876953 C-206.30844846 85.30697205 -206.30387049 81.87516766 -206.29882812 78.44335938 C-206.2877738 71.70570811 -206.27049637 64.96809764 -206.25 58.23046875 C-213.51 58.23046875 -220.77 58.23046875 -228.25 58.23046875 C-228.29931912 50.43425426 -228.33568111 42.63812994 -228.35986328 34.84179688 C-228.36994089 32.18780944 -228.38360313 29.53383315 -228.40087891 26.87988281 C-228.42504992 23.07223768 -228.43646535 19.26473891 -228.4453125 15.45703125 C-228.45563507 14.26429596 -228.46595764 13.07156067 -228.47659302 11.84268188 C-228.47674408 10.74169159 -228.47689514 9.64070129 -228.47705078 8.50634766 C-228.48371262 7.04740585 -228.48371262 7.04740585 -228.49050903 5.55899048 C-228.25 3.23046875 -228.25 3.23046875 -226.25 1.23046875 C-224.40356445 0.97167969 -224.40356445 0.97167969 -222.11328125 0.96484375 C-221.24034424 0.960896 -220.36740723 0.95694824 -219.46801758 0.95288086 C-218.50919678 0.96198486 -217.55037598 0.97108887 -216.5625 0.98046875 C-215.56822998 0.98506104 -214.57395996 0.98965332 -213.54956055 0.99438477 C-204.53680496 1.09802699 -195.5549141 1.59003081 -186.5625 2.16796875 C-185.8787027 2.21135376 -185.1949054 2.25473877 -184.49038696 2.29943848 C-170.7665205 3.1865129 -170.7665205 3.1865129 -168.25 4.23046875 C-166.06326674 7.5621093 -166.00673298 10.35985071 -166.02294922 14.28417969 C-166.02310028 15.50514343 -166.02325134 16.72610718 -166.02340698 17.98406982 C-166.03372955 19.29772522 -166.04405212 20.61138062 -166.0546875 21.96484375 C-166.05841958 23.32675977 -166.06126563 24.68867848 -166.06326294 26.05059814 C-166.07088406 29.62794461 -166.09051931 33.2051276 -166.1126709 36.78240967 C-166.13316221 40.43564605 -166.14238138 44.08890973 -166.15234375 47.7421875 C-166.17270448 54.90509209 -166.21185427 62.06754832 -166.25 69.23046875 C-153.71 69.23046875 -141.17 69.23046875 -128.25 69.23046875 C-124.8737378 77.10841389 -124.8737378 77.10841389 -124.73828125 80.7265625 C-124.70283203 81.53416016 -124.66738281 82.34175781 -124.63085938 83.17382812 C-124.60830078 83.99689453 -124.58574219 84.81996094 -124.5625 85.66796875 C-124.52833984 86.45623047 -124.49417969 87.24449219 -124.45898438 88.05664062 C-124.14818808 96.11831606 -124.25 104.1554717 -124.25 112.23046875 C-100.16 112.23046875 -76.07 112.23046875 -51.25 112.23046875 C-50.96063053 97.79514695 -50.96063053 97.79514695 -50.68188477 83.35961914 C-50.64377902 81.5574462 -50.60531137 79.75528086 -50.56640625 77.953125 C-50.54993042 77.0082019 -50.53345459 76.06327881 -50.51647949 75.08972168 C-50.49629761 74.19652222 -50.47611572 73.30332275 -50.45532227 72.38305664 C-50.43977798 71.60362198 -50.4242337 70.82418732 -50.40821838 70.02113342 C-50.25 68.23046875 -50.25 68.23046875 -49.25 67.23046875 C-46.5461179 67.12942112 -43.86833487 67.09076852 -41.1640625 67.09765625 C-39.94497696 67.09622116 -39.94497696 67.09622116 -38.70126343 67.09475708 C-36.97792483 67.09407514 -35.25458369 67.09593037 -33.53125 67.10009766 C-30.89317025 67.10543201 -28.25526182 67.10016027 -25.6171875 67.09375 C-23.94531212 67.09441105 -22.27343685 67.09569277 -20.6015625 67.09765625 C-19.81085358 67.09563202 -19.02014465 67.09360779 -18.20547485 67.09152222 C-14.96052868 67.105395 -12.35047084 67.19697847 -9.25 68.23046875 C-9.25543823 66.48467529 -9.25543823 66.48467529 -9.26098633 64.70361328 C-9.28779426 52.19330006 -9.20750703 39.68671303 -8.98754883 27.17822266 C-8.95365947 25.09758115 -8.92584384 23.01683337 -8.90356445 20.93603516 C-8.87027644 17.88534253 -8.81812569 14.8354978 -8.76171875 11.78515625 C-8.75532883 10.85202606 -8.7489389 9.91889587 -8.74235535 8.95748901 C-8.71266411 7.67311447 -8.71266411 7.67311447 -8.68237305 6.36279297 C-8.66571846 5.23416336 -8.66571846 5.23416336 -8.64872742 4.08273315 C-7.70029158 -0.3231689 -3.66807311 -0.01597265 0 0 Z " fill="#E2241D" transform="translate(718.25,342.76953125)"/>
<path d="M0 0 C2.36291139 1.17443714 4.19079867 2.53962223 6.22265625 4.23046875 C7.0940625 4.9471875 7.96546875 5.66390625 8.86328125 6.40234375 C9.35119141 6.80775391 9.83910156 7.21316406 10.34179688 7.63085938 C12.842297 9.70013552 15.36473062 11.74217582 17.88574219 13.78637695 C19.27640635 14.91527478 20.66508429 16.0466238 22.05175781 17.18041992 C25.07599803 19.65069729 28.10367063 22.1031104 31.22265625 24.453125 C32.13015625 25.14277344 33.03765625 25.83242188 33.97265625 26.54296875 C35.14828125 27.41115234 35.14828125 27.41115234 36.34765625 28.296875 C37.97265625 29.98046875 37.97265625 29.98046875 37.97265625 33.98046875 C36.90063477 35.59838867 36.90063477 35.59838867 35.3515625 37.2109375 C34.75794922 37.83693848 34.16433594 38.46293945 33.55273438 39.10791016 C32.88693359 39.78772949 32.22113281 40.46754883 31.53515625 41.16796875 C30.84228516 41.88903809 30.14941406 42.61010742 29.43554688 43.35302734 C26.96322485 45.9109134 24.47057103 48.44756791 21.97265625 50.98046875 C21.47529968 51.48535828 20.97794312 51.9902478 20.46551514 52.51043701 C16.64551506 56.38638068 12.81292959 60.2496165 8.97265625 64.10546875 C8.43722198 64.64376312 7.90178772 65.1820575 7.35012817 65.73666382 C5.78985649 67.30279029 4.22570013 68.86492666 2.66015625 70.42578125 C1.75652344 71.32828613 0.85289062 72.23079102 -0.078125 73.16064453 C-2.09725833 75.13270616 -4.1868663 76.97248084 -6.34240723 78.79354858 C-12.84556036 84.47146482 -18.8467043 90.67751041 -24.93554688 96.79101562 C-26.33237234 98.1897628 -27.72942754 99.5882806 -29.12669373 100.98658752 C-32.12312866 103.98617153 -35.11800573 106.98729915 -38.11167908 109.98963928 C-42.85004813 114.74158487 -47.59227743 119.48966557 -52.33508301 124.23718262 C-62.40213837 134.31531584 -72.46496019 144.39767134 -82.52734375 154.48046875 C-93.39220584 165.36737271 -104.25779772 176.25354221 -115.12828588 187.13482904 C-119.83830451 191.84981598 -124.54587717 196.56722718 -129.25156403 201.28653717 C-132.18393598 204.2263928 -135.11840013 207.16415331 -138.05342293 210.10136223 C-139.4087334 211.45853729 -140.76318289 212.81657281 -142.11668205 214.17555428 C-154.58604076 226.69380629 -154.58604076 226.69380629 -160.43490219 231.56164455 C-162.91813867 233.77414396 -164.99958191 236.30564176 -167.15075684 238.83499146 C-170.81579301 243.02517942 -174.7981277 246.91419119 -178.73046875 250.8515625 C-179.64890564 251.77332779 -180.56734253 252.69509308 -181.51361084 253.64479065 C-183.44823046 255.58535502 -185.38486139 257.52388594 -187.32275391 259.46118164 C-189.7760694 261.91439577 -192.22243797 264.37441129 -194.6670723 266.83627224 C-197.03779454 269.220947 -199.41585073 271.59826342 -201.79296875 273.9765625 C-202.65480774 274.84558701 -203.51664673 275.71461151 -204.40460205 276.60997009 C-209.52327999 281.7098434 -214.83961229 286.3510005 -220.47338867 290.87251282 C-224.03696615 293.81378001 -227.27001815 297.00664487 -230.48828125 300.31640625 C-231.12673981 300.96243805 -231.76519836 301.60846985 -232.42300415 302.27407837 C-234.42119594 304.29628166 -236.41259271 306.32496202 -238.40234375 308.35546875 C-241.05013125 311.05663138 -243.70463406 313.75093671 -246.36328125 316.44140625 C-246.9591806 317.05390228 -247.55507996 317.66639832 -248.16903687 318.29745483 C-253.53895941 323.73019581 -257.3648679 326.31099779 -265.21484375 326.60546875 C-265.96169434 326.63705078 -266.70854492 326.66863281 -267.47802734 326.70117188 C-270.32742798 326.81371355 -273.17689491 326.89849731 -276.02734375 326.98046875 C-277.31753418 327.01881836 -278.60772461 327.05716797 -279.93701172 327.09667969 C-281.36165143 327.13874714 -282.78629343 327.18073699 -284.2109375 327.22265625 C-284.94078354 327.24413727 -285.67062958 327.26561829 -286.42259216 327.28775024 C-290.09563128 327.39484644 -293.76867264 327.49702301 -297.44213867 327.58837891 C-305.75877663 327.80291785 -314.04018028 328.1870203 -322.33935547 328.77319336 C-328.23616429 329.10461072 -334.12239417 329.0635071 -340.02734375 328.98046875 C-339.65222656 328.54476563 -339.27710938 328.1090625 -338.890625 327.66015625 C-338.37886719 327.06460937 -337.86710938 326.4690625 -337.33984375 325.85546875 C-336.51033203 324.89253906 -336.51033203 324.89253906 -335.6640625 323.91015625 C-334.29367249 322.2944697 -332.96735707 320.64153821 -331.65234375 318.98046875 C-329.62950119 316.66864868 -327.77709955 314.84686907 -325.45703125 312.88671875 C-320.57033398 308.65461886 -316.05976276 304.08563927 -311.52734375 299.48046875 C-302.57308593 290.38248288 -302.57308593 290.38248288 -298.15625 286.6015625 C-293.19066974 282.33668491 -288.59734299 277.70026084 -283.98168945 273.06518555 C-282.46741795 271.54555207 -280.94786945 270.03134358 -279.42773438 268.51757812 C-278.43848136 267.52766416 -277.44953867 266.53743995 -276.4609375 265.546875 C-275.58493896 264.66974854 -274.70894043 263.79262207 -273.80639648 262.88891602 C-271.70364912 260.73357087 -269.7245464 258.49573604 -267.75927734 256.21459961 C-263.66528262 251.49896086 -259.29411415 247.08532585 -254.8828125 242.66796875 C-254.03181473 241.81364258 -253.18081696 240.95931641 -252.30403137 240.07910156 C-250.51950746 238.28954678 -248.73365512 236.50131579 -246.9465332 234.71435547 C-244.20040713 231.96602052 -241.46240205 229.2097585 -238.72460938 226.453125 C-236.98616594 224.71175141 -235.24725062 222.97084876 -233.5078125 221.23046875 C-232.68701706 220.40248779 -231.86622162 219.57450684 -231.02055359 218.72143555 C-230.26248917 217.96644775 -229.50442474 217.21145996 -228.72338867 216.43359375 C-228.05611252 215.76489258 -227.38883636 215.09619141 -226.70133972 214.40722656 C-225.02734375 212.98046875 -225.02734375 212.98046875 -223.02734375 212.98046875 C-222.77154541 212.39418701 -222.51574707 211.80790527 -222.25219727 211.20385742 C-220.90809924 208.76401275 -219.47685319 207.28706268 -217.4296875 205.40625 C-216.71482178 204.74294678 -215.99995605 204.07964355 -215.26342773 203.39624023 C-214.50489502 202.70216064 -213.7463623 202.00808105 -212.96484375 201.29296875 C-211.4117419 199.85396308 -209.85964904 198.4138676 -208.30859375 196.97265625 C-207.56480469 196.28268555 -206.82101562 195.59271484 -206.0546875 194.88183594 C-203.01088098 192.02716768 -200.07880386 189.07092966 -197.1796875 186.0703125 C-195.26512514 184.21134542 -193.30201741 182.47553318 -191.28125 180.734375 C-186.99194852 177.00858069 -183.00402786 173.03482247 -179.02734375 168.98046875 C-177.69661165 167.62374578 -176.36328355 166.2695641 -175.02734375 164.91796875 C-174.44984375 164.32886719 -173.87234375 163.73976563 -173.27734375 163.1328125 C-171.44122341 161.37638488 -169.5761748 159.74019022 -167.64257812 158.09570312 C-161.86352114 153.06655947 -156.52538178 147.58918359 -151.1290741 142.15736389 C-149.14597341 140.16135351 -147.15963801 138.16861169 -145.17248535 136.17663574 C-140.95460525 131.9473977 -136.74067823 127.71423472 -132.52734375 123.48046875 C-127.64007542 118.56950085 -122.75114661 113.66020984 -117.85795593 108.75514221 C-115.9128633 106.80362624 -113.97083709 104.8490949 -112.02893066 102.89440918 C-106.19699039 97.03841051 -100.34498974 91.31786117 -94.02734375 85.98046875 C-91.94726567 84.10336704 -89.89202244 82.2004889 -87.83984375 80.29296875 C-86.70837351 79.24474829 -85.57686194 78.19657246 -84.4453125 77.1484375 C-83.87731934 76.62169434 -83.30932617 76.09495117 -82.72412109 75.55224609 C-81.09448419 74.04266301 -79.4620081 72.53623508 -77.828125 71.03125 C-72.5942928 66.20980963 -67.37501559 61.37403345 -62.18115234 56.50952148 C-57.09565291 51.74668038 -51.99865556 47.02799766 -46.71484375 42.484375 C-44.33733988 40.36553474 -42.12908582 38.09357977 -39.89916992 35.8215332 C-38.09794018 34.049905 -36.24324132 32.39317747 -34.328125 30.74609375 C-30.02792919 27.0062774 -25.85985038 23.14082537 -21.71484375 19.23046875 C-20.60943237 18.19418335 -20.60943237 18.19418335 -19.48168945 17.13696289 C-16.12450535 13.97482323 -12.80737441 10.79597524 -9.62109375 7.4609375 C-9.12262939 6.94176758 -8.62416504 6.42259766 -8.1105957 5.88769531 C-6.80401083 4.51186167 -5.5146146 3.11976171 -4.2265625 1.7265625 C-2.02734375 -0.01953125 -2.02734375 -0.01953125 0 0 Z " fill="#024C9F" transform="translate(854.02734375,652.01953125)"/>
<path d="M0 0 C3.99018131 1.80231948 5.64471719 3.90582976 8.1875 7.5 C12.43395351 13.36105457 17.07286656 18.69447559 22 24 C22.92303173 25.01327041 23.84485714 26.0276407 24.765625 27.04296875 C32.28547099 35.32612673 39.78802114 42.98707834 48.546875 49.984375 C50.48995615 51.58091938 52.2716986 53.17952253 54 55 C52.42344915 58.80923106 50.02574576 61.22178935 47.12646484 64.11645508 C46.63183746 64.6129808 46.13721008 65.10950653 45.62759399 65.62107849 C43.99355159 67.25882011 42.35242566 68.88925513 40.7109375 70.51953125 C39.56674305 71.66253238 38.42291935 72.80590475 37.27944946 73.94963074 C34.87997285 76.34754349 32.47717703 78.74206233 30.07177734 81.1340332 C27.00716584 84.18174167 23.94909043 87.23590353 20.89330101 90.29245472 C18.52909517 92.65638676 16.16227708 95.0176889 13.79460526 97.37814903 C12.66744066 98.50215673 11.54085846 99.62674881 10.41489792 100.75196266 C4.93355576 106.22569888 -0.55111708 111.64954388 -6.45173645 116.67755127 C-8.40820415 118.34866742 -10.24747792 120.1144998 -12.0625 121.9375 C-12.65160156 122.52402344 -13.24070312 123.11054687 -13.84765625 123.71484375 C-15.59882379 125.57406881 -17.25082818 127.4638439 -18.90625 129.40625 C-23.87615001 135.11571453 -29.26509088 140.41433999 -34.62426758 145.75463867 C-36.43360933 147.55862085 -38.23754319 149.36788665 -40.04101562 151.17773438 C-41.21322122 152.34927905 -42.38573704 153.52051342 -43.55859375 154.69140625 C-44.08593613 155.22077286 -44.6132785 155.75013947 -45.15660095 156.29554749 C-47.9648262 159.0866629 -50.83687362 161.75062107 -53.83813477 164.33374023 C-58.45349952 168.33343879 -62.73719139 172.62939588 -67.03125 176.96875 C-67.86660278 177.8078894 -68.70195557 178.64702881 -69.56262207 179.51159668 C-72.21087086 182.171969 -74.85584406 184.83556013 -77.5 187.5 C-80.98662601 191.01337273 -84.47664926 194.52331971 -87.96875 198.03125 C-88.75544067 198.82623901 -89.54213135 199.62122803 -90.35266113 200.44030762 C-93.76968023 203.87228884 -97.19877366 207.22489477 -100.87695312 210.37695312 C-105.64870494 214.4854794 -110.05998571 218.94723024 -114.49072266 223.41555786 C-116.0369274 224.97473727 -117.58641896 226.53058621 -119.13671875 228.08569336 C-122.42732983 231.38763136 -125.71396962 234.69350416 -129 238 C-132.81336505 241.83711476 -136.62842149 245.67251675 -140.44775391 249.50369263 C-141.96076052 251.02309466 -143.4706797 252.54551703 -144.98046875 254.06811523 C-149.60257199 258.71449993 -154.26481415 263.25136598 -159.26745605 267.4901123 C-162.51317964 270.31871478 -165.48917757 273.42579184 -168.5 276.5 C-172.8737525 280.9658315 -177.32875905 285.23377002 -182.06103516 289.31933594 C-196.21726285 301.58973023 -209.24459581 315.16667672 -222.42358398 328.46044922 C-223.12522675 329.16635696 -223.82686951 329.87226471 -224.54977417 330.5995636 C-225.86763841 331.92560742 -227.18342338 333.25372263 -228.49661255 334.58439636 C-231.66333638 337.76815126 -234.88762721 340.87768055 -238.21264648 343.89624023 C-239.15659523 344.75402321 -239.15659523 344.75402321 -240.11961365 345.62913513 C-242.12953488 347.09443528 -243.54133569 347.68760256 -246 348 C-247.7890625 346.91577148 -247.7890625 346.91577148 -249.625 345.18359375 C-250.31980469 344.53503418 -251.01460937 343.88647461 -251.73046875 343.21826172 C-252.47941406 342.48623535 -253.22835937 341.75420898 -254 341 C-254.80050781 340.22027832 -255.60101563 339.44055664 -256.42578125 338.63720703 C-258.96848541 336.12959852 -261.4873673 333.60022043 -264 331.0625 C-264.87011719 330.18787109 -265.74023438 329.31324219 -266.63671875 328.41210938 C-268.76013549 326.27702551 -270.88116378 324.13962795 -273 322 C-269.71596081 318.09830776 -266.41708154 314.3015829 -262.75 310.75 C-260.46450703 308.53537503 -258.78046328 306.67069492 -257 304 C-256.34 304 -255.68 304 -255 304 C-254.77619659 303.45120682 -254.55239319 302.90241364 -254.32180786 302.33699036 C-252.6048957 299.30144542 -250.31004252 297.03918063 -247.85107422 294.6081543 C-247.32718613 294.08236786 -246.80329803 293.55658142 -246.26353455 293.01486206 C-244.53209835 291.27972517 -242.79356989 289.55189082 -241.0546875 287.82421875 C-239.84323237 286.6139568 -238.63214785 285.40332377 -237.42141724 284.19233704 C-234.88070603 281.65318992 -232.33667261 279.11743554 -229.79003906 276.58422852 C-226.54382323 273.35492058 -223.30414609 270.11915202 -220.06675529 266.88099957 C-217.56358033 264.37809824 -215.05779375 261.87782521 -212.55115128 259.37839699 C-211.35699947 258.18740426 -210.16343203 256.99582528 -208.97048569 255.80362511 C-198.50182345 245.34866467 -198.50182345 245.34866467 -194.13720703 241.64379883 C-188.15909898 236.53027636 -182.71758617 230.82632391 -177.17575073 225.25091553 C-175.02461663 223.08688959 -172.87026211 220.92611522 -170.71508789 218.76611328 C-166.14056395 214.18022278 -161.56998802 209.59041013 -157 205 C-151.69969468 199.67600897 -146.39773742 194.35368495 -141.09152222 189.0355835 C-138.98024075 186.91787095 -136.87201992 184.79714452 -134.76391602 182.67626953 C-123.20272765 171.0713698 -123.20272765 171.0713698 -117.55749512 166.33140564 C-114.71675332 163.90303228 -112.11914422 161.22507391 -109.5 158.5625 C-108.96375 158.02173828 -108.4275 157.48097656 -107.875 156.92382812 C-106.58095964 155.61823383 -105.29011826 154.30947004 -104 153 C-111.19297257 146.88197087 -118.40931418 140.80613217 -125.7578125 134.875 C-126.86769531 133.946875 -126.86769531 133.946875 -128 133 C-128.61617187 132.505 -129.23234375 132.01 -129.8671875 131.5 C-131 130 -131 130 -130.921875 128 C-129.75931644 125.47783906 -128.52169976 124.59184801 -126.25 123 C-122.20676666 119.99791521 -118.4890329 116.80506142 -114.8125 113.375 C-113.99567749 112.61376831 -113.99567749 112.61376831 -113.16235352 111.8371582 C-112.02675257 110.77589348 -110.89225204 109.71345018 -109.75878906 108.64990234 C-107.34108512 106.38187857 -104.91608443 104.12176345 -102.48901367 101.86376953 C-101.33156088 100.78678473 -100.17536477 99.70844689 -99.02075195 98.62841797 C-96.20954775 96.00832357 -93.36448144 93.45500271 -90.4375 90.96484375 C-84.08425886 85.43349076 -78.24441649 79.34902063 -72.3125 73.375 C-71.09073054 72.14820268 -69.86872695 70.92163847 -68.64648438 69.6953125 C-66.40260376 67.44333014 -64.16008256 65.19001363 -61.91918945 62.93505859 C-57.97398155 58.96644882 -54.01567081 55.01137063 -50.0390625 51.07421875 C-48.56765116 49.6120367 -47.0962984 48.1497957 -45.625 46.6875 C-44.89539063 45.96626953 -44.16578125 45.24503906 -43.4140625 44.50195312 C-42.6921875 43.78330078 -41.9703125 43.06464844 -41.2265625 42.32421875 C-40.58283691 41.68572998 -39.93911133 41.04724121 -39.27587891 40.3894043 C-37.34789057 38.36524404 -35.51566016 36.30286231 -33.6887207 34.1887207 C-30.19985131 30.17704467 -26.5277481 26.3986802 -22.75390625 22.65625 C-22.09792953 22.00168823 -21.44195282 21.34712646 -20.76609802 20.67272949 C-18.70059855 18.61276177 -16.63162405 16.55632634 -14.5625 14.5 C-13.14885566 13.0913795 -11.73544214 11.68252733 -10.32226562 10.2734375 C-6.88416851 6.84627867 -3.44295344 3.42227981 0 0 Z " fill="#024C9F" transform="translate(395,633)"/>
<path d="M0 0 C1 2 1 2 0.24658203 4.32128906 C-0.16221191 5.29291992 -0.57100586 6.26455078 -0.9921875 7.265625 C-1.44577637 8.3683374 -1.89936523 9.4710498 -2.36669922 10.60717773 C-2.86443848 11.80930908 -3.36217773 13.01144043 -3.875 14.25 C-13.56894063 38.14915097 -22.21568987 63.80240922 -25.1875 89.5 C-25.3110083 90.55417114 -25.3110083 90.55417114 -25.43701172 91.62963867 C-25.9233276 96.43056995 -26.00624648 101.14725 -25.9609375 105.97265625 C-26.07255774 127.46652796 -26.07255774 127.46652796 -33.87475586 135.68920898 C-36.69852352 138.28166199 -39.58392309 140.72510907 -42.67651367 142.99145508 C-44.6782487 144.7218611 -46.25732836 146.40129058 -47.96630859 148.40478516 C-53.27476042 154.58205258 -59.1100905 160.25393148 -64.87109375 166.00390625 C-66.1200238 167.25351145 -67.36880551 168.50326493 -68.6174469 169.75315857 C-71.22389431 172.36107304 -73.83212294 174.96718907 -76.44165039 177.57202148 C-79.76788521 180.89255965 -83.08960934 184.21756812 -86.41000271 187.54394627 C-88.98455823 190.12213426 -91.56151415 192.69791244 -94.13917732 195.27299309 C-95.36417868 196.4973326 -96.58845219 197.72240084 -97.81194878 198.94824409 C-103.4214299 204.56612422 -109.02196933 210.12716441 -115.06336975 215.28575134 C-119.19558613 218.94346885 -123.02415074 222.92479933 -126.90625 226.84375 C-128.31862932 228.2619165 -129.73101161 229.68008007 -131.14356232 231.09807587 C-133.59787501 233.56323132 -136.04884533 236.03170509 -138.5 238.5 C-141.42937203 241.44985631 -144.35936285 244.39907839 -147.29333496 247.34436035 C-149.11220613 249.17068429 -150.92882652 250.99925361 -152.74279785 252.83044434 C-157.66355608 257.7706813 -162.71062173 262.45950592 -168 267 C-169.34259467 268.22954633 -170.67849462 269.46656465 -172 270.71875 C-172.66 271.34136719 -173.32 271.96398437 -174 272.60546875 C-174.66 273.23066406 -175.32 273.85585938 -176 274.5 C-180.06255938 278.34832285 -184.14419412 282.1723014 -188.3125 285.90625 C-188.94800781 286.47666016 -189.58351562 287.04707031 -190.23828125 287.63476562 C-192 289 -192 289 -195 290 C-199.92950823 277.45780965 -204.49222679 264.89371385 -208.34912109 251.97851562 C-209.12913269 249.60746763 -210.06581536 247.31407952 -211 245 C-220.96597066 253.85351938 -230.36460789 263.24519476 -239.76589203 272.69072723 C-242.5390217 275.47677628 -245.31533348 278.25963186 -248.09259033 281.04156494 C-253.98140406 286.94137715 -259.86592671 292.84546057 -265.75 298.75 C-272.58837464 305.61211936 -279.42847595 312.47250038 -286.27277374 319.32871246 C-288.99786352 322.0602476 -291.7199069 324.79479332 -294.4418335 327.52947998 C-296.1209041 329.21218479 -297.8001162 330.89474841 -299.47949219 332.57714844 C-300.60028923 333.70569496 -300.60028923 333.70569496 -301.74372864 334.85704041 C-303.81096474 336.92448209 -305.89702338 338.96896084 -308 341 C-309.054613 342.02813183 -309.054613 342.02813183 -310.13053131 343.077034 C-310.82006645 343.72033409 -311.50960159 344.36363419 -312.22003174 345.02642822 C-312.82763966 345.60011265 -313.43524757 346.17379707 -314.06126785 346.76486588 C-316.57679951 348.36746941 -318.06728046 348.39694513 -321 348 C-323.23289516 346.26588142 -325.1402173 344.60483312 -327.125 342.625 C-331.32879728 338.5380318 -331.32879728 338.5380318 -336 335 C-334.57147678 330.30136337 -331.83475879 327.44739864 -328.375 324.125 C-327.87871094 323.63386719 -327.38242187 323.14273437 -326.87109375 322.63671875 C-324.08541504 319.90774597 -321.21833197 317.31123976 -318.2578125 314.7734375 C-313.07767988 310.27871054 -308.31235918 305.38140307 -303.5 300.5 C-301.70042547 298.67460661 -299.89838231 296.85164329 -298.09375 295.03125 C-296.91329102 293.83338867 -296.91329102 293.83338867 -295.70898438 292.61132812 C-293.70648409 290.68101603 -291.70420235 288.88287031 -289.59008789 287.08569336 C-282.89209523 281.26880202 -276.728895 274.87234591 -270.46484375 268.59765625 C-269.05829696 267.19178434 -267.65160185 265.7860608 -266.24476624 264.38047791 C-263.30730236 261.44448232 -260.37163918 258.50670131 -257.43725586 255.56762695 C-253.6929794 251.81765377 -249.94423066 248.07218869 -246.19411373 244.32805729 C-243.2916656 241.42923828 -240.39162265 238.52802245 -237.49228096 235.62609673 C-236.11164105 234.24479405 -234.73026988 232.86422185 -233.34812737 231.48442268 C-224.14875724 222.31111393 -224.14875724 222.31111393 -215.4641571 212.6552887 C-212.94352204 209.80560903 -210.12854487 207.29380581 -207.30859375 204.74609375 C-201.15326301 199.08949187 -195.18471828 193.27017461 -189.28515625 187.34765625 C-188.45108246 186.5103598 -187.61700867 185.67306335 -186.75765991 184.81039429 C-184.19069209 182.22965646 -181.62616372 179.64651987 -179.0625 177.0625 C-175.63969682 173.61290883 -172.2134422 170.16679759 -168.78515625 166.72265625 C-167.63805931 165.5631118 -167.63805931 165.5631118 -166.4677887 164.38014221 C-163.12459324 161.02185592 -159.7662401 157.74806963 -156.16577148 154.66577148 C-151.24821873 150.42922628 -146.70698097 145.81925082 -142.1388855 141.21405029 C-140.52546486 139.58766731 -138.90876729 137.96460304 -137.29125977 136.34228516 C-133.85799254 132.89768516 -130.42869316 129.44915219 -127 126 C-123.02141817 121.99767795 -119.0411508 117.99706185 -115.05661011 114.00067139 C-113.47712934 112.41478994 -111.90073203 110.82588904 -110.32446289 109.23681641 C-105.56895005 104.45730514 -100.7670823 99.79809618 -95.64251709 95.41320801 C-93.60793818 93.66267328 -91.68834393 91.81767698 -89.7890625 89.921875 C-89.10199219 89.23609375 -88.41492188 88.5503125 -87.70703125 87.84375 C-87.01996094 87.1528125 -86.33289063 86.461875 -85.625 85.75 C-84.55958984 84.69039062 -84.55958984 84.69039062 -83.47265625 83.609375 C-82.79332031 82.92875 -82.11398437 82.248125 -81.4140625 81.546875 C-80.50068115 80.63180176 -80.50068115 80.63180176 -79.56884766 79.69824219 C-77.80597426 77.87921436 -77.80597426 77.87921436 -76 75 C-75.34 75 -74.68 75 -74 75 C-73.6596875 74.13375 -73.6596875 74.13375 -73.3125 73.25 C-71.65238361 70.40408619 -69.60812043 69.00158079 -67 67 C-65.32000312 65.34677103 -63.65526989 63.67798604 -62 62 C-60.60879005 60.61685037 -59.21755783 59.2337229 -57.82563782 57.85128784 C-55.70815684 55.74728381 -53.59342464 53.64052534 -51.47875977 51.53369141 C-50.36343145 50.42342905 -49.24721274 49.31406047 -48.13012695 48.20556641 C-46.50756835 46.59512532 -44.8882511 44.98148587 -43.26953125 43.3671875 C-42.77056839 42.87338593 -42.27160553 42.37958435 -41.75752258 41.87081909 C-39.55238843 39.66604374 -37.7382927 37.60743904 -36 35 C-35.34 35 -34.68 35 -34 35 C-34 34.34 -34 33.68 -34 33 C-33.34 33 -32.68 33 -32 33 C-31.7539502 32.42870361 -31.50790039 31.85740723 -31.25439453 31.26879883 C-29.78994496 28.62007757 -28.0756157 26.83314406 -25.9296875 24.69921875 C-24.70765625 23.48008789 -24.70765625 23.48008789 -23.4609375 22.23632812 C-22.60757812 21.39521484 -21.75421875 20.55410156 -20.875 19.6875 C-20.04484375 18.85798828 -19.2146875 18.02847656 -18.359375 17.17382812 C-13.93481755 12.78047837 -9.44084004 8.52971864 -4.69580078 4.48364258 C-3.0578585 3.05061994 -1.520174 1.55650703 0 0 Z " fill="#E2241D" transform="translate(371,349)"/>
<path d="M0 0 C2.5545422 0.92280362 4.55899206 1.99094154 6.83203125 3.47265625 C24.74898376 14.52275912 44.65878585 22.75053074 64.99487305 28.05908203 C65.822854 28.27677246 66.65083496 28.49446289 67.50390625 28.71875 C68.23319336 28.90236084 68.96248047 29.08597168 69.71386719 29.27514648 C71.51953125 29.91015625 71.51953125 29.91015625 73.51953125 31.91015625 C71.85377966 33.4319918 70.18687454 34.95256475 68.51953125 36.47265625 C67.59140625 37.31957031 66.66328125 38.16648437 65.70703125 39.0390625 C63.37746552 41.15187247 61.01534421 43.2232743 58.640625 45.28515625 C54.52675486 48.8756469 50.544906 52.59199064 46.58203125 56.34765625 C45.0846664 57.76175156 43.58726966 59.1758131 42.08984375 60.58984375 C41.33219727 61.30624023 40.57455078 62.02263672 39.79394531 62.76074219 C36.89185908 65.50333205 33.98512186 68.24094947 31.07714844 70.97729492 C29.65000863 72.32045633 28.22358944 73.66438377 26.79785156 75.0090332 C23.53059842 78.08853454 20.25699816 81.15934226 16.94921875 84.1953125 C6.00904543 94.27544217 -4.45613056 104.82174995 -14.92260742 115.38916016 C-15.55748581 116.02830353 -16.1923642 116.6674469 -16.84648132 117.32595825 C-18.03617144 118.52381015 -19.22378468 119.72373038 -20.4087677 120.92623901 C-23.24652652 123.78083921 -26.13907997 126.50860079 -29.19714355 129.12683105 C-33.45100037 132.83371319 -37.44835147 136.75054596 -41.421875 140.75390625 C-42.17097137 141.50446289 -42.92006775 142.25501953 -43.69186401 143.02832031 C-45.30472118 144.64495873 -46.91642299 146.2627505 -48.52706909 147.8815918 C-51.08147867 150.44886003 -53.63908212 153.01290823 -56.19750977 155.57617188 C-61.62798155 161.01802632 -67.05451479 166.46379765 -72.48046875 171.91015625 C-78.77205907 178.22540649 -85.06528547 184.53900804 -91.36276245 190.84838867 C-93.8728997 193.36497148 -96.37998711 195.88456525 -98.88696289 198.40429688 C-100.4375133 199.95848246 -101.98820577 201.51252633 -103.5390625 203.06640625 C-104.22708954 203.75959961 -104.91511658 204.45279297 -105.62399292 205.16699219 C-109.50331983 209.04673614 -113.4972163 212.7208176 -117.65005302 216.30558586 C-120.12625514 218.47626247 -122.45491584 220.7723329 -124.77563477 223.10766602 C-125.24348389 223.5769754 -125.71133301 224.04628479 -126.19335938 224.52981567 C-127.19235881 225.53257272 -128.19020383 226.53648104 -129.18695259 227.5414753 C-130.77069446 229.13817921 -132.35771274 230.73156416 -133.94554138 232.32420349 C-137.31419952 235.70419136 -140.67888317 239.0881181 -144.04296875 242.47265625 C-147.94974466 246.40315696 -151.85819991 250.33195778 -155.77091789 254.25654411 C-157.32329403 255.8153325 -158.87259274 257.37713381 -160.42176819 258.93910217 C-174.28613217 272.88047245 -174.28613217 272.88047245 -178.15234375 272.9765625 C-180.65962709 271.82809211 -182.58952947 270.58816059 -184.73046875 268.84765625 C-185.49746094 268.22632813 -186.26445312 267.605 -187.0546875 266.96484375 C-190.9278725 263.68417497 -194.72675905 260.32665326 -198.48046875 256.91015625 C-196.87242915 252.60143477 -193.56449443 250.01864697 -190.23046875 247.03515625 C-182.31654257 239.81756853 -174.76767944 232.26090217 -167.24707031 224.63916016 C-163.45904931 220.81620443 -159.69873246 217.02411133 -155.6015625 213.53125 C-149.73475601 208.50754182 -144.40448056 202.90138803 -138.98046875 197.41015625 C-126.53323572 184.80866421 -126.53323572 184.80866421 -120.22851562 179.43554688 C-117.3313312 176.90738929 -114.66640176 174.15876519 -111.98046875 171.41015625 C-100.93239866 160.23579509 -100.93239866 160.23579509 -95.265625 156.41796875 C-94.67652344 155.92039062 -94.08742188 155.4228125 -93.48046875 154.91015625 C-93.48046875 153.92015625 -93.48046875 152.93015625 -93.48046875 151.91015625 C-94.65480469 151.3275 -95.82914062 150.74484375 -97.0390625 150.14453125 C-105.74639278 145.74310361 -114.1435746 141.10039231 -122.16796875 135.53515625 C-122.90394287 135.0359668 -123.63991699 134.53677734 -124.39819336 134.02246094 C-125.06858643 133.54454102 -125.73897949 133.06662109 -126.4296875 132.57421875 C-127.02096436 132.1560791 -127.61224121 131.73793945 -128.22143555 131.30712891 C-129.48046875 129.91015625 -129.48046875 129.91015625 -129.48046875 125.91015625 C-128.11842346 124.37156677 -128.11842346 124.37156677 -126.17016602 122.84155273 C-120.59377881 118.23233344 -115.54938836 113.12363084 -110.4453125 108.0078125 C-109.39748929 106.96066489 -108.34951785 105.91366559 -107.30140686 104.86680603 C-105.11719887 102.68406299 -102.93478543 100.499546 -100.75366211 98.3137207 C-97.97792994 95.53229201 -95.19773093 92.75537849 -92.41615963 89.97979069 C-90.25487672 87.82214604 -88.09601161 85.66209478 -85.9378376 83.50134087 C-84.91445554 82.47729855 -83.89034914 81.45397951 -82.86546135 80.43144417 C-77.78955832 75.36464155 -72.82583765 70.25647944 -68.15428162 64.81080627 C-65.0620768 61.29954209 -61.73383264 58.0211895 -58.421875 54.71875 C-57.29989967 53.59533958 -57.29989967 53.59533958 -56.15525818 52.44923401 C-54.58414411 50.877444 -53.01178483 49.30689776 -51.43823242 47.73754883 C-49.04947029 45.35414321 -46.66609429 42.96544557 -44.28320312 40.57617188 C-42.74641425 39.04004388 -41.20931515 37.50422616 -39.671875 35.96875 C-38.61837608 34.91221474 -38.61837608 34.91221474 -37.54359436 33.83433533 C-33.56992968 29.87915789 -29.49026818 26.11411856 -25.24607849 22.45115662 C-23.12026321 20.59577371 -21.10794542 18.65142427 -19.12109375 16.6484375 C-18.39792969 15.92205078 -17.67476562 15.19566406 -16.9296875 14.44726562 C-15.84107422 13.34608398 -15.84107422 13.34608398 -14.73046875 12.22265625 C-13.98925781 11.47693359 -13.24804688 10.73121094 -12.484375 9.96289062 C-11.11112186 8.58100842 -9.73890931 7.19809062 -8.36816406 5.8137207 C-7.74522461 5.18554443 -7.12228516 4.55736816 -6.48046875 3.91015625 C-5.79267334 3.16862305 -5.10487793 2.42708984 -4.39624023 1.66308594 C-2.48046875 -0.08984375 -2.48046875 -0.08984375 0 0 Z " fill="#024CA0" transform="translate(485.48046875,712.08984375)"/>
<path d="M0 0 C3.74151049 2.15029338 6.92288612 4.78922354 10.21875 7.5625 C11.65124095 8.74742822 13.08484893 9.93100723 14.51953125 11.11328125 C15.22932129 11.69932129 15.93911133 12.28536133 16.67041016 12.88916016 C21.05795082 16.47345142 25.57647267 19.88689079 30.08496094 23.31689453 C33.07511669 25.59659786 36.05216776 27.89335798 39.03125 30.1875 C40.13145839 31.0339218 41.23171372 31.88028259 42.33203125 32.7265625 C43.11964844 33.33242188 43.90726563 33.93828125 44.71875 34.5625 C43.39501016 37.35525877 41.91484726 39.82743873 40.1015625 42.328125 C39.58303711 43.04540771 39.06451172 43.76269043 38.53027344 44.50170898 C37.9737207 45.26427002 37.41716797 46.02683105 36.84375 46.8125 C36.26657227 47.60664307 35.68939453 48.40078613 35.09472656 49.21899414 C26.58581462 60.89727849 18.02784604 72.50404363 8.71875 83.5625 C8.27595703 84.09552734 7.83316406 84.62855469 7.37695312 85.17773438 C1.69560124 92.012502 -4.14864062 98.62224095 -10.40625 104.9375 C-11.2410791 105.78610596 -11.2410791 105.78610596 -12.09277344 106.65185547 C-16.03403686 110.5625 -16.03403686 110.5625 -18.28125 110.5625 C-18.66990234 111.45582031 -18.66990234 111.45582031 -19.06640625 112.3671875 C-20.37915513 114.73942182 -21.63906927 115.96668309 -23.71875 117.6875 C-27.03135395 120.48269543 -30.23312905 123.35966957 -33.40625 126.3125 C-39.21265034 131.60562738 -45.32031589 136.43782866 -51.54785156 141.22314453 C-53.18580694 142.48875343 -54.80962123 143.77020666 -56.4296875 145.05859375 C-83.49183275 166.36066022 -114.03791336 183.40870377 -145.81933594 196.51611328 C-148.46821562 197.64196595 -151.0761177 198.84063979 -153.6875 200.05078125 C-177.60138471 210.97062058 -203.5935825 216.52878683 -229.28125 221.5625 C-229.28125 220.9025 -229.28125 220.2425 -229.28125 219.5625 C-227.79492188 218.09741211 -227.79492188 218.09741211 -225.75 216.40234375 C-221.55047235 212.82923949 -217.65288803 209.04734743 -213.78125 205.125 C-213.10126953 204.44123291 -212.42128906 203.75746582 -211.72070312 203.05297852 C-209.57174074 200.89192945 -207.42607721 198.72765274 -205.28125 196.5625 C-202.45091163 193.70533983 -199.61712327 190.85166546 -196.78125 188 C-195.83088867 187.03719116 -195.83088867 187.03719116 -194.86132812 186.05493164 C-191.06142953 182.23459813 -187.14363633 178.61648569 -183.05482483 175.10655212 C-180.4974605 172.88014264 -178.11314033 170.52652711 -175.71875 168.125 C-174.85121094 167.26003906 -173.98367188 166.39507813 -173.08984375 165.50390625 C-171.07285107 163.43635524 -169.18438893 161.29299257 -167.3125 159.09375 C-162.23925765 153.24829731 -156.70905944 147.84137647 -151.22973633 142.38061523 C-149.34796726 140.50420525 -147.47160262 138.62251031 -145.59570312 136.74023438 C-140.14175488 131.28357601 -134.69854943 125.88334695 -128.81811523 120.88110352 C-126.86636473 119.20653569 -125.06687161 117.41189381 -123.28125 115.5625 C-120.88678463 113.08251801 -118.40099314 110.79794197 -115.78125 108.5625 C-109.98912118 103.53192885 -104.66734019 98.01840988 -99.28125 92.5625 C-97.20098409 90.45526768 -95.11716634 88.35163765 -93.03125 86.25 C-92.11859375 85.32574219 -91.2059375 84.40148437 -90.265625 83.44921875 C-88.05167371 81.25921645 -85.74747916 79.20700258 -83.390625 77.171875 C-79.33833113 73.65940798 -75.54713792 69.94021225 -71.78125 66.125 C-71.10126953 65.44123291 -70.42128906 64.75746582 -69.72070312 64.05297852 C-67.57174074 61.89192945 -65.42607721 59.72765274 -63.28125 57.5625 C-60.45091163 54.70533983 -57.61712327 51.85166546 -54.78125 49 C-54.14767578 48.35812744 -53.51410156 47.71625488 -52.86132812 47.05493164 C-49.08080742 43.25408022 -45.18521006 39.657068 -41.109375 36.17407227 C-39.2538017 34.53830312 -37.51236294 32.82873603 -35.78125 31.0625 C-33.48608949 28.7261476 -31.13587335 26.54264105 -28.640625 24.421875 C-23.87261312 20.27730482 -19.45931205 15.81436308 -15.03125 11.3125 C-13.46593099 9.72160388 -11.89830731 8.13297132 -10.328125 6.546875 C-9.64588867 5.85303711 -8.96365234 5.15919922 -8.26074219 4.44433594 C-2.98383327 -0.572242 -2.98383327 -0.572242 0 0 Z " fill="#024C9F" transform="translate(923.28125,705.4375)"/>
<path d="M0 0 C-1.46931415 3.51561479 -3.35652576 5.41213228 -6.2421875 7.8671875 C-10.59426276 11.68756833 -14.73944943 15.64940926 -18.8203125 19.7578125 C-19.41414734 20.35495056 -20.00798218 20.95208862 -20.61981201 21.56732178 C-22.45686746 23.41791893 -24.29136829 25.27101077 -26.125 27.125 C-28.56206965 29.58897028 -31.00265488 32.04938308 -33.4453125 34.5078125 C-34.25501999 35.3299675 -34.25501999 35.3299675 -35.08108521 36.16873169 C-37.90140574 39.00670647 -40.78363909 41.70897315 -43.81787109 44.31787109 C-48.59773662 48.45482114 -53.02295513 52.91602953 -57.46875 57.40625 C-58.34849487 58.28978149 -59.22823975 59.17331299 -60.13464355 60.08361816 C-62.92554506 62.88665133 -65.71329232 65.69279916 -68.5 68.5 C-72.17398738 72.2010055 -75.85165602 75.89831822 -79.53125 79.59375 C-80.36168823 80.43248657 -81.19212646 81.27122314 -82.04772949 82.13537598 C-82.84215454 82.93310425 -83.63657959 83.73083252 -84.45507812 84.55273438 C-85.14154419 85.24443726 -85.82801025 85.93614014 -86.53527832 86.64880371 C-88.58624176 88.60529951 -90.67273824 90.46430754 -92.81640625 92.31640625 C-96.87616075 95.84624863 -100.69488834 99.5667184 -104.48242188 103.38476562 C-105.1827504 104.08655441 -105.88307892 104.7883432 -106.60462952 105.51139832 C-108.11108354 107.02163088 -109.61638226 108.53301659 -111.12062073 110.04545593 C-113.50699953 112.44470583 -115.89658216 114.84072388 -118.2869873 117.23596191 C-123.36081378 122.321165 -128.43069815 127.41028695 -133.5 132.5 C-139.37855544 138.40222504 -145.25875291 144.30279452 -151.14320374 150.19914246 C-153.48715071 152.54952954 -155.82804378 154.9029287 -158.16882324 157.25646973 C-159.61825855 158.70954057 -161.06783614 160.16246951 -162.51757812 161.61523438 C-163.15885147 162.26167404 -163.80012482 162.90811371 -164.46083069 163.57414246 C-168.22361358 167.33735759 -172.09964261 170.90550755 -176.1437912 174.36521149 C-179.41977684 177.25041691 -182.44513932 180.38452067 -185.5 183.5 C-189.88514916 187.93255618 -194.27811904 192.24328301 -199.046875 196.265625 C-202.14782397 199.01926768 -205.0212163 202.00105221 -207.93237305 204.9519043 C-211.15430605 208.20066345 -214.49375961 211.22473979 -217.97265625 214.19140625 C-220.41428634 216.36958492 -222.70048032 218.67248008 -225 221 C-230.35621067 226.41389294 -235.86911056 231.47610581 -242 236 C-246.2742558 234.4169423 -248.26531794 231.49431596 -251 228 C-249.6592337 225.01777541 -248.18121996 222.93239572 -245.87060547 220.62768555 C-245.23589325 219.9898967 -244.60118103 219.35210785 -243.94723511 218.69499207 C-243.2608194 218.01576187 -242.57440369 217.33653168 -241.8671875 216.63671875 C-241.1565213 215.92651077 -240.4458551 215.2163028 -239.71365356 214.48457336 C-238.20795094 212.98189043 -236.69982002 211.48163732 -235.18945312 209.98364258 C-232.89923697 207.71154523 -230.61698689 205.43168678 -228.3359375 203.15039062 C-226.86765572 201.68703005 -225.39891977 200.22412502 -223.9296875 198.76171875 C-223.25541718 198.08856125 -222.58114685 197.41540375 -221.88644409 196.72184753 C-215.40223177 190.30092579 -208.5259906 184.37865803 -201.5 178.5625 C-200.96375 178.11712891 -200.4275 177.67175781 -199.875 177.21289062 C-198.58411008 176.14099096 -197.29217428 175.07035103 -196 174 C-196.495 171.525 -196.495 171.525 -197 169 C-198.2375 168.60059204 -198.2375 168.60059204 -199.5 168.19311523 C-241.20683655 154.67388606 -241.20683655 154.67388606 -246 149 C-244.16994917 147.1424984 -242.33607989 145.28902768 -240.5 143.4375 C-239.9946875 142.92380859 -239.489375 142.41011719 -238.96875 141.88085938 C-236.12409327 139.01842354 -233.21731896 136.29076239 -230.15625 133.66015625 C-225.53858971 129.66610104 -221.27840993 125.35142034 -217 121 C-215.48172394 119.45581479 -213.96091265 117.91411794 -212.4375 116.375 C-211.77621094 115.70210937 -211.11492187 115.02921875 -210.43359375 114.3359375 C-208.40251143 112.38635929 -206.33516219 110.54331309 -204.20507812 108.70507812 C-200.04592342 105.09045959 -196.15168222 101.26318407 -192.28125 97.34375 C-191.57907349 96.63778687 -190.87689697 95.93182373 -190.15344238 95.20446777 C-187.93315397 92.97208642 -185.71616045 90.73647889 -183.5 88.5 C-180.57590521 85.54909622 -177.64836943 82.60166797 -174.71875 79.65625 C-173.735578 78.66063049 -173.735578 78.66063049 -172.73254395 77.64489746 C-168.91996817 73.81246578 -164.98593297 70.200999 -160.89416504 66.66931152 C-158.07887017 64.18821613 -155.44311928 61.54907618 -152.8125 58.875 C-152.2656958 58.32440918 -151.7188916 57.77381836 -151.15551758 57.20654297 C-149.43450493 55.47349183 -147.71682168 53.73720227 -146 52 C-132.87469791 38.71888595 -132.87469791 38.71888595 -126.60546875 33.3828125 C-124.45492431 31.53051875 -122.47554081 29.53632668 -120.5 27.5 C-117.18811097 24.14861655 -113.82261225 20.9700631 -110.18359375 17.9765625 C-107.84541275 15.94790286 -107.84541275 15.94790286 -105.53515625 13.0859375 C-98.9298324 5.53239543 -98.9298324 5.53239543 -93.84228516 4.60791016 C-88.74164743 4.41383502 -83.71658864 5.08620964 -78.66308594 5.71582031 C-74.33827399 6.1773239 -70.03332076 6.20347126 -65.6875 6.1875 C-64.38570801 6.18375366 -64.38570801 6.18375366 -63.05761719 6.17993164 C-46.74426617 6.01068736 -30.67815515 3.99051401 -14.6027832 1.32128906 C-13.04950317 1.06557129 -13.04950317 1.06557129 -11.46484375 0.8046875 C-10.553396 0.64983887 -9.64194824 0.49499023 -8.70288086 0.33544922 C-5.77740965 -0.02762525 -2.94494982 -0.05571307 0 0 Z " fill="#024CA0" transform="translate(698,747)"/>
<path d="M0 0 C0.66 0 1.32 0 2 0 C2.29132813 1.13953125 2.58265625 2.2790625 2.8828125 3.453125 C7.96574923 23.16792888 13.25609795 42.16174106 22.73828125 60.26171875 C23.20524414 61.16212891 23.67220703 62.06253906 24.15332031 62.99023438 C25.07653185 64.75732396 26.01675889 66.51565132 26.97558594 68.26367188 C27.39743164 69.06740234 27.81927734 69.87113281 28.25390625 70.69921875 C28.63877197 71.40908936 29.0236377 72.11895996 29.42016602 72.8503418 C30.24631184 75.91316875 29.41857784 77.1754307 28 80 C26.29871779 81.97162491 24.61054945 83.77975112 22.75927734 85.59716797 C22.22563568 86.132854 21.69199402 86.66854004 21.1421814 87.22045898 C19.38059886 88.98504279 17.60852011 90.73865946 15.8359375 92.4921875 C14.60184334 93.72322075 13.36834197 94.95484852 12.13540649 96.18704224 C9.549068 98.76878055 6.95790377 101.34553706 4.36279297 103.91845703 C1.05435161 107.19873541 -2.24546547 110.48751477 -5.54209328 113.77966118 C-8.70461117 116.93699066 -11.87178251 120.08963651 -15.0390625 123.2421875 C-15.63479694 123.83604122 -16.23053139 124.42989494 -16.84431839 125.04174423 C-28.29858639 136.44935574 -28.29858639 136.44935574 -34.44320679 141.66091919 C-36.75622012 143.65046523 -38.87271837 145.81522427 -41 148 C-43.91626603 150.95183025 -46.84605835 153.80388859 -50 156.5 C-55.56382659 161.27061302 -61.355258 166.35186642 -65.66796875 172.30078125 C-66.10753906 172.86152344 -66.54710937 173.42226563 -67 174 C-67.66 174 -68.32 174 -69 174 C-69.23332031 174.56203125 -69.46664062 175.1240625 -69.70703125 175.703125 C-71.31937076 178.56734142 -73.3193562 180.47252021 -75.6875 182.75 C-78.77090104 185.76713884 -81.76141526 188.78141718 -84.5625 192.0625 C-87.78191685 195.82732394 -91.2547441 199.27811921 -94.7890625 202.74609375 C-97.53575536 205.54616757 -100.02995185 208.51537512 -102.4921875 211.56640625 C-104 213 -104 213 -107 213 C-113.36523569 207.43041877 -118.32051626 200.65980676 -123.45166016 193.97924805 C-124.56946555 192.55035364 -125.7071506 191.13693413 -126.85693359 189.73364258 C-131.9386149 183.52221781 -136.41544856 177.06252234 -140.75 170.3125 C-141.39582031 169.31927734 -142.04164063 168.32605469 -142.70703125 167.30273438 C-144.49056519 164.54686314 -146.24694772 161.77531282 -148 159 C-148.46599609 158.2992334 -148.93199219 157.5984668 -149.41210938 156.87646484 C-152.1190777 152.61990451 -152.1190777 152.61990451 -151.6015625 149.92578125 C-149.33183302 147.19656995 -146.91331117 144.66341606 -144.375 142.1875 C-143.83447998 141.65342529 -143.29395996 141.11935059 -142.73706055 140.5690918 C-139.2447916 137.14339178 -135.65184116 133.87765366 -131.92578125 130.70703125 C-128.87926469 128.00656931 -126.06898839 125.07675615 -123.2109375 122.1796875 C-121.24107189 120.23766452 -119.22846367 118.41938329 -117.125 116.625 C-112.81307754 112.9315206 -108.86927934 108.90227403 -104.90625 104.84375 C-102.82249758 102.75453625 -100.65103618 100.81983146 -98.40769958 98.90351868 C-93.59037972 94.7032622 -89.082928 90.2232057 -84.57055664 85.69995117 C-83.66391266 84.79505951 -82.75726868 83.89016785 -81.82315063 82.95785522 C-79.36056607 80.49978902 -76.90110593 78.0386196 -74.44237447 75.57669997 C-71.86188642 72.9936638 -69.27894095 70.41308676 -66.69639587 67.83210754 C-62.36830897 63.50583325 -58.04232033 59.17746925 -53.7175293 54.84790039 C-48.71600596 49.84091551 -43.71086256 44.837571 -38.70386416 39.83606166 C-34.39699942 35.53372939 -30.09207939 31.22945853 -25.78879064 26.92354947 C-23.2217041 24.35490355 -20.65394564 21.78693911 -18.08442879 19.22072411 C-15.22798234 16.36769317 -12.37562562 13.51060785 -9.52368164 10.65307617 C-8.67022659 9.80164536 -7.81677155 8.95021454 -6.93745422 8.07298279 C-5.77895966 6.91025848 -5.77895966 6.91025848 -4.59706116 5.7240448 C-3.92255952 5.04916614 -3.24805788 4.37428747 -2.5531168 3.67895794 C-0.91740327 2.06737257 -0.91740327 2.06737257 0 0 Z " fill="#024D9F" transform="translate(347,524)"/>
<path d="M0 0 C1.89673462 0.39227783 1.89673462 0.39227783 3.83178711 0.79248047 C17.80635658 3.766999 31.3228177 8.05939499 44.875 12.5625 C46.03112793 12.94631836 47.18725586 13.33013672 48.37841797 13.72558594 C51.21155249 14.66844382 54.0437704 15.61394015 56.875 16.5625 C55.47136715 19.75261472 53.81107907 21.85268973 51.3203125 24.27734375 C50.62292969 24.96376953 49.92554688 25.65019531 49.20703125 26.35742188 C48.47871094 27.06447266 47.75039063 27.77152344 47 28.5 C42.69564343 32.70040521 38.58443305 36.81731616 34.875 41.5625 C33.22064669 43.24283475 31.55129719 44.90420933 29.875 46.5625 C28.39578285 48.04031376 26.9173525 49.51891526 25.43945312 50.99804688 C14.06315104 62.37434896 2.68684896 73.75065104 -8.68945312 85.12695312 C-9.47379227 85.91133759 -10.25813141 86.69572205 -11.0662384 87.50387573 C-12.6651611 89.10269177 -14.26450286 90.70108874 -15.86401367 92.29931641 C-18.06307202 94.50051184 -20.25743959 96.70627118 -22.45039368 98.9135437 C-24.68874023 101.16545071 -26.92990615 103.41454381 -29.17114258 105.66357422 C-30.34425013 106.84170821 -31.51645828 108.02073848 -32.68774414 109.20068359 C-43.72861902 120.32074348 -43.72861902 120.32074348 -48.3984375 124.203125 C-51.46932043 126.79524666 -53.8158818 129.62329164 -56.26953125 132.8046875 C-68.84278289 148.45009303 -68.84278289 148.45009303 -79.0266571 149.83790588 C-86.43216345 150.45247319 -93.87398234 150.06650216 -101.2865448 149.73207092 C-109.33830423 149.40816094 -117.14989912 150.20371083 -125.125 151.25 C-125.80467834 151.3364679 -126.48435669 151.42293579 -127.18463135 151.51202393 C-145.12908871 153.82579758 -163.06626555 157.30933535 -180.109375 163.484375 C-189.71275347 166.9177072 -189.71275347 166.9177072 -194.125 165.5625 C-147.125 118.5625 -147.125 118.5625 -144.82658386 116.26507568 C-141.22143088 112.65859916 -137.61961955 109.04879288 -134.01757812 105.43920898 C-125.84985131 97.25512836 -117.67958623 89.07358558 -109.50783539 80.89352322 C-104.56685299 75.94737849 -99.62682063 71.00029165 -94.68896484 66.05102539 C-89.90685881 61.25787495 -85.12213412 56.46735142 -80.33580017 51.67842293 C-78.51367585 49.85445192 -76.69243145 48.02960144 -74.87208557 46.20385551 C-72.32785328 43.65237023 -69.78051473 41.10402553 -67.23242188 38.55639648 C-66.48214218 37.80252151 -65.73186249 37.04864655 -64.95884705 36.27192688 C-61.48709632 32.80701331 -58.01945498 29.55897851 -54.125 26.5625 C-53.04954899 25.38413502 -52.00621372 24.17551165 -51 22.9375 C-44.16760577 15.02245658 -36.36138656 8.4879884 -27.875 2.4375 C-27.2137915 1.95176514 -26.55258301 1.46603027 -25.87133789 0.96557617 C-17.5621898 -4.78162795 -9.33695599 -1.93683912 0 0 Z " fill="#E1241D" transform="translate(695.125,54.4375)"/>
<path d="M0 0 C4.08000964 1.32475074 7.71883455 3.27321235 11.48828125 5.3046875 C12.32004883 5.74876953 13.15181641 6.19285156 14.00878906 6.65039062 C32.61609002 16.6573257 50.802473 27.10603965 66.86328125 40.9296875 C65.38219252 44.3831292 63.43506426 46.57890076 60.7578125 49.1953125 C59.93861328 50.00355469 59.11941406 50.81179687 58.27539062 51.64453125 C57.41751953 52.48113281 56.55964844 53.31773437 55.67578125 54.1796875 C53.99232127 55.82821019 52.31129669 57.47922386 50.6328125 59.1328125 C49.51289917 60.22577637 49.51289917 60.22577637 48.37036133 61.34082031 C46.4860904 63.28656078 44.74155822 65.23383375 42.99267578 67.29370117 C37.02711762 74.16223637 30.45794828 80.47839723 24.0234375 86.90234375 C22.57272506 88.35373101 21.122161 89.80526658 19.67173767 91.25694275 C16.64158542 94.28856359 13.60964672 97.31838317 10.57641602 100.34692383 C6.7053747 104.2122684 2.83884085 108.08208575 -1.0263586 111.95327091 C-4.01782427 114.94836487 -7.01168586 117.94105479 -10.00625801 120.93304253 C-11.43221819 122.35833971 -12.85744725 123.78436878 -14.28190422 125.21116829 C-27.74100098 138.68754285 -27.74100098 138.68754285 -33.65827942 143.66456604 C-36.68007382 146.25035827 -39.33428959 149.2184767 -42.05859375 152.109375 C-44.28188472 154.05684416 -45.24632675 154.59244768 -48.13671875 154.9296875 C-50.24536133 154.1003418 -50.24536133 154.1003418 -52.53125 152.75390625 C-53.39250488 152.26043701 -54.25375977 151.76696777 -55.14111328 151.25854492 C-56.06778809 150.71689697 -56.99446289 150.17524902 -57.94921875 149.6171875 C-79.50212126 137.45946107 -102.44023375 128.89161101 -126.13671875 121.9296875 C-124.98632794 120.77929669 -123.83560141 119.62924043 -122.68359375 118.48046875 C-121.62631577 117.42052088 -120.5744588 116.35514517 -119.52734375 115.28515625 C-116.5915501 112.3022283 -113.61406643 109.44008611 -110.4296875 106.72265625 C-106.00947811 102.87537107 -101.88009363 98.7829582 -97.76171875 94.6171875 C-96.60857178 93.4583606 -96.60857178 93.4583606 -95.43212891 92.27612305 C-92.9978611 89.82974568 -90.56687769 87.3801461 -88.13671875 84.9296875 C-84.93135697 81.69755062 -81.72257802 78.46886215 -78.51171875 75.2421875 C-77.43011475 74.14813599 -77.43011475 74.14813599 -76.32666016 73.03198242 C-72.33129662 69.01761101 -68.23293501 65.20384554 -63.94290161 61.50656128 C-61.53723543 59.40631329 -59.26715486 57.18972388 -57.0078125 54.93359375 C-56.11771484 54.04478516 -55.22761719 53.15597656 -54.31054688 52.24023438 C-53.40755859 51.33337891 -52.50457031 50.42652344 -51.57421875 49.4921875 C-50.66736328 48.58919922 -49.76050781 47.68621094 -48.82617188 46.75585938 C-44.34318799 42.2663737 -40.01851791 37.71939586 -35.88647461 32.90649414 C-32.48875469 29.0678813 -28.83199184 25.48156681 -25.19921875 21.8671875 C-24.43931641 21.10341797 -23.67941406 20.33964844 -22.89648438 19.55273438 C-18.69307159 15.35650077 -14.4117498 11.32832366 -9.87939453 7.48852539 C-8.10215085 5.89876623 -6.5459293 4.19850313 -4.94921875 2.4296875 C-2.13671875 -0.0703125 -2.13671875 -0.0703125 0 0 Z " fill="#024DA0" transform="translate(793.13671875,88.0703125)"/>
<path d="M0 0 C-1.66335306 1.69087177 -3.33056539 3.37764845 -5 5.0625 C-5.45761719 5.52849609 -5.91523438 5.99449219 -6.38671875 6.47460938 C-8.93409008 9.03942845 -11.53360152 11.47013775 -14.29829407 13.79928589 C-20.98532695 19.63271729 -27.15201471 26.02136117 -33.41479492 32.30126953 C-34.86575692 33.75251395 -36.31693984 35.20353751 -37.76832581 36.65435791 C-41.69179212 40.57753827 -45.6121751 44.50378655 -49.53199935 48.43060541 C-53.64114114 52.54601998 -57.75313559 56.65858228 -61.86482239 60.77145386 C-69.6485786 68.558314 -77.42978386 76.34771804 -85.21006709 84.13804805 C-94.0502708 92.98942108 -102.89330543 101.83796352 -111.73658597 110.68626237 C-126.85142079 125.80977362 -141.96413558 140.93540067 -157.07449341 156.06338501 C-157.7121069 156.7017381 -158.3497204 157.34009119 -159.00665551 157.99778831 C-160.17720945 159.16971192 -161.34774872 160.34165017 -162.51826924 161.51360714 C-172.03243154 171.03904062 -172.03243154 171.03904062 -174.8671875 173.83203125 C-179.90405646 178.81585436 -184.82084319 183.8150075 -189.4296875 189.203125 C-193.21227002 193.53145326 -197.33304076 197.46283478 -201.69921875 201.1953125 C-206.12040699 205.04792446 -210.25363105 209.14370077 -214.375 213.3125 C-215.14376465 214.08505127 -215.9125293 214.85760254 -216.70458984 215.65356445 C-219.13885765 218.09994182 -221.56984106 220.5495414 -224 223 C-227.20536178 226.23213688 -230.41414073 229.46082535 -233.625 232.6875 C-234.706604 233.78155151 -234.706604 233.78155151 -235.81005859 234.89770508 C-239.80017584 238.90680525 -243.89383154 242.7130116 -248.17822266 246.40530396 C-250.68089696 248.59602437 -253.03095829 250.91865178 -255.375 253.27734375 C-256.29667969 254.20224609 -257.21835937 255.12714844 -258.16796875 256.08007812 C-259.11203607 257.03249568 -260.05604582 257.98497031 -261 258.9375 C-261.97502386 259.9175531 -262.9502828 260.8973724 -263.92578125 261.87695312 C-266.28616618 264.24902313 -268.64416905 266.6234086 -271 269 C-272 267 -272 267 -271.15820312 264.14379883 C-270.70380859 262.92716553 -270.24941406 261.71053223 -269.78125 260.45703125 C-269.53225449 259.78936737 -269.28325897 259.12170349 -269.02671814 258.43380737 C-268.19557012 256.22231544 -267.34966949 254.01693851 -266.5 251.8125 C-266.20989044 251.05546783 -265.91978088 250.29843567 -265.62088013 249.51846313 C-256.44958046 225.70038157 -245.25557869 202.81982741 -232 181 C-231.27200195 179.79561279 -231.27200195 179.79561279 -230.52929688 178.56689453 C-223.73363626 167.39076361 -216.40042235 156.67928314 -208.61132812 146.17431641 C-207.00856583 144.01155868 -205.41786097 141.84031242 -203.828125 139.66796875 C-198.90283241 132.97617197 -193.91251312 126.48524358 -188.23046875 120.40625 C-186.37014541 118.39931624 -184.58128128 116.35871786 -182.796875 114.28515625 C-178.74489909 109.63932362 -174.43112768 105.28400805 -170.0625 100.9375 C-169.30259766 100.17373047 -168.54269531 99.40996094 -167.75976562 98.62304688 C-163.00260415 93.87401035 -158.10381489 89.37183485 -153 85 C-151.75022631 83.90747939 -150.50151409 82.81374326 -149.25390625 81.71875 C-142.64817457 75.94875213 -136.06236556 70.2099418 -129 65 C-128.36723145 64.53094238 -127.73446289 64.06188477 -127.08251953 63.57861328 C-118.30338748 57.08848846 -109.49732497 50.79427885 -100.08642578 45.2421875 C-97.48173279 43.6914412 -94.8959267 42.11078757 -92.30859375 40.53125 C-67.56001618 25.46756352 -42.42682287 12.75680853 -15.1875 2.75 C-14.1257959 2.35482178 -13.0640918 1.95964355 -11.97021484 1.55249023 C-10.98359863 1.20001221 -9.99698242 0.84753418 -8.98046875 0.484375 C-7.67952271 0.01596191 -7.67952271 0.01596191 -6.35229492 -0.46191406 C-3.81660402 -1.04195171 -2.42797559 -0.85226612 0 0 Z " fill="#024DA1" transform="translate(440,76)"/>
<path d="M0 0 C4.30867276 1.39533531 6.73954987 3.38937574 9.875 6.625 C11.18404297 7.97271484 11.18404297 7.97271484 12.51953125 9.34765625 C15.16591784 12.17741451 17.71484863 15.06993399 20.23046875 18.015625 C22.19161377 20.21487813 24.26437182 22.25655131 26.375 24.3125 C30.53082752 28.41178565 34.19959368 32.78387348 37.84765625 37.3359375 C40.79461943 40.98353983 43.8807393 44.49960777 47 48 C45.39748837 51.80484605 42.97939264 54.42487207 40.1875 57.4375 C39.70829102 57.95538086 39.22908203 58.47326172 38.73535156 59.00683594 C34.49940877 63.54748367 30.12259982 67.94442305 25.68041992 72.28295898 C22.99129555 74.92688799 20.44073813 77.6221382 17.9987793 80.49682617 C13.20913612 85.99327556 8.03685272 91.10754282 2.87890625 96.25390625 C1.80933836 97.32414967 0.73991879 98.39454134 -0.32936096 99.46507263 C-2.55918224 101.69635913 -4.7907784 103.92585057 -7.02368164 106.15405273 C-9.86564432 108.99031888 -12.70309242 111.83105231 -15.53921413 114.67315769 C-17.74318226 116.88076333 -19.94955619 119.08595221 -22.15663338 121.29044914 C-23.20300449 122.33615979 -24.24865174 123.38259535 -25.29351616 124.42981148 C-30.50855533 129.65401412 -35.75671098 134.78530079 -41.36445618 139.59129333 C-43.31772969 141.27366307 -45.16778532 143.03855912 -46.9921875 144.859375 C-47.63414062 145.50003906 -48.27609375 146.14070312 -48.9375 146.80078125 C-49.8965625 147.76564453 -49.8965625 147.76564453 -50.875 148.75 C-51.53757812 149.40871094 -52.20015625 150.06742188 -52.8828125 150.74609375 C-53.51703125 151.38160156 -54.15125 152.01710938 -54.8046875 152.671875 C-55.37171387 153.2400293 -55.93874023 153.80818359 -56.52294922 154.39355469 C-58.2049774 156.1397323 -58.2049774 156.1397323 -60 159 C-64.09367333 158.49175613 -65.68884268 156.48988996 -68.3125 153.4375 C-69.10140625 152.53257812 -69.8903125 151.62765625 -70.703125 150.6953125 C-72.09074682 149.06698077 -73.47667617 147.43720166 -74.859375 145.8046875 C-78.30052313 141.77949129 -81.86851159 138.26089038 -85.91015625 134.83984375 C-88.15631356 132.86238564 -90.22660347 130.77038734 -92.3125 128.625 C-96.43271124 124.44786011 -100.82745163 120.75357253 -105.40234375 117.0859375 C-108.66801242 114.463581 -111.83527612 111.74276069 -115 109 C-111.08370012 104.97137794 -106.95099211 101.28140849 -102.6875 97.625 C-101.34366325 96.46624644 -99.99991234 95.3073933 -98.65625 94.1484375 C-97.70105469 93.32617676 -97.70105469 93.32617676 -96.7265625 92.48730469 C-71.34121825 72.12073985 -71.34121825 72.12073985 -50 48 C-49.34 48 -48.68 48 -48 48 C-47.65122803 47.16335815 -47.65122803 47.16335815 -47.29541016 46.30981445 C-45.66376361 43.40046504 -43.63827874 41.39651509 -41.2734375 39.04296875 C-40.8069278 38.57691727 -40.34041809 38.11086578 -39.85977173 37.63069153 C-38.8719326 36.64586655 -37.88167105 35.66346619 -36.88916016 34.68334961 C-35.39566953 33.20791957 -33.9101425 31.7248426 -32.42578125 30.24023438 C-27.65500253 25.48773986 -22.81600705 20.86992878 -17.70263672 16.48657227 C-15.30822206 14.39600862 -13.09234746 12.15089129 -10.875 9.875 C-7.3932437 6.35025906 -3.8869598 3.06865248 0 0 Z " fill="#024DA0" transform="translate(888,152)"/>
<path d="M0 0 C0.66 0 1.32 0 2 0 C4.34404948 2.89598647 6.25278217 6.10825779 8.25 9.25 C8.83007812 10.12269531 9.41015625 10.99539063 10.0078125 11.89453125 C10.54664063 12.73886719 11.08546875 13.58320312 11.640625 14.453125 C12.14110352 15.22817383 12.64158203 16.00322266 13.15722656 16.80175781 C14 19 14 19 13.41772461 21.00390625 C11.69907442 23.42368994 9.7984461 25.4073659 7.67578125 27.484375 C6.81146484 28.33773437 5.94714844 29.19109375 5.05664062 30.0703125 C4.15107422 30.95460938 3.24550781 31.83890625 2.3125 32.75 C-3.15920624 38.11426182 -8.56174004 43.4425366 -13.48950195 49.31738281 C-15.52150198 51.5809264 -17.81104364 53.43497389 -20.15853882 55.36019897 C-22.03612002 57.03216448 -23.61617284 58.78491099 -25.23999023 60.70263672 C-28.8742856 64.90683568 -32.71685918 68.8447194 -36.66015625 72.7578125 C-37.39120575 73.48740173 -38.12225525 74.21699097 -38.87545776 74.96868896 C-40.44953386 76.53898485 -42.02476323 78.1081254 -43.6010437 79.6762085 C-46.1011045 82.16340587 -48.59794072 84.65380092 -51.09399414 87.14501953 C-57.29130926 93.32902554 -63.49407014 99.50755998 -69.69665527 105.6862793 C-74.94759997 110.91743969 -80.19645611 116.15067907 -85.44259644 121.38665771 C-87.89270098 123.8303188 -90.34581693 126.27092848 -92.79907227 128.71142578 C-94.31281195 130.22153015 -95.82640985 131.73177667 -97.33984375 133.2421875 C-98.35158157 134.24617584 -98.35158157 134.24617584 -99.38375854 135.27044678 C-103.25300243 139.13926379 -106.92589751 143.11919007 -110.48170471 147.27859497 C-115.35674749 152.80579592 -115.35674749 152.80579592 -119.4128418 153.28515625 C-122.56461673 152.93776802 -123.52149804 152.12688886 -125.76953125 149.9375 C-126.43017578 149.30585937 -127.09082031 148.67421875 -127.77148438 148.0234375 C-128.44501953 147.35570312 -129.11855469 146.68796875 -129.8125 146 C-130.50537109 145.33226562 -131.19824219 144.66453125 -131.91210938 143.9765625 C-133.61909429 142.32843914 -135.31414105 140.66968231 -137 139 C-136.43949716 135.14498001 -134.75902292 133.39639124 -132.02734375 130.69921875 C-131.20943359 129.88646484 -130.39152344 129.07371094 -129.54882812 128.23632812 C-128.68708984 127.39521484 -127.82535156 126.55410156 -126.9375 125.6875 C-126.10283203 124.85798828 -125.26816406 124.02847656 -124.40820312 123.17382812 C-120.78421811 119.595037 -117.13402215 116.10171672 -113.275177 112.77716064 C-109.3546306 109.35299217 -105.63412627 105.7759952 -101.96069336 102.09008789 C-101.3075264 101.43867325 -100.65435944 100.78725861 -99.98139954 100.11610413 C-97.84837925 97.98744251 -95.71898793 95.8551943 -93.58984375 93.72265625 C-92.09361603 92.22710329 -90.59723999 90.73169871 -89.10072327 89.23643494 C-85.97494547 86.11212601 -82.85096945 82.98602966 -79.72827148 79.85864258 C-75.74185878 75.86653311 -71.75097285 71.87893053 -67.75871944 67.892663 C-64.67097963 64.80855071 -61.58564278 61.72204331 -58.50100899 58.63482475 C-57.03105452 57.16420708 -55.56036759 55.69432113 -54.08891106 54.22520638 C-52.02680376 52.16566174 -49.96796801 50.10289875 -47.90991211 48.03930664 C-47.31179718 47.44321594 -46.71368225 46.84712524 -46.09744263 46.23297119 C-42.45125521 42.56875295 -39.00539938 38.7814072 -35.64804935 34.85042477 C-32.82579374 31.6816048 -29.69754956 28.85390094 -26.5625 26 C-25.23854898 24.78107043 -23.9156225 23.56102706 -22.59375 22.33984375 C-21.96984375 21.76347168 -21.3459375 21.18709961 -20.703125 20.59326172 C-17.98360162 18.04916631 -15.3803991 15.39647135 -12.7734375 12.73828125 C-10.21926239 10.23473956 -7.50518435 7.93333865 -4.76171875 5.640625 C-2.90380555 4.01462392 -2.90380555 4.01462392 -1.39453125 1.796875 C-0.93433594 1.20390625 -0.47414062 0.6109375 0 0 Z " fill="#E1241D" transform="translate(200,686)"/>
<path d="M0 0 C0 3 0 3 -1.70898438 5.06542969 C-2.88944336 6.23187012 -2.88944336 6.23187012 -4.09375 7.421875 C-5.393125 8.71351563 -5.393125 8.71351563 -6.71875 10.03125 C-7.6365625 10.9284375 -8.554375 11.825625 -9.5 12.75 C-10.386875 13.63171875 -11.27375 14.5134375 -12.1875 15.421875 C-16.00272038 19.19221043 -19.82848004 22.90827011 -23.90625 26.39453125 C-29.56671589 31.26213047 -34.74633689 36.64053298 -40 41.9375 C-41.07137887 43.01390654 -42.14299182 44.09008014 -43.21484375 45.16601562 C-45.81259638 47.77466745 -48.40717962 50.38644471 -51 53 C-51 50 -51 50 -49.64916992 48.28167725 C-48.69941284 47.33738861 -48.69941284 47.33738861 -47.73046875 46.37402344 C-47.01552246 45.65607605 -46.30057617 44.93812866 -45.56396484 44.19842529 C-44.77973145 43.4265387 -43.99549805 42.6546521 -43.1875 41.859375 C-41.98407959 40.65876434 -41.98407959 40.65876434 -40.75634766 39.43389893 C-39.05150238 37.7357894 -37.34305681 36.0412881 -35.63134766 34.35009766 C-33.03172662 31.78134984 -30.44265977 29.20235425 -27.85546875 26.62109375 C-26.19592788 24.97073513 -24.53578986 23.32097672 -22.875 21.671875 C-22.10696045 20.90808533 -21.3389209 20.14429565 -20.54760742 19.35736084 C-16.41088826 15.27433753 -12.19831773 11.33926546 -7.77978516 7.56207275 C-5.05229328 5.1682216 -2.53355853 2.59689749 0 0 Z " fill="#0153B4" transform="translate(468,727)"/>
<path d="M0 0 C0.66 0.33 1.32 0.66 2 1 C0.72153198 2.27061279 0.72153198 2.27061279 -0.58276367 3.56689453 C-3.76291447 6.72886072 -6.93968544 9.89420444 -10.11547852 13.06054688 C-11.48696313 14.42702194 -12.85934639 15.79259572 -14.23266602 17.15722656 C-16.21350786 19.12585429 -18.1910292 21.09776695 -20.16796875 23.0703125 C-20.77650192 23.67368439 -21.3850351 24.27705627 -22.01200867 24.89871216 C-24.73639634 27.62274518 -27.3039201 30.33316466 -29.67700195 33.37060547 C-32.06637134 36.07512553 -32.66355411 36.39620806 -36 37 C-31.82222235 32.01407125 -27.46872723 27.33295716 -22.8515625 22.75390625 C-22.19417084 22.09792953 -21.53677917 21.44195282 -20.85946655 20.76609802 C-18.78367138 18.69584732 -16.70440573 16.62912349 -14.625 14.5625 C-13.2067992 13.14932138 -11.78882824 11.73591206 -10.37109375 10.32226562 C-6.91671223 6.87883935 -3.4592163 3.43856901 0 0 Z " fill="#F3281F" transform="translate(200,518)"/>
<path d="M0 0 C0.66 0.33 1.32 0.66 2 1 C-8.23 11.23 -18.46 21.46 -29 32 C-28.67 32.66 -28.34 33.32 -28 34 C-30.31 34.66 -32.62 35.32 -35 36 C-35 35.34 -35 34.68 -35 34 C-33.7421875 32.76342773 -33.7421875 32.76342773 -31.875 31.24609375 C-25.2090302 25.57796202 -19.16102764 19.26636868 -13 13.0625 C-11.7359115 11.79338627 -10.47159044 10.52450411 -9.20703125 9.25585938 C-6.13533276 6.1732368 -3.06679992 3.08749572 0 0 Z " fill="#0155BB" transform="translate(729,891)"/>
<path d="M0 0 C0.11214844 0.59353271 0.22429687 1.18706543 0.33984375 1.79858398 C1.06245476 4.20826722 1.89375853 5.36322582 3.5625 7.22265625 C4.37267578 8.12781982 4.37267578 8.12781982 5.19921875 9.05126953 C5.79347656 9.69435059 6.38773438 10.33743164 7 11 C7.62519531 11.68046387 8.25039062 12.36092773 8.89453125 13.06201172 C10.90340614 15.21402389 12.94652998 17.32806134 15 19.4375 C15.68578125 20.16904297 16.3715625 20.90058594 17.078125 21.65429688 C21.07244155 25.88114231 21.07244155 25.88114231 26.5 27.47265625 C27.325 27.31667969 28.15 27.16070313 29 27 C28.34 27.99 27.68 28.98 27 30 C21.92785212 29.63741272 19.39908621 26.92269097 16.04296875 23.43359375 C15.49514236 22.88010757 14.94731598 22.3266214 14.38288879 21.75636292 C12.64145248 19.99259989 10.91446641 18.21542213 9.1875 16.4375 C8.00678704 15.23671735 6.82515616 14.03683652 5.64257812 12.83789062 C2.75097731 9.90227171 -0.12774531 6.95454518 -3 4 C-2.01 2.68 -1.02 1.36 0 0 Z " fill="#0151B2" transform="translate(125,951)"/>
<path d="M0 0 C0.66 0.33 1.32 0.66 2 1 C1.19780029 1.79696289 0.39560059 2.59392578 -0.4309082 3.41503906 C-3.41344218 6.37943947 -6.39263809 9.34717552 -9.37084961 12.31591797 C-10.65900679 13.59905404 -11.94806107 14.88129015 -13.23803711 16.16259766 C-15.09466738 18.00706503 -16.94802143 19.8547708 -18.80078125 21.703125 C-19.66344353 22.55804535 -19.66344353 22.55804535 -20.54353333 23.43023682 C-23.26582135 26.1521443 -25.79949669 28.82262195 -28 32 C-28.99 31.67 -29.98 31.34 -31 31 C-20.77 20.77 -10.54 10.54 0 0 Z " fill="#F52920" transform="translate(624,97)"/>
<path d="M0 0 C0 3 0 3 -2.25 5.375 C-3.1575 6.24125 -4.065 7.1075 -5 8 C-5.639375 8.845625 -6.27875 9.69125 -6.9375 10.5625 C-9 13 -9 13 -11.75 14.8125 C-16.04483594 17.70325496 -19.43331202 21.27036689 -23 25 C-23 22 -23 22 -21.53466797 20.17822266 C-20.86064941 19.5135498 -20.18663086 18.84887695 -19.4921875 18.1640625 C-18.75226563 17.42929687 -18.01234375 16.69453125 -17.25 15.9375 C-16.46625 15.174375 -15.6825 14.41125 -14.875 13.625 C-14.11445313 12.86960937 -13.35390625 12.11421875 -12.5703125 11.3359375 C-8.52780357 7.34918731 -4.42951511 3.55210317 0 0 Z " fill="#014FAD" transform="translate(203,873)"/>
<path d="M0 0 C0 3 0 3 -2.421875 5.53125 C-3.52373568 6.52919344 -4.63370068 7.5182343 -5.75 8.5 C-6.94157384 9.57012592 -8.13297605 10.64044298 -9.32421875 11.7109375 C-9.93442871 12.25459961 -10.54463867 12.79826172 -11.17333984 13.35839844 C-12.93357119 14.94030108 -14.66808562 16.54542482 -16.39453125 18.1640625 C-16.92788086 18.66228516 -17.46123047 19.16050781 -18.01074219 19.67382812 C-19.48813231 21.05545287 -20.96478881 22.43786198 -22.44140625 23.8203125 C-24.64042935 25.69367874 -26.42580575 26.79162807 -29 28 C-24.66190445 22.75503268 -20.05792534 18.05484206 -15.0625 13.4375 C-14.38509766 12.80392578 -13.70769531 12.17035156 -13.00976562 11.51757812 C-8.76413905 7.56503411 -4.42808795 3.74684365 0 0 Z " fill="#0154B7" transform="translate(834,670)"/>
<path d="M0 0 C0 3 0 3 -1.25341797 4.62573242 C-2.11410889 5.4819519 -2.11410889 5.4819519 -2.9921875 6.35546875 C-3.61480469 6.97744141 -4.23742187 7.59941406 -4.87890625 8.24023438 C-5.53761719 8.88283203 -6.19632812 9.52542969 -6.875 10.1875 C-7.85146484 11.16879883 -7.85146484 11.16879883 -8.84765625 12.16992188 C-13.73313673 17 -13.73313673 17 -16 17 C-14.49055027 13.15776433 -12.23156958 11.48004177 -9 9 C-7.31288577 7.3540349 -5.6454378 5.68762851 -4 4 C-2 2 -2 2 0 0 Z " fill="#0150AE" transform="translate(282,795)"/>
<path d="M0 0 C0.66 0.33 1.32 0.66 2 1 C-2.95 6.28 -7.9 11.56 -13 17 C-13.66 16.67 -14.32 16.34 -15 16 C-13.88200014 14.66079162 -12.75538103 13.32877444 -11.625 12 C-10.68527344 10.88625 -10.68527344 10.88625 -9.7265625 9.75 C-8.87191406 8.88375 -8.87191406 8.88375 -8 8 C-7.34 8 -6.68 8 -6 8 C-5.7525 7.4225 -5.505 6.845 -5.25 6.25 C-3.83316683 3.6997003 -2.12372463 1.98214299 0 0 Z " fill="#0251B1" transform="translate(146,929)"/>
<path d="M0 0 C0.15855469 0.88171875 0.15855469 0.88171875 0.3203125 1.78125 C1.09457818 4.30873796 2.10171809 5.55909442 3.875 7.5 C6.04480415 9.92538204 8.09599042 12.35554225 10 15 C6.31930113 13.46356148 4.01224796 11.21849055 1.25 8.375 C0.45078125 7.55773437 -0.3484375 6.74046875 -1.171875 5.8984375 C-1.77515625 5.27195312 -2.3784375 4.64546875 -3 4 C-2.01 2.68 -1.02 1.36 0 0 Z " fill="#0156BE" transform="translate(125,951)"/>
<path d="M0 0 C0.66 0.33 1.32 0.66 2 1 C0.56974806 2.65213589 -0.86945545 4.29652589 -2.3125 5.9375 C-3.11300781 6.85402344 -3.91351562 7.77054687 -4.73828125 8.71484375 C-7 11 -7 11 -10 12 C-8.52278578 8.54798361 -6.56205999 6.35038064 -3.875 3.75 C-3.15054688 3.04359375 -2.42609375 2.3371875 -1.6796875 1.609375 C-1.12539063 1.07828125 -0.57109375 0.5471875 0 0 Z " fill="#014FAD" transform="translate(767,111)"/>
<path d="M0 0 C2.3125 2.0625 2.3125 2.0625 4 4 C3.236875 3.690625 2.47375 3.38125 1.6875 3.0625 C-0.18789677 2.32106407 -2.08684652 1.63771783 -4 1 C-5.65 2.65 -7.3 4.3 -9 6 C-9.66 5.67 -10.32 5.34 -11 5 C-5.77810651 -1.78846154 -5.77810651 -1.78846154 0 0 Z " fill="#0254B5" transform="translate(488,713)"/>
<path d="M0 0 C0 3 0 3 -1.75 5.04296875 C-2.4925 5.75066406 -3.235 6.45835937 -4 7.1875 C-4.7425 7.90292969 -5.485 8.61835938 -6.25 9.35546875 C-6.8275 9.89816406 -7.405 10.44085938 -8 11 C-8.33 10.34 -8.66 9.68 -9 9 C-8.06553465 6.96855359 -7.06775224 4.96466413 -6 3 C-5.01 3 -4.02 3 -3 3 C-1.31201173 1.56249809 -1.31201173 1.56249809 0 0 Z " fill="#0257BD" transform="translate(177,334)"/>
<path d="M0 0 C0 0.99 0 1.98 0 3 C-1.828125 4.5703125 -1.828125 4.5703125 -4.25 6.125 C-5.03890625 6.64320313 -5.8278125 7.16140625 -6.640625 7.6953125 C-8.80769102 8.89365695 -10.58202022 9.54524234 -13 10 C-9.11973109 5.75595588 -4.95745654 2.89082453 0 0 Z " fill="#0253B5" transform="translate(334,125)"/>
<path d="M0 0 C0.33 0.66 0.66 1.32 1 2 C0.06421005 4.35981813 -0.93347808 6.69631264 -2 9 C-2.66 8.67 -3.32 8.34 -4 8 C-4.99 7.67 -5.98 7.34 -7 7 C-4.69 4.69 -2.38 2.38 0 0 Z " fill="#EC2A21" transform="translate(371,349)"/>
<path d="M0 0 C0 3 0 3 -2.25 5.625 C-4.72881204 7.76579221 -5.83568489 8.64840943 -9 9 C-6.31941902 5.42589203 -3.57410797 2.68058098 0 0 Z " fill="#0253B3" transform="translate(502,921)"/>
<path d="M0 0 C3.93673644 1.31224548 6.22719294 2.91910327 9 6 C8.34 7.32 7.68 8.64 7 10 C6.67 10 6.34 10 6 10 C5.938125 9.278125 5.87625 8.55625 5.8125 7.8125 C4.75543353 4.15342375 2.79449929 2.50788398 0 0 Z " fill="#0253B2" transform="translate(884,677)"/>
<path d="M0 0 C0.33 0.66 0.66 1.32 1 2 C-1.65654657 5.73884332 -3.58110387 7.64978174 -8 9 C-7.04270084 7.87411986 -6.08412105 6.7493285 -5.125 5.625 C-4.59132813 4.99851562 -4.05765625 4.37203125 -3.5078125 3.7265625 C-2.38567993 2.44163349 -1.20628025 1.20628025 0 0 Z " fill="#CB211A" transform="translate(347,372)"/>
<path d="M0 0 C0.66 0.33 1.32 0.66 2 1 C-1.96 4.465 -1.96 4.465 -6 8 C-6.66 7.67 -7.32 7.34 -8 7 C-5.36 4.69 -2.72 2.38 0 0 Z " fill="#0254B6" transform="translate(785,250)"/>
<path d="M0 0 C0.33 0.66 0.66 1.32 1 2 C-0.65 3.98 -2.3 5.96 -4 8 C-4.99 7.67 -5.98 7.34 -7 7 C-4.69 4.69 -2.38 2.38 0 0 Z " fill="#0155B5" transform="translate(748,131)"/>
<path d="M0 0 C0.66 0.33 1.32 0.66 2 1 C1.360625 1.598125 0.72125 2.19625 0.0625 2.8125 C-2.20310389 4.90810337 -2.20310389 4.90810337 -3 8 C-4.32 7.67 -5.64 7.34 -7 7 C-4.69 4.69 -2.38 2.38 0 0 Z " fill="#0154BA" transform="translate(459,889)"/>
<path d="M0 0 C0 3.58912412 -0.66436554 4.10857029 -3 6.6875 C-3.556875 7.31011719 -4.11375 7.93273437 -4.6875 8.57421875 C-5.120625 9.04472656 -5.55375 9.51523438 -6 10 C-6 6.41087588 -5.33563446 5.89142971 -3 3.3125 C-2.443125 2.68988281 -1.88625 2.06726563 -1.3125 1.42578125 C-0.879375 0.95527344 -0.44625 0.48476562 0 0 Z " fill="#0153B7" transform="translate(248,201)"/>
<path d="M0 0 C-1.125 1.5625 -1.125 1.5625 -3 3 C-6.1875 2.6875 -6.1875 2.6875 -9 2 C-5.945634 -1.054366 -3.9532319 -1.22686507 0 0 Z " fill="#0353B8" transform="translate(440,76)"/>
</svg>
